<svg id="Layer_1" data-name="Layer 1" xmlns="http://www.w3.org/2000/svg" viewBox="0 0 592.82 78.79"><defs><style>.cls-1{fill:#cb5b28}.cls-2{fill:#fcba1e}.cls-3{fill:#df9026}.cls-4{fill:#ac722a}.cls-5{fill:#ffc841}</style></defs><title>orocommerce_logo</title><path class="cls-1" d="M677.71 392.07h-1.57v-8.24h-2.82v-1.35h7.21v1.35h-2.82zm8.44 0l-2.78-8h-.05c.07 1.19.11 2.31.11 3.34v4.67H682v-9.59h2.21l2.66 7.63 2.73-7.63h2.22v9.59h-1.5v-6.61c0-.77 0-1.22.06-1.38l-2.88 8z" transform="translate(-99.05 -356.46)"/><path class="cls-2" d="M195.53 406.32v-17.47c0-8.88 4.42-14.31 20.21-14.31s20.21 5.3 20.21 14.19v17.4c0 8.88-4.41 14.38-20.21 14.38s-20.21-5.31-20.21-14.19zm32.73-1v-15.69c0-6.74-2.69-9-12.52-9s-12.59 2.38-12.59 9.12v15.68c0 6.74 2.69 9 12.59 9s12.52-2.43 12.52-9.12zm13.65 8.45l3.34-.12V381.4l-3.34-.12v-5.79h21.41c11.1 0 15.32 2.68 15.32 8.88v5.25c0 4.89-3 8.4-9.48 8.82 5.43.48 9.18 1.37 9.66 6.45l.84 8.76 3.58.18v5.72h-10.33a2.72 2.72 0 0 1-.83-2.08l-.83-10.47c-.36-4.6-3.57-5.79-11.33-5.79h-7v12.4l3.27.12v5.79h-14.28zm19.92-18.42c7.27 0 9.3-1.55 9.3-5.36v-3.52c0-3.58-1.37-5.06-9.3-5.06h-8.88v13.95zm25.75 10.97v-17.47c0-8.88 4.41-14.31 20.21-14.31s20.21 5.3 20.21 14.19v17.4c0 8.88-4.41 14.38-20.21 14.38s-20.21-5.31-20.21-14.19zm32.73-1v-15.69c0-6.74-2.68-9-12.52-9s-12.58 2.38-12.58 9.12v15.68c0 6.74 2.69 9 12.58 9s12.52-2.43 12.52-9.12z" transform="translate(-99.05 -356.46)"/><path class="cls-1" d="M335.33 406.56v-18c0-8.21 4.49-14.08 18-14.08 10.48 0 13.89 3.77 14.67 7.61l.3-6.47h4.07v14.28h-5v-1.5c0-5.69-2.82-9.64-13.36-9.64s-13.3 3.71-13.3 10.36V406c0 6.77 2.87 10.31 13.3 10.31s13.36-3.71 13.36-9.88v-1.92h4.91v1.86c0 7.73-3.78 14.2-18.27 14.2s-18.68-5.69-18.68-14.01zm42.38 1.32v-12.83c0-7.54 3.83-12.58 16.23-12.58s16.17 4.08 16.17 12.58v12.82c0 7.55-3.83 12.64-16.17 12.64s-16.23-4.13-16.23-12.63zm27.19-.42v-11.92c0-6-2.39-8.87-11-8.87s-11.08 3.6-11.08 8.87v11.92c0 6 2.52 8.87 11.08 8.87s11-3.66 11-8.87zm41.73-18.33c1.08-4.49 4.61-6.65 12.16-6.65 8.15 0 12 2.7 12 9.64v23.42l3.59.12v3.89H461.9v-3.89l3.78-.12V392.9c0-4.61-2.28-6.34-8.44-6.34S447 388.71 447 394.82v20.73l3.78.12v3.89h-12.7v-3.89l3.78-.12V392.9c0-4.61-2.21-6.34-8.45-6.34s-10.18 2.16-10.18 8.26v20.73l3.77.12v3.89h-12.4v-3.89l3.48-.12v-27.92l-3.48-.12v-4.07h7.37a1 1 0 0 1 1 1.08l.18 4.37h.12c1.08-4.31 4.25-6.41 11.8-6.41 7.18 0 10.84 1.92 11.56 6.65zm64.37 0c1.08-4.49 4.61-6.65 12.16-6.65 8.15 0 12 2.7 12 9.64v23.42l3.6.12v3.89H526.3v-3.89l3.78-.12V392.9c0-4.61-2.28-6.34-8.45-6.34s-10.24 2.16-10.24 8.26v20.73l3.77.12v3.89h-12.7v-3.89l3.78-.12V392.9c0-4.61-2.22-6.34-8.45-6.34s-10.18 2.16-10.18 8.26v20.73l3.77.12v3.89H479v-3.89l3.48-.12v-27.92l-3.48-.12v-4.07h7.37a1 1 0 0 1 1 1.08l.18 4.37h.12c1.08-4.31 4.25-6.41 11.8-6.41 7.19 0 10.84 1.92 11.56 6.65zm31.93 18.75v-12.83c0-7.61 3.89-12.58 15.93-12.58s15.27 4.26 15.27 12.58v8a1 1 0 0 1-1 1.08h-25v3.59c0 5.93 2.7 8.81 11.2 8.81 7.49 0 10-2.81 10-5.69v-.3h4.85v.6c0 5.34-4.25 9.41-15 9.41-12.24-.03-16.25-4.17-16.25-12.67zm26.24-7.24v-5.52c0-5.62-1.86-8.68-10.25-8.68s-10.84 3.66-10.84 8.68v5.52zm9.61 15.03l3.66-.12v-27.92l-3.66-.12v-4.07h7.37c.66 0 1 .42 1.07 1.08l.24 5.38h.13c.41-4.79 3.71-7.43 7.91-7.43a6.63 6.63 0 0 1 3.11.6V388a6.64 6.64 0 0 0-3.53-.78c-4.25 0-7.48 2.52-7.55 9.11v19.23l4 .12v3.89h-12.7zm23.76-7.79v-12.83c0-7.54 4.19-12.58 14.8-12.58 6.35 0 10.78 1.86 11.62 6.83l.18-5.75H633v12.82h-4.79V395c0-6.89-4.91-8.33-9.64-8.33-8.21 0-10.79 3.6-10.79 8.87v11.92c0 6 2.58 8.87 10.79 8.87 7.37 0 9.64-2.87 9.64-6.41v-3H633v3.77c0 5.28-4.37 9.83-14.67 9.83-11.72 0-15.79-4.14-15.79-12.64zm35.65 0v-12.83c0-7.61 3.89-12.58 15.93-12.58s15.28 4.26 15.28 12.58v8a1 1 0 0 1-1 1.08h-25v3.59c0 5.93 2.69 8.81 11.2 8.81 7.48 0 10-2.81 10-5.69v-.3h4.85v.6c0 5.34-4.25 9.41-15 9.41-12.25-.03-16.26-4.17-16.26-12.67zm26.24-7.24v-5.52c0-5.62-1.86-8.68-10.25-8.68s-10.84 3.66-10.84 8.68v5.52z" transform="translate(-99.05 -356.46)"/><path class="cls-2" d="M116.26 405.36l32.15-31.52a8.75 8.75 0 0 1 12.38.12l-14.59-14.88a8.75 8.75 0 0 0-12.38-.12l-32.14 31.52a8.76 8.76 0 0 0-.12 12.38l14.59 14.88a8.75 8.75 0 0 1 .11-12.38z" transform="translate(-99.05 -356.46)"/><path class="cls-3" d="M128.52 417.87l32.15-31.52a8.75 8.75 0 0 0 .12-12.38l14.59 14.88a8.75 8.75 0 0 1-.12 12.38l-32.15 31.52a8.76 8.76 0 0 1-12.38-.12l-14.59-14.88a8.75 8.75 0 0 0 12.38.12z" transform="translate(-99.05 -356.46)"/><path class="cls-4" d="M175.38 388.85L160.79 374a8.75 8.75 0 0 1-.12 12.38l-.89.88 8.46 8.63a8.75 8.75 0 0 1-.12 12.38l7.14-7a8.75 8.75 0 0 0 .12-12.42z" transform="translate(-99.05 -356.46)"/><path class="cls-5" d="M139.05 366.09l8.46 8.63.89-.88a8.75 8.75 0 0 1 12.38.12l-14.58-14.88a8.75 8.75 0 0 0-12.38-.12l-.89.88z" transform="translate(-99.05 -356.46)"/></svg>