<svg width="24" height="24" viewBox="0 0 24 24" fill="none" xmlns="http://www.w3.org/2000/svg">
<circle cx="12" cy="12" r="11" stroke="#352E31" stroke-width="2"/>
<circle cx="12" cy="9" r="3" stroke="#352E31" stroke-width="2"/>
<path d="M20.167 20.2185C19.4411 18.6506 18.2791 17.3249 16.82 16.3995C15.3609 15.4742 13.6663 14.9884 11.9386 15.0002C10.2109 15.012 8.52303 15.5209 7.07669 16.466C5.63035 17.4112 4.48664 18.7527 3.78214 20.3303L5.60894 21.146C6.15683 19.9191 7.0463 18.8758 8.17112 18.1408C9.29594 17.4057 10.6086 17.01 11.9522 17.0008C13.2959 16.9917 14.6138 17.3694 15.7486 18.0891C16.8833 18.8087 17.7869 19.8398 18.3515 21.0591L20.167 20.2185Z" fill="#352E31"/>
</svg>
