<svg width="13" height="9" viewBox="0 0 13 9" fill="none" xmlns="http://www.w3.org/2000/svg">
<path d="M12.823 4.04561L8.95438 0.177024C8.71834 -0.059008 8.33555 -0.059008 8.09951 0.177024C7.86343 0.413105 7.86343 0.795805 8.09951 1.03189L10.9362 3.86857H0.604467C0.270656 3.86857 0 4.13923 0 4.47304C0 4.8068 0.270656 5.07751 0.604467 5.07751H10.9362L8.09961 7.9142C7.86353 8.15028 7.86353 8.53298 8.09961 8.76906C8.2176 8.887 8.37235 8.9461 8.52704 8.9461C8.68174 8.9461 8.83643 8.887 8.95447 8.76906L12.823 4.90047C13.059 4.66439 13.059 4.28169 12.823 4.04561Z" fill="#B53E20"/>
</svg>
