<svg width="13" height="10" viewBox="0 0 13 10" fill="none" xmlns="http://www.w3.org/2000/svg">
<path d="M12.823 4.81319L8.95438 0.944602C8.71834 0.70857 8.33555 0.70857 8.09951 0.944602C7.86343 1.18068 7.86343 1.56338 8.09951 1.79946L10.9362 4.63615H0.604467C0.270656 4.63615 0 4.90681 0 5.24062C0 5.57438 0.270656 5.84509 0.604467 5.84509H10.9362L8.09961 8.68178C7.86353 8.91786 7.86353 9.30056 8.09961 9.53664C8.2176 9.65458 8.37235 9.71367 8.52704 9.71367C8.68174 9.71367 8.83643 9.65458 8.95447 9.53664L12.823 5.66805C13.059 5.43197 13.059 5.04927 12.823 4.81319Z" fill="#FCB91D"/>
</svg>
