<svg width="6" height="10" viewBox="0 0 6 10" fill="none" xmlns="http://www.w3.org/2000/svg">
<path d="M1.16448 0.912945C1.224 0.853421 1.29246 0.823659 1.36984 0.823659C1.44722 0.823659 1.51567 0.853421 1.57519 0.912945L5.73591 5.07366C5.79543 5.13318 5.82519 5.20164 5.82519 5.27902C5.82519 5.3564 5.79543 5.42485 5.73591 5.48437L1.57519 9.64509C1.51567 9.70461 1.44722 9.73437 1.36984 9.73437C1.29246 9.73437 1.224 9.70461 1.16448 9.64509L0.718052 9.19866C0.658528 9.13914 0.628766 9.07068 0.628766 8.9933C0.628766 8.91592 0.658528 8.84747 0.718052 8.78795L4.22698 5.27902L0.718052 1.77009C0.658528 1.71056 0.628766 1.64211 0.628766 1.56473C0.628766 1.48735 0.658528 1.4189 0.718052 1.35937L1.16448 0.912945Z" fill="#2B2B2B"/>
</svg>
