<?xml version="1.0" encoding="utf-8"?>
<!-- Generator: Adobe Illustrator 21.0.0, SVG Export Plug-In . SVG Version: 6.00 Build 0)  -->
<svg version="1.1" id="Слой_1" xmlns="http://www.w3.org/2000/svg" xmlns:xlink="http://www.w3.org/1999/xlink" x="0px" y="0px"
	 viewBox="0 0 512 512" style="enable-background:new 0 0 512 512;" xml:space="preserve">
<style type="text/css">
	.st0{fill:#FCB91D;}
</style>
<path class="st0" d="M448.8,225.7c4.2,0,7.6-3.4,7.6-7.6V99.2c0-9.6-7.8-17.4-17.4-17.4h-29.7V58.3c0-9.6-7.8-17.4-17.4-17.4h-30.7
	V17.4c0-9.6-7.8-17.4-17.4-17.4H134.5c-4.2,0-7.6,3.4-7.6,7.6c0,4.2,3.4,7.6,7.6,7.6h209.1c1.2,0,2.3,1,2.3,2.3v395.3
	c0,1.2-1,2.3-2.3,2.3c-18.8,0-260.6,0-270.2,0c-1.3,0-2.3-1-2.3-2.3V17.4c0-1.3,1-2.3,2.3-2.3h30.8c4.2,0,7.6-3.4,7.6-7.6
	c0-4.2-3.4-7.6-7.6-7.6H73.4C63.8,0,56,7.8,56,17.4v395.3c0,9.6,7.8,17.4,17.4,17.4h30.7v23.5c0,9.6,7.8,17.4,17.4,17.4h29.7v23.5
	c0,9.6,7.8,17.4,17.4,17.4h270.2c9.6,0,17.4-7.8,17.4-17.4V248.4c0-4.2-3.4-7.6-7.6-7.6c-4.2,0-7.6,3.4-7.6,7.6v246.2
	c0,1.3-1,2.3-2.3,2.3H168.7c-1.2,0-2.3-1-2.3-2.3v-23.5h225.4c9.6,0,17.4-7.8,17.4-17.4V348.9c0-4.2-3.4-7.6-7.6-7.6
	c-4.2,0-7.6,3.4-7.6,7.6v104.8c0,1.3-1,2.3-2.3,2.3c-7.2,0-262.9,0-270.2,0c-1.3,0-2.3-1-2.3-2.3v-23.5h224.4
	c9.6,0,17.4-7.8,17.4-17.4c0-11.1,0-339.2,0-356.7h30.7c1.3,0,2.3,1,2.3,2.3V97v221.6c0,4.2,3.4,7.6,7.6,7.6c4.2,0,7.6-3.4,7.6-7.6
	V97h29.7c1.3,0,2.3,1,2.3,2.3v118.8C441.2,222.3,444.6,225.7,448.8,225.7z"/>
<path class="st0" d="M251.3,75c0-23.6-19.2-42.7-42.7-42.7S165.8,51.4,165.8,75s19.2,42.7,42.7,42.7S251.3,98.6,251.3,75z M180.9,75
	c0-15.2,12.4-27.6,27.6-27.6s27.6,12.4,27.6,27.6s-12.4,27.6-27.6,27.6S180.9,90.2,180.9,75z"/>
<path class="st0" d="M311.9,82.6c4.2,0,7.6-3.4,7.6-7.6c0-4.2-3.4-7.6-7.6-7.6h-35.5c-4.2,0-7.6,3.4-7.6,7.6c0,4.2,3.4,7.6,7.6,7.6
	H311.9z"/>
<path class="st0" d="M140.7,67.4h-35.5c-4.2,0-7.6,3.4-7.6,7.6c0,4.2,3.4,7.6,7.6,7.6h35.5c4.2,0,7.6-3.4,7.6-7.6
	C148.3,70.8,144.9,67.4,140.7,67.4z"/>
<path class="st0" d="M115.1,146.9c0,4.2,3.4,7.6,7.6,7.6h171.7c4.2,0,7.6-3.4,7.6-7.6c0-4.2-3.4-7.6-7.6-7.6H122.7
	C118.5,139.3,115.1,142.7,115.1,146.9z"/>
<path class="st0" d="M294.4,176.1H122.7c-4.2,0-7.6,3.4-7.6,7.6s3.4,7.6,7.6,7.6h171.7c4.2,0,7.6-3.4,7.6-7.6
	S298.6,176.1,294.4,176.1z"/>
<path class="st0" d="M294.4,212.8H122.7c-4.2,0-7.6,3.4-7.6,7.6c0,4.2,3.4,7.6,7.6,7.6h171.7c4.2,0,7.6-3.4,7.6-7.6
	C302,216.2,298.6,212.8,294.4,212.8z"/>
<path class="st0" d="M294.4,249.5H122.7c-4.2,0-7.6,3.4-7.6,7.6c0,4.2,3.4,7.6,7.6,7.6h171.7c4.2,0,7.6-3.4,7.6-7.6
	C302,252.9,298.6,249.5,294.4,249.5z"/>
<path class="st0" d="M294.4,286.3H122.7c-4.2,0-7.6,3.4-7.6,7.6c0,4.2,3.4,7.6,7.6,7.6h171.7c4.2,0,7.6-3.4,7.6-7.6
	C302,289.7,298.6,286.3,294.4,286.3z"/>
<path class="st0" d="M297.7,324.7c-3.2-2.7-8-2.2-10.7,1.1l-36.2,44.1l-16.8-16.4c-3-2.9-7.8-2.9-10.7,0.1c-2.9,3-2.9,7.8,0.1,10.7
	l18.8,18.4c5.3,5.2,13.8,4.7,18.5-1l38-46.3C301.4,332.2,300.9,327.4,297.7,324.7z"/>
</svg>
