<svg width="176" height="32" viewBox="0 0 176 32" fill="none" xmlns="http://www.w3.org/2000/svg">
<g clip-path="url(#clip0_2326_6129)">
<path d="M92.6455 30.138C92.0628 30.138 91.5377 29.9962 91.07 29.7125C90.61 29.4288 90.2458 29.0417 89.9775 28.551C89.7092 28.0603 89.575 27.5122 89.575 26.9065C89.575 26.2855 89.7092 25.7335 89.9775 25.2505C90.2458 24.7598 90.61 24.3727 91.07 24.089C91.5377 23.8053 92.0628 23.6635 92.6455 23.6635C93.1592 23.6635 93.6153 23.7747 94.014 23.997C94.4127 24.2117 94.727 24.503 94.957 24.871L94.7845 25.1355V21.2945H95.8655V30H94.819V28.6775L94.957 28.8615C94.7423 29.2678 94.428 29.5822 94.014 29.8045C93.6077 30.0268 93.1515 30.138 92.6455 30.138ZM92.7375 29.103C93.1285 29.103 93.4773 29.0072 93.784 28.8155C94.0907 28.6238 94.3322 28.3632 94.5085 28.0335C94.6925 27.6962 94.7845 27.3205 94.7845 26.9065C94.7845 26.4848 94.6925 26.1092 94.5085 25.7795C94.3322 25.4422 94.0907 25.1777 93.784 24.986C93.4773 24.7943 93.1285 24.6985 92.7375 24.6985C92.3542 24.6985 92.0053 24.7982 91.691 24.9975C91.3843 25.1892 91.1428 25.4498 90.9665 25.7795C90.7902 26.1015 90.702 26.4772 90.702 26.9065C90.702 27.3205 90.7902 27.6962 90.9665 28.0335C91.1428 28.3632 91.3843 28.6238 91.691 28.8155C91.9977 29.0072 92.3465 29.103 92.7375 29.103ZM100.465 30.138C99.8669 30.138 99.3264 30 98.8434 29.724C98.3604 29.4403 97.977 29.0532 97.6934 28.5625C97.4097 28.0718 97.2679 27.516 97.2679 26.895C97.2679 26.274 97.4059 25.722 97.6819 25.239C97.9655 24.756 98.3489 24.3727 98.8319 24.089C99.3149 23.8053 99.8592 23.6635 100.465 23.6635C101.063 23.6635 101.603 23.8053 102.086 24.089C102.569 24.365 102.949 24.7445 103.225 25.2275C103.509 25.7105 103.65 26.2663 103.65 26.895C103.65 27.5237 103.505 28.0833 103.213 28.574C102.922 29.057 102.535 29.4403 102.052 29.724C101.577 30 101.048 30.138 100.465 30.138ZM100.465 29.103C100.848 29.103 101.193 29.0072 101.5 28.8155C101.814 28.6238 102.06 28.3593 102.236 28.022C102.42 27.6847 102.512 27.309 102.512 26.895C102.512 26.4733 102.42 26.1015 102.236 25.7795C102.06 25.4498 101.814 25.1892 101.5 24.9975C101.193 24.7982 100.848 24.6985 100.465 24.6985C100.074 24.6985 99.7212 24.7982 99.4069 24.9975C99.1002 25.1892 98.8549 25.4498 98.6709 25.7795C98.4869 26.1015 98.3949 26.4733 98.3949 26.895C98.3949 27.309 98.4869 27.6847 98.6709 28.022C98.8549 28.3593 99.1002 28.6238 99.4069 28.8155C99.7212 29.0072 100.074 29.103 100.465 29.103ZM107.92 30.138C107.315 30.138 106.774 29.9962 106.299 29.7125C105.831 29.4288 105.463 29.0417 105.195 28.551C104.926 28.0603 104.792 27.5083 104.792 26.895C104.792 26.274 104.926 25.722 105.195 25.239C105.463 24.756 105.831 24.3727 106.299 24.089C106.774 23.8053 107.315 23.6635 107.92 23.6635C108.327 23.6635 108.706 23.7363 109.059 23.882C109.411 24.0277 109.722 24.2232 109.99 24.4685C110.259 24.7138 110.454 25.0013 110.577 25.331L109.622 25.791C109.477 25.469 109.254 25.2083 108.955 25.009C108.656 24.802 108.311 24.6985 107.92 24.6985C107.545 24.6985 107.203 24.7943 106.897 24.986C106.598 25.1777 106.36 25.4383 106.184 25.768C106.007 26.0977 105.919 26.4772 105.919 26.9065C105.919 27.3205 106.007 27.6962 106.184 28.0335C106.36 28.3632 106.598 28.6238 106.897 28.8155C107.203 29.0072 107.545 29.103 107.92 29.103C108.311 29.103 108.656 29.0033 108.955 28.804C109.254 28.597 109.477 28.3248 109.622 27.9875L110.577 28.4705C110.454 28.7925 110.259 29.08 109.99 29.333C109.722 29.5783 109.411 29.7738 109.059 29.9195C108.706 30.0652 108.327 30.138 107.92 30.138ZM114.171 30.138C113.726 30.138 113.324 30.0345 112.963 29.8275C112.611 29.6205 112.335 29.333 112.135 28.965C111.944 28.5893 111.848 28.16 111.848 27.677V23.8015H112.917V27.562C112.917 27.8687 112.979 28.137 113.101 28.367C113.232 28.597 113.408 28.7772 113.63 28.9075C113.86 29.0378 114.121 29.103 114.412 29.103C114.704 29.103 114.961 29.0378 115.183 28.9075C115.413 28.7772 115.589 28.5893 115.712 28.344C115.842 28.0987 115.907 27.8073 115.907 27.47V23.8015H116.988V30H115.942V28.7925L116.114 28.896C115.969 29.287 115.72 29.5937 115.367 29.816C115.022 30.0307 114.623 30.138 114.171 30.138ZM118.645 30V23.8015H119.692V25.0665L119.542 24.871C119.696 24.48 119.941 24.181 120.278 23.974C120.616 23.767 120.995 23.6635 121.417 23.6635C121.9 23.6635 122.333 23.7977 122.716 24.066C123.107 24.3343 123.376 24.687 123.521 25.124L123.222 25.1355C123.383 24.6525 123.656 24.2883 124.039 24.043C124.422 23.79 124.848 23.6635 125.315 23.6635C125.745 23.6635 126.132 23.7632 126.477 23.9625C126.83 24.1618 127.109 24.4378 127.316 24.7905C127.523 25.1432 127.627 25.5418 127.627 25.9865V30H126.546V26.3315C126.546 25.9865 126.485 25.6952 126.362 25.4575C126.239 25.2198 126.071 25.0358 125.856 24.9055C125.649 24.7675 125.404 24.6985 125.12 24.6985C124.844 24.6985 124.595 24.7675 124.372 24.9055C124.158 25.0358 123.985 25.2237 123.855 25.469C123.732 25.7067 123.671 25.9942 123.671 26.3315V30H122.59V26.3315C122.59 25.9865 122.529 25.6952 122.406 25.4575C122.283 25.2198 122.115 25.0358 121.9 24.9055C121.693 24.7675 121.448 24.6985 121.164 24.6985C120.888 24.6985 120.639 24.7675 120.416 24.9055C120.202 25.0358 120.029 25.2237 119.899 25.469C119.776 25.7067 119.715 25.9942 119.715 26.3315V30H118.645ZM131.998 30.138C131.4 30.138 130.867 29.9962 130.399 29.7125C129.932 29.4288 129.564 29.0417 129.295 28.551C129.027 28.0527 128.893 27.4968 128.893 26.8835C128.893 26.2625 129.023 25.7105 129.284 25.2275C129.552 24.7445 129.913 24.365 130.365 24.089C130.825 23.8053 131.339 23.6635 131.906 23.6635C132.366 23.6635 132.772 23.7478 133.125 23.9165C133.485 24.0775 133.788 24.2998 134.033 24.5835C134.286 24.8595 134.478 25.1777 134.608 25.538C134.746 25.8907 134.815 26.2587 134.815 26.642C134.815 26.7263 134.808 26.8222 134.792 26.9295C134.785 27.0292 134.773 27.125 134.758 27.217H129.675V26.297H134.137L133.631 26.711C133.7 26.3123 133.662 25.9558 133.516 25.6415C133.37 25.3272 133.156 25.078 132.872 24.894C132.588 24.71 132.266 24.618 131.906 24.618C131.546 24.618 131.216 24.71 130.917 24.894C130.618 25.078 130.384 25.3425 130.215 25.6875C130.054 26.0248 129.989 26.4273 130.02 26.895C129.989 27.3473 130.058 27.746 130.227 28.091C130.403 28.4283 130.649 28.6928 130.963 28.8845C131.285 29.0685 131.634 29.1605 132.009 29.1605C132.423 29.1605 132.772 29.0647 133.056 28.873C133.34 28.6813 133.57 28.436 133.746 28.137L134.643 28.597C134.52 28.8807 134.329 29.1413 134.068 29.379C133.815 29.609 133.512 29.793 133.159 29.931C132.814 30.069 132.427 30.138 131.998 30.138ZM136.21 30V23.8015H137.256V25.009L137.084 24.9055C137.237 24.5145 137.483 24.2117 137.82 23.997C138.165 23.7747 138.567 23.6635 139.027 23.6635C139.472 23.6635 139.867 23.7632 140.212 23.9625C140.565 24.1618 140.841 24.4378 141.04 24.7905C141.247 25.1432 141.35 25.5418 141.35 25.9865V30H140.269V26.3315C140.269 25.9865 140.208 25.6952 140.085 25.4575C139.963 25.2198 139.786 25.0358 139.556 24.9055C139.334 24.7675 139.077 24.6985 138.786 24.6985C138.495 24.6985 138.234 24.7675 138.004 24.9055C137.782 25.0358 137.605 25.2237 137.475 25.469C137.345 25.7067 137.279 25.9942 137.279 26.3315V30H136.21ZM145.399 30.069C144.794 30.069 144.326 29.8965 143.996 29.5515C143.674 29.2065 143.513 28.7197 143.513 28.091V24.825H142.386V23.8015H142.616C142.892 23.8015 143.111 23.7172 143.272 23.5485C143.433 23.3798 143.513 23.1575 143.513 22.8815V22.3755H144.583V23.8015H145.974V24.825H144.583V28.0565C144.583 28.2635 144.613 28.4437 144.675 28.597C144.744 28.7503 144.855 28.873 145.008 28.965C145.162 29.0493 145.365 29.0915 145.618 29.0915C145.671 29.0915 145.737 29.0877 145.813 29.08C145.898 29.0723 145.974 29.0647 146.043 29.057V30C145.944 30.023 145.832 30.0383 145.71 30.046C145.587 30.0613 145.484 30.069 145.399 30.069ZM149.179 30.138C148.772 30.138 148.412 30.0652 148.098 29.9195C147.791 29.7662 147.55 29.5592 147.373 29.2985C147.197 29.0302 147.109 28.7235 147.109 28.3785C147.109 28.0488 147.178 27.7537 147.316 27.493C147.461 27.2247 147.684 26.9985 147.983 26.8145C148.289 26.6305 148.673 26.5002 149.133 26.4235L151.433 26.044V26.941L149.374 27.286C148.976 27.355 148.684 27.4815 148.5 27.6655C148.324 27.8495 148.236 28.0757 148.236 28.344C148.236 28.597 148.335 28.8078 148.535 28.9765C148.742 29.1452 148.999 29.2295 149.305 29.2295C149.696 29.2295 150.034 29.149 150.317 28.988C150.609 28.8193 150.835 28.5932 150.996 28.3095C151.164 28.0258 151.249 27.7115 151.249 27.3665V25.791C151.249 25.4537 151.122 25.1815 150.869 24.9745C150.624 24.7598 150.298 24.6525 149.892 24.6525C149.539 24.6525 149.225 24.7445 148.949 24.9285C148.68 25.1048 148.481 25.3425 148.351 25.6415L147.419 25.1585C147.534 24.8748 147.718 24.6218 147.971 24.3995C148.224 24.1695 148.519 23.9893 148.857 23.859C149.194 23.7287 149.547 23.6635 149.915 23.6635C150.39 23.6635 150.808 23.7555 151.168 23.9395C151.529 24.1158 151.808 24.365 152.008 24.687C152.215 25.0013 152.318 25.3693 152.318 25.791V30H151.272V28.827L151.467 28.896C151.337 29.1413 151.161 29.356 150.938 29.54C150.716 29.724 150.455 29.8697 150.156 29.977C149.857 30.0843 149.531 30.138 149.179 30.138ZM156.383 30.069C155.777 30.069 155.309 29.8965 154.98 29.5515C154.658 29.2065 154.497 28.7197 154.497 28.091V24.825H153.37V23.8015H153.6C153.876 23.8015 154.094 23.7172 154.255 23.5485C154.416 23.3798 154.497 23.1575 154.497 22.8815V22.3755H155.566V23.8015H156.958V24.825H155.566V28.0565C155.566 28.2635 155.597 28.4437 155.658 28.597C155.727 28.7503 155.838 28.873 155.992 28.965C156.145 29.0493 156.348 29.0915 156.601 29.0915C156.655 29.0915 156.72 29.0877 156.797 29.08C156.881 29.0723 156.958 29.0647 157.027 29.057V30C156.927 30.023 156.816 30.0383 156.693 30.046C156.57 30.0613 156.467 30.069 156.383 30.069ZM158.424 30V23.8015H159.493V30H158.424ZM158.424 22.8125V21.4325H159.493V22.8125H158.424ZM164.097 30.138C163.499 30.138 162.958 30 162.475 29.724C161.992 29.4403 161.609 29.0532 161.325 28.5625C161.042 28.0718 160.9 27.516 160.9 26.895C160.9 26.274 161.038 25.722 161.314 25.239C161.597 24.756 161.981 24.3727 162.464 24.089C162.947 23.8053 163.491 23.6635 164.097 23.6635C164.695 23.6635 165.235 23.8053 165.718 24.089C166.201 24.365 166.581 24.7445 166.857 25.2275C167.14 25.7105 167.282 26.2663 167.282 26.895C167.282 27.5237 167.137 28.0833 166.845 28.574C166.554 29.057 166.167 29.4403 165.684 29.724C165.208 30 164.679 30.138 164.097 30.138ZM164.097 29.103C164.48 29.103 164.825 29.0072 165.132 28.8155C165.446 28.6238 165.691 28.3593 165.868 28.022C166.052 27.6847 166.144 27.309 166.144 26.895C166.144 26.4733 166.052 26.1015 165.868 25.7795C165.691 25.4498 165.446 25.1892 165.132 24.9975C164.825 24.7982 164.48 24.6985 164.097 24.6985C163.706 24.6985 163.353 24.7982 163.039 24.9975C162.732 25.1892 162.487 25.4498 162.303 25.7795C162.119 26.1015 162.027 26.4733 162.027 26.895C162.027 27.309 162.119 27.6847 162.303 28.022C162.487 28.3593 162.732 28.6238 163.039 28.8155C163.353 29.0072 163.706 29.103 164.097 29.103ZM168.677 30V23.8015H169.724V25.009L169.551 24.9055C169.704 24.5145 169.95 24.2117 170.287 23.997C170.632 23.7747 171.035 23.6635 171.495 23.6635C171.939 23.6635 172.334 23.7632 172.679 23.9625C173.032 24.1618 173.308 24.4378 173.507 24.7905C173.714 25.1432 173.818 25.5418 173.818 25.9865V30H172.737V26.3315C172.737 25.9865 172.675 25.6952 172.553 25.4575C172.43 25.2198 172.254 25.0358 172.024 24.9055C171.801 24.7675 171.544 24.6985 171.253 24.6985C170.962 24.6985 170.701 24.7675 170.471 24.9055C170.249 25.0358 170.072 25.2237 169.942 25.469C169.812 25.7067 169.747 25.9942 169.747 26.3315V30H168.677Z" fill="#3C3C3C"/>
<path d="M27.7104 10.9998C27.7104 6.26065 31.2213 2.79565 36.0246 2.79565C40.828 2.79565 44.3479 6.26065 44.3479 10.9998C44.3479 15.739 40.8371 19.204 36.0246 19.204C31.2213 19.204 27.7104 15.739 27.7104 10.9998ZM36.0246 17.2148C39.6271 17.2148 42.258 14.584 42.258 10.9998C42.258 7.41565 39.6271 4.78482 36.0246 4.78482C32.4221 4.78482 29.7913 7.41565 29.7913 10.9998C29.7913 14.584 32.4221 17.2148 36.0246 17.2148Z" fill="#B48C50"/>
<path d="M50.5812 7.55322C51.3054 7.55322 51.9195 7.70906 52.5795 8.04822V10.0466C51.9929 9.66156 51.3512 9.45989 50.7187 9.45989C49.3162 9.45989 48.427 10.5049 48.427 12.1824V18.9382H46.4287V11.9807C46.4287 9.32239 48.0879 7.55322 50.5812 7.55322Z" fill="#B48C50"/>
<path d="M53.6157 13.3557C53.6157 10.0007 56.1549 7.55322 59.6199 7.55322C63.0849 7.55322 65.6241 10.0007 65.6241 13.3557C65.6241 16.7291 63.0849 19.2041 59.6199 19.2041C56.1549 19.2041 53.6157 16.7382 53.6157 13.3557ZM59.6199 17.2974C61.9116 17.2974 63.5891 15.6382 63.5891 13.3741C63.5891 11.1099 61.9116 9.45072 59.6199 9.45072C57.3282 9.45072 55.6507 11.1007 55.6507 13.3741C55.6507 15.6474 57.3282 17.2974 59.6199 17.2974Z" fill="#B48C50"/>
<path d="M67.0356 10.9998C67.0356 6.21482 70.4548 2.79565 75.2398 2.79565C76.9173 2.79565 78.3015 3.24482 79.704 4.22565V6.62732C78.3656 5.38065 76.9631 4.79399 75.2856 4.79399C71.7473 4.79399 69.1165 7.44315 69.1165 11.009C69.1165 14.5657 71.7473 17.224 75.304 17.224C76.9173 17.224 78.2923 16.6373 79.704 15.3907V17.7923C78.3015 18.7915 76.9356 19.2223 75.2398 19.2223C70.4548 19.204 67.0356 15.7848 67.0356 10.9998Z" fill="#B48C50"/>
<path d="M81.2256 13.3557C81.2256 10.0007 83.7648 7.55322 87.2298 7.55322C90.6948 7.55322 93.2339 10.0007 93.2339 13.3557C93.2339 16.7291 90.6948 19.2041 87.2298 19.2041C83.7648 19.2041 81.2256 16.7382 81.2256 13.3557ZM87.2298 17.2974C89.5214 17.2974 91.1989 15.6382 91.1989 13.3741C91.1989 11.1099 89.5214 9.45072 87.2298 9.45072C84.9381 9.45072 83.2606 11.1007 83.2606 13.3741C83.2606 15.6474 84.9381 17.2974 87.2298 17.2974Z" fill="#B48C50"/>
<path d="M99.8978 7.55322C101.667 7.55322 103.069 8.46072 103.794 10.0007C104.426 8.46072 105.838 7.55322 107.644 7.55322C110.274 7.55322 112.181 9.47822 112.181 12.2466V18.9291H110.183V12.2466C110.183 10.5874 109.119 9.45989 107.579 9.45989C105.948 9.45989 104.793 10.5966 104.793 12.2466V18.9291H102.794V12.2466C102.794 10.5874 101.612 9.45989 100.026 9.45989C98.4403 9.45989 97.3953 10.5966 97.3953 12.2466V18.9291H95.397V12.2466C95.4153 9.47822 97.322 7.55322 99.8978 7.55322Z" fill="#B48C50"/>
<path d="M119.35 7.55322C121.119 7.55322 122.522 8.46072 123.246 10.0007C123.878 8.46072 125.29 7.55322 127.096 7.55322C129.727 7.55322 131.633 9.47822 131.633 12.2466V18.9291H129.635V12.2466C129.635 10.5874 128.572 9.45989 127.032 9.45989C125.4 9.45989 124.245 10.5966 124.245 12.2466V18.9291H122.247V12.2466C122.247 10.5874 121.064 9.45989 119.478 9.45989C117.893 9.45989 116.848 10.5966 116.848 12.2466V18.9291H114.858V12.2466C114.858 9.47822 116.765 7.55322 119.35 7.55322Z" fill="#B48C50"/>
<path d="M133.815 13.2182C133.815 9.95489 136.29 7.55322 139.599 7.55322C142.074 7.55322 143.953 8.90989 144.787 11.1099L137.262 16.3257C137.986 16.9399 138.939 17.2974 140.048 17.2974C141.249 17.2974 142.248 16.8849 143.632 15.8491V17.9757C142.358 18.8374 141.249 19.2041 139.892 19.2041C136.4 19.2041 133.815 16.6466 133.815 13.2182ZM136.189 14.8499L142.312 10.6149C141.652 9.86322 140.727 9.45989 139.572 9.45989C137.372 9.45989 135.85 10.9541 135.85 13.1816C135.85 13.7866 135.969 14.3549 136.189 14.8499Z" fill="#B48C50"/>
<path d="M150.746 7.55322C151.47 7.55322 152.084 7.70906 152.744 8.04822V10.0466C152.157 9.66156 151.516 9.45989 150.883 9.45989C149.481 9.45989 148.592 10.5049 148.592 12.1824V18.9382H146.593V11.9807C146.593 9.32239 148.252 7.55322 150.746 7.55322Z" fill="#B48C50"/>
<path d="M153.78 13.3557C153.78 9.95489 156.319 7.55322 159.876 7.55322C160.939 7.55322 161.736 7.80072 162.846 8.46072V10.6149C161.938 9.81739 161.012 9.45989 159.894 9.45989C157.492 9.45989 155.815 11.0457 155.815 13.3557C155.815 15.6932 157.492 17.2974 159.894 17.2974C161.049 17.2974 162.021 16.8849 162.882 16.0507V18.2049C161.865 18.9291 161.003 19.2041 159.821 19.2041C156.301 19.2041 153.78 16.7841 153.78 13.3557Z" fill="#B48C50"/>
<path d="M164.569 13.2182C164.569 9.95489 167.044 7.55322 170.354 7.55322C172.828 7.55322 174.708 8.90989 175.542 11.1099L168.016 16.3257C168.74 16.9399 169.694 17.2974 170.803 17.2974C172.004 17.2974 173.003 16.8849 174.387 15.8491V17.9757C173.113 18.8374 172.003 19.2041 170.647 19.2041C167.154 19.2041 164.569 16.6466 164.569 13.2182ZM166.953 14.8499L173.076 10.6149C172.416 9.86322 171.49 9.45989 170.335 9.45989C168.135 9.45989 166.613 10.9541 166.613 13.1816C166.613 13.7866 166.724 14.3549 166.953 14.8499Z" fill="#B48C50"/>
<path d="M21.3952 9.06578L13.2643 0.934951C12.201 -0.128382 10.4593 -0.128382 9.396 0.934951L1.256 9.06578C0.192663 10.1291 0.192663 11.8708 1.256 12.9341L5.326 17.0041L9.396 21.0741C10.4593 22.1374 12.201 22.1374 13.2643 21.0741L21.3952 12.9433C22.4585 11.8708 22.4585 10.1291 21.3952 9.06578ZM16.7477 9.45078L9.79016 16.4083C8.72683 17.4716 6.98516 17.4716 5.92183 16.4083C4.8585 15.345 4.8585 13.6033 5.92183 12.54L12.8793 5.58245C13.9427 4.51912 15.6843 4.51912 16.7477 5.58245C17.811 6.64578 17.811 8.38745 16.7477 9.45078Z" fill="#B48C50"/>
</g>
<defs>
<clipPath id="clip0_2326_6129">
<rect width="176" height="32" fill="white"/>
</clipPath>
</defs>
</svg>
