<svg width="44" height="13" viewBox="0 0 44 13" fill="none" xmlns="http://www.w3.org/2000/svg">
<path d="M0 11.5506L1.10896 11.5318V1.20979L0 1.17456V0H5.82504C10.419 0 11.7746 1.17456 11.7746 4.07336V8.6142C11.7746 11.513 10.419 12.7205 5.80828 12.7205H0V11.5506ZM5.80828 11.5318C9.24055 11.5318 10.1914 10.6861 10.1914 8.42627V4.2472C10.1914 1.98735 9.23336 1.20979 5.82504 1.20979H2.6754V11.5318H5.80828ZM13.4656 9.35652V5.66372C13.4656 3.48844 14.5913 2.03903 18.2344 2.03903C21.8774 2.03903 22.9888 3.21359 22.9888 5.66372V9.35652C22.9888 11.5318 21.8607 13 18.2344 13C14.6081 13 13.4656 11.809 13.4656 9.35652ZM21.4559 9.23672V5.80231C21.4559 4.05692 20.7517 3.24647 18.2344 3.24647C15.7171 3.24647 14.9794 4.28244 14.9794 5.80231V9.23672C14.9794 10.9633 15.7171 11.7926 18.2344 11.7926C20.7517 11.7926 21.4559 10.7378 21.4559 9.23672ZM24.5912 9.35652V5.66372C24.5912 3.48844 25.8223 2.03903 28.9384 2.03903C30.8042 2.03903 32.1072 2.57228 32.3515 4.00524L32.4042 2.34911H33.5323V6.04427H32.124V5.64727C32.124 3.65992 30.6869 3.24647 29.2905 3.24647C26.8785 3.24647 26.1217 4.28244 26.1217 5.80231V9.23672C26.1217 10.9633 26.8785 11.7926 29.2905 11.7926C31.4461 11.7926 32.124 10.9633 32.124 9.9438V9.08168H33.5323V10.1693C33.5323 11.6892 32.2461 13 29.221 13C25.7863 13 24.5912 11.809 24.5912 9.35652ZM36.2245 11.7573L36.1718 12.697H35.1347V9.9626H36.4712V10.3079C36.4712 11.809 37.846 11.9288 39.4124 11.9288C41.1178 11.9288 41.9274 11.412 41.9274 10.3408V9.58204C41.9274 8.7528 41.5585 8.42628 39.4987 8.14908L38.3011 7.97759C35.8892 7.63227 35.1155 6.7678 35.1155 5.42176V4.45392C35.1155 2.93639 36.2748 2.03903 38.9861 2.03903C40.7633 2.03903 41.8914 2.40079 42.2076 3.17835L42.2435 2.33267H43.2998V4.83448H41.9609V4.43748C41.9609 3.28171 40.6244 3.10788 39.1274 3.10788C37.2616 3.10788 36.5215 3.55656 36.5215 4.43748V5.14221C36.5215 5.84695 36.8568 6.36845 38.9502 6.66209L40.131 6.81713C42.5597 7.14601 43.3333 7.75678 43.3333 9.19913V10.2022C43.3333 11.8748 42.1549 12.9977 39.4795 12.9977C37.7574 13 36.5766 12.7064 36.2245 11.7573Z" fill="#7591C5"/>
</svg>
