<?xml version="1.0" encoding="utf-8"?>
<!-- Generator: Adobe Illustrator 21.0.0, SVG Export Plug-In . SVG Version: 6.00 Build 0)  -->
<svg version="1.1" id="Слой_1" xmlns="http://www.w3.org/2000/svg" xmlns:xlink="http://www.w3.org/1999/xlink" x="0px" y="0px"
	 viewBox="0 0 4085.1 643" style="enable-background:new 0 0 4085.1 643;" xml:space="preserve">
<style type="text/css">
	.st0{fill:#3A3A3A;}
</style>
<g>
	<path class="st0" d="M797.6,74.6h349.5v89.1H899.2v138.6h201.7v88.2H899.2v209.2H797.6L797.6,74.6L797.6,74.6z M1389.4,555.2
		c-27.7,33.6-61.3,57.1-109.2,57.1c-69.7,0-120.1-47.9-120.1-109.2c0-71.4,52.1-131.9,229.4-137.8v-9.2c0-52.1-21.9-73.9-77.3-73.9
		c-39.5,0-87.4,17.6-128.6,41.2l-20.2-78.1c37.8-23.5,98.3-45.4,162.2-45.4c119.3,0,165.5,52.9,163,159.6v138.6
		c0,29.4,5,33.6,34.5,35.3l-7.6,74.8c-73.9,8.4-108.4-14.3-122.7-52.9L1389.4,555.2L1389.4,555.2z M1389.4,417.4
		c-96.6,11.8-131.9,31.1-131.9,72.3c0,29.4,22.7,50.4,58,50.4c31.1,0,56.3-14.3,73.9-33.6L1389.4,417.4L1389.4,417.4z M1753.8,612.3
		c-126,0-200.8-78.1-200.8-205c0-126,82.3-207.5,204.2-207.5c52.9,0,98.3,11.8,133.6,32.8l-21,79.8c-31.9-20.2-68.9-31.1-105-31.1
		c-71.4,0-110.1,48.7-110.1,123.5c0,79,44.5,125.2,110.1,125.2c40.3,0,77.3-10.9,107.5-30.2l16,80.7
		C1854.6,600.6,1805.9,612.3,1753.8,612.3z M2021.5,427.5c4.2,63,47.1,105.9,115.9,105.9c41.2,0,85.7-13.4,121-35.3l12.6,82.3
		c-37,20.2-88.2,31.9-140.3,31.9c-124.3,0-206.7-79-206.7-202.5c0-126,84-210,200-210c102.5,0,159.7,62.2,159.7,157.1
		c0,21-3.4,47.9-8.4,64.7l-253.8,3.4V427.5z M2190.4,366.2v-6.7c0-52.1-22.7-84.9-73.9-84.9c-54.6,0-87.4,44.5-92.4,92.4
		L2190.4,366.2z M2535.6,611.5c-25.2,0-61.3-5-86.5-13.4l-95,14.3V38.5l99.1-13.4v224.3c26-25.2,61.3-49.6,108.4-49.6
		c102.5,0,169.7,83.2,169.7,202.5C2731.4,525.8,2645.7,611.5,2535.6,611.5L2535.6,611.5z M2533.1,283c-32.8,0-58,12.6-79.8,31.9
		v195.8c18.5,14.3,43.7,21.8,73.1,21.8c66.4,0,104.2-53.8,104.2-126C2630.6,330.9,2594.5,283,2533.1,283z M2974.2,612.3
		c-113.4,0-195.8-77.3-195.8-205.8c0-127.7,86.5-207.5,200.8-207.5c114.3,0,195.8,79,195.8,206.7
		C3175,532.5,3087.6,612.3,2974.2,612.3L2974.2,612.3z M2975.9,278.8c-64.7,0-100,52.1-100,126.9c0,73.9,36.9,126,101.7,126
		c63.9,0,99.1-50.4,99.1-125.2C3076.7,331.7,3039.7,278.8,2975.9,278.8z M3418.9,612.3c-113.4,0-195.8-77.3-195.8-205.8
		c0-127.7,86.5-207.5,200.8-207.5c114.3,0,195.8,79,195.8,206.7C3619.7,532.5,3532.3,612.3,3418.9,612.3z M3420.6,278.8
		c-64.7,0-100,52.1-100,126.9c0,73.9,37,126,101.7,126c63.8,0,99.1-50.4,99.1-125.2C3521.4,331.7,3484.4,278.8,3420.6,278.8z
		 M3787.2,413.2v186.5H3688V38.5l99.1-13.4v359.6h1.7l138.6-172.2H4046l-160.5,184l161.3,203.3h-118.5l-139.5-186.5L3787.2,413.2
		L3787.2,413.2z"/>
</g>
<path class="st0" d="M608.5,0C608.5,0,608.5,0,608.5,0h-572C16.9,0,1,15.9,1,35.5c0,0,0,0,0,0v572C1,627.1,16.9,643,36.5,643h308
	V394h-83.8v-97h83.8v-71.6c0-83.1,50.7-128.3,124.8-128.3c35.5,0,66,2.6,74.9,3.8v86.8l-51.4,0c-40.3,0-48.1,19.1-48.1,47.2v62h96.1
	l-12.5,97h-83.6v249h163.9c19.6,0,35.5-15.9,35.5-35.5v-572C644,15.9,628.1,0,608.5,0z"/>
</svg>
