<?xml version="1.0" encoding="utf-8"?>
<!-- Generator: Adobe Illustrator 24.1.3, SVG Export Plug-In . SVG Version: 6.00 Build 0)  -->
<svg version="1.1" id="Слой_1" xmlns="http://www.w3.org/2000/svg" xmlns:xlink="http://www.w3.org/1999/xlink" x="0px" y="0px"
	 viewBox="0 0 1876.8 535.9" style="enable-background:new 0 0 1876.8 535.9;" xml:space="preserve">
<style type="text/css">
	.st0{fill:#3A3A3A;}
</style>
<g>
	<path class="st0" d="M319,387.3c2.9-1.9,5.7-1.8,8.5-2.2c23-2.8,44.6-9.6,64.1-22.2c16.7-10.7,28.8-25.3,36-43.8
		c12-30.9,15.2-62.6,7.6-95.1c-3.2-13.8-9.9-26-19.2-36.7c-3.2-3.7-3.6-6.9-2.1-11.3c6.7-20.9,3.7-41.2-3.5-61.4
		c-1.4-3.8-3.7-4.4-6.9-4.6c-8.9-0.5-17,2.3-25.1,5.4c-13.3,5.1-26,11.4-37.8,19.4c-3.7,2.5-7.1,3.2-11.6,2.1
		c-40.5-10.2-81-10.2-121.5,0c-4.5,1.1-7.9,0.4-11.6-2.1c-15.4-10.2-32.1-17.7-49.8-23c-4.1-1.2-8.2-1.6-12.4-1.8
		c-4.3-0.2-6.9,1.2-8.5,5.9c-6.8,20-9.3,40.2-2.6,60.7c1.4,4.3,0.7,7-2.1,10.4c-15,17.9-22.6,38.8-23.3,62.2
		c-0.6,20.8,1.8,41.1,8.2,61c9.2,28.5,27.3,48.7,54.3,61.3c15.8,7.4,32.4,11.7,49.7,13.7c2.5,0.3,5,0.5,7.8,2
		c-4.5,6.5-9.6,12.6-11.7,20.4c-0.7,2.7-2.2,5.3-2.3,8c-0.2,5.5-3.4,7.6-8.1,9c-13,3.7-26.2,6.3-39.5,2.1
		c-13.4-4.2-22.8-13.7-29.7-25.6c-6.4-11-15.2-19.1-26.5-24.7c-7.1-3.5-14.5-5.8-22.6-3.9c-5.8,1.3-6.6,3.9-3.3,8.9
		c1.7,2.6,3.9,4.9,6.5,6.4c15.5,8.8,23.9,23.1,30.3,38.7c4.1,10.1,9.8,18.6,18.9,24.8c10.5,7.2,22.5,9.3,34.8,10.4
		c10.6,0.9,21.1,1.2,31.6-1.1c1.5-0.3,3.2-0.8,4.7,0.2c0.2,0.6,0.6,1.1,0.6,1.6c0.2,18.7,0.5,37.4,0.4,56.1
		c-0.1,10.8-4.1,15.1-14.7,16.6c-3.6,0.5-7.2,0.7-10.8,0.7c-24,0.1-48,0.3-72,0c-39.3-0.5-69.5-17.5-90.1-51.2
		c-9.7-15.9-13.3-33.7-13.4-52C0,323-0.2,213.4,0.4,103.7C0.6,60.2,21.3,28.3,60.6,9.2c13.5-6.6,28.2-8.9,43.1-8.9
		c109.6-0.2,219.2-0.5,328.9,0.1c43.5,0.2,75.4,20.8,94.6,60.2c6.5,13.2,8.6,27.7,8.7,42.2c0.1,110.2,0.4,220.4-0.1,330.5
		c-0.2,43.4-21.3,74.6-60.1,93.6c-13.2,6.5-27.7,8.5-42.3,8.7c-24.8,0.4-49.6,0.1-74.5,0.1c-4.5,0-8.8-0.9-13.2-1.7
		c-6.6-1.2-9.4-5.5-10.4-11.5c-0.4-2.4-0.2-5-0.2-7.5c0-26.2,0-52.4,0-78.7c0-5.9-0.1-11.7-1.2-17.5
		C331.6,405.9,328.6,399.7,319,387.3z"/>
	<path class="st0" d="M870.1,226.8c-14.9-8-28.7-14.3-43.6-18.2c-19.7-5.1-39.6-6.7-59.6-2.8c-28.6,5.7-46.3,23.3-53.3,51.3
		c-5,20.1-4.8,40.4,1.2,60.3c8.4,27.9,27.5,43.7,56.4,47.7c13.9,1.9,27.8,1.4,41.5-1.9c6.8-1.6,6.8-1.8,6.8-9c0-13.4,0-26.7,0-39.9
		c-3-1.6-5.8-0.9-8.6-0.9c-8.6-0.1-17.3-0.1-25.9,0c-2.7,0-4-0.7-4-3.7c0.1-11.4,0.1-22.9,0-34.3c0-2.8,0.9-4.2,3.8-3.9
		c0.6,0.1,1.1,0,1.7,0c28.7,0,57.5,0,86.2,0c5.8,0,5.9,0.1,5.9,6c0,35.4,0,70.8,0.1,106.3c0,3.9-1.2,6-4.8,7.6
		c-22.3,10-45.4,16.5-69.7,19.2c-23.2,2.5-46.2,2.1-68.9-3.4c-48.3-11.8-81.4-48.7-88-98c-2.8-20.7-2.5-41.2,2.7-61.4
		c11.5-44.3,40.5-71.9,84.2-83c44.2-11.3,87.9-6.9,130.4,9.7c3.8,1.5,5.6,3.4,5.5,7.8C869.9,196.5,870.1,210.9,870.1,226.8z"/>
	<path class="st0" d="M1741.1,382.5c0,8,0,16,0,24.5c-18.5,0-36.3,0-54.1,0c-3,0-3.9-1.2-3.7-4c0.1-1.7,0-3.3,0-5
		c0-78.9,0-157.9,0-236.8c0-1.4,0.1-2.8,0-4.2c-0.5-3.9,1.5-4.6,4.9-4.5c15.9,0.1,31.8,0.3,47.7-0.1c4.7-0.1,5.4,1.8,5.4,5.8
		c-0.1,27.1-0.1,54.1-0.1,81.2c0,2.9,0,5.8,0,9.5c3.7-1.5,4.9-3.8,6.4-5.5c27.8-31.9,84-33.5,112.1,6.1
		c8.7,12.3,14.4,25.7,17.1,40.4c4.4,24.4,3.5,48.3-5.7,71.5c-7.8,19.8-20.6,35.7-40.5,44.7c-22.1,10-56.9,9-79.6-14.9
		c-2.8-3-5.6-6-8.4-9C1742.2,382.3,1741.7,382.4,1741.1,382.5z M1819.2,315.9c0-10.6-1.1-21.1-5.1-31.1c-6-14.9-16.8-22.1-32.8-22.5
		c-16.3-0.4-27.6,6.7-34.3,21.5c-3.6,8-4.8,16.5-5.4,25.1c-0.9,12.6,0.1,25.1,4.7,37c6.1,15.9,18,23.7,34.8,23.5
		c16.4-0.2,27.5-8.1,33.5-24C1818.2,335.9,1819.1,326,1819.2,315.9z"/>
	<path class="st0" d="M1264.2,152.5c0,32.6,0,64,0,95.8c4.1-0.2,5.4-3.4,7.3-5.4c18.7-18.7,40.9-26.1,67.1-22.2
		c22.5,3.4,37.5,15.9,45.4,37c3.9,10.5,5.6,21.6,5.6,32.8c0.1,36.8,0.1,73.6,0.1,110.4c0,5.8-0.1,5.9-5.9,5.9
		c-15.6,0-31.2-0.1-46.9,0.1c-4.4,0.1-5.7-1.2-5.7-5.6c0.2-23.7,0.2-47.4,0.1-71.1c-0.1-12-0.4-24-0.7-36c0-0.6,0-1.1-0.1-1.7
		c-0.7-12.2-4.1-23.1-17-27.1c-12.7-3.9-24.9-1.9-34.9,7.8c-8.1,8-11.8,18.1-13.4,29.1c-0.9,6.3-1.3,12.7-1.3,19.2
		c0.1,25.9,0.1,51.9,0,77.8c0,8.6,0.6,7.4-7.7,7.5c-15.1,0-30.1-0.1-45.2,0.1c-4.1,0.1-5.1-1.3-5.1-5.2c0.2-23.1,0.1-46.3,0.1-69.4
		c0-56.6,0-113.2,0-169.9c0-2,0.1-3.9,0-5.9c-0.3-3.4,1.3-4.2,4.4-4.2C1228.2,152.6,1245.8,152.5,1264.2,152.5z"/>
	<path class="st0" d="M1566.6,382.3c-3.5,3.6-6.8,7.4-10.5,10.8c-19.9,17.7-43.1,22.4-68.5,16.4c-20.1-4.7-32.8-18-39.5-37.2
		c-3.3-9.5-5.1-19.4-5.1-29.5c-0.1-37.6-0.1-75.3-0.1-112.9c0-5.9,0.1-6.1,5.8-6.1c15.6-0.1,31.2-0.1,46.8,0c5.7,0,5.8,0.2,5.8,6.1
		c0,32.3,0,64.7,0,97c0,7,0.4,13.9,1.9,20.8c2.2,10.6,9.6,17.6,20.3,19.5c15.2,2.6,28.8-3.8,36.8-17.4c6.3-10.7,8-22.5,8.1-34.6
		c0.1-18.4,0-36.8,0-55.2c0-9.8,0-19.5,0-29.3c0-6.9,0.1-7,6.6-7c15.1-0.1,30.1-0.1,45.2,0c6.5,0,6.6,0.1,6.6,7c0,44,0,88.1,0,132.1
		c0,12.8-0.2,25.7,0.1,38.5c0.1,4.5-1.4,5.6-5.7,5.6c-15.9-0.2-31.8-0.2-47.7,0c-4,0.1-5.4-1.1-5.2-5.2c0.3-6.3,0.1-12.6,0.1-19
		C1567.7,382.7,1567.1,382.5,1566.6,382.3z"/>
	<path class="st0" d="M1109.3,172.7c1,2.7,0.5,5.5,0.5,8.3c0.1,12.5,0.2,25.1,0,37.6c-0.1,4,1.3,5.3,5.3,5.3
		c15.3-0.2,30.7-0.1,46-0.1c2,0,3.9,0.1,5.9,0c2.5-0.1,3.4,1.2,3.4,3.6c0,11.4-0.1,22.9,0,34.3c0,2.7-0.9,4.2-3.8,4
		c-1.7-0.1-3.3,0-5,0c-15.1,0-30.1,0-45.2,0c-6.2,0-6.3,0.1-6.3,6.5c0,23.4-0.1,46.8,0,70.3c0.1,17.9,5,22.5,23.1,22.6
		c8.9,0.1,17.8,0.2,26.8-0.1c3.7-0.1,5.5,0.6,5.4,4.9c-0.3,10.9-0.1,21.7-0.1,32.6c0,2.3,0.2,4.5-3.2,4.4c-22-0.6-44,1.5-66-1.6
		c-26.6-3.8-40-17.5-43.1-44.2c-0.8-7.5-1.2-15-1.3-22.5c-0.2-22.3,0-44.6-0.1-66.9c0-5.9-0.1-6-5.8-6c-6.1-0.1-12.3-0.2-18.4,0
		c-3.7,0.1-4.8-1.4-4.7-4.9c0.2-10.9,0.1-21.7,0-32.6c0-3.2,1-4.5,4.3-4.4c5.6,0.2,11.1,0.1,16.7,0c8.5,0,7.9,0.8,7.9-8.3
		c0-12.8,0.1-25.6,0-38.5c0-3.2,0.4-5.2,4.4-5.2c17.3,0.2,34.6,0.1,51.8,0.2C1108.3,172.1,1108.8,172.5,1109.3,172.7z"/>
	<path class="st0" d="M989.7,315.6c0,28.1,0,56.3,0,84.4c0,7.6,0.6,6.9-6.5,6.9c-15.3,0-30.7-0.2-46,0.1c-4.5,0.1-5.5-1.4-5.5-5.6
		c0.1-57.4,0.1-114.8,0-172.2c0-4.6,1.6-5.5,5.8-5.5c15.6,0.2,31.2,0.2,46.8,0c4.6-0.1,5.5,1.6,5.5,5.8
		C989.6,258.2,989.7,286.9,989.7,315.6z"/>
	<path class="st0" d="M931.8,152.8c19.9,0,38.5,0,57.9,0c0,14.9,0,29.7,0,44.4c0,2.6-1.4,3.3-3.7,3.3c-16.7,0-33.5-0.1-50.2,0
		c-2.8,0-4-0.9-4-3.8C931.8,182.2,931.8,167.7,931.8,152.8z"/>
	<path class="st0" d="M138.3,424.7c-0.5,1.8-1.7,3-3.5,3c-2.2,0.1-6.1-4.1-5.9-6.1c0.3-1.8,1.5-2.9,3.4-2.9
		C134.8,418.7,138.5,422.5,138.3,424.7z"/>
	<path class="st0" d="M153.5,437.7c-2.4-0.8-5.8-0.1-6.3-3.9c-0.3-2.4,1.2-3.4,3.5-3.5c3.6-0.2,6.7,2,6.4,4.7
		C156.8,437.2,155.2,437.5,153.5,437.7z"/>
	<path class="st0" d="M173.2,440.7c-1.9-0.2-4.1,0-4.2-2.8c-0.1-3.7,2.8-3.7,5.2-3.8c2.3-0.1,4.8,0.4,4.7,3.4
		C178.8,441,175.6,440.4,173.2,440.7z"/>
	<path class="st0" d="M199.1,434.6c-0.3,3.1-2.9,3.4-5.3,3.9c-2.1,0.4-4.2-0.3-4.5-2.5c-0.4-3.2,2-4.3,4.7-4.5
		C196.3,431.3,198.6,431.2,199.1,434.6z"/>
	<path class="st0" d="M118.7,403.6c2.5-0.4,5.1,2.5,5.2,5.5c0.1,1.5-0.5,2.9-2.2,2.9c-3.1,0-4.3-2.2-5-4.7
		C116,405.4,117,404.2,118.7,403.6z"/>
	<path class="st0" d="M108.3,390c2.5,0.2,4,2.1,4.7,4.5c0.3,0.9-0.7,2.1-1.8,2.2c-3.1,0.3-4.3-1.8-4.8-4.3
		C106.2,391.3,106.7,390.3,108.3,390z"/>
	<path class="st0" d="M101.4,383.7c-0.1,1-0.8,1.6-1.6,1.6c-2.1,0.1-3.9-0.6-4-3c0-0.4,1.3-1.2,1.9-1.2
		C99.3,381.2,101,381.7,101.4,383.7z"/>
</g>
</svg>
