<svg width="28" height="27" viewBox="0 0 28 27" fill="none" xmlns="http://www.w3.org/2000/svg">
<path fill-rule="evenodd" clip-rule="evenodd" d="M14.0111 0.0559082C6.63202 0.0559082 0.666748 6.06516 0.666748 13.4994C0.666748 19.442 4.48891 24.4723 9.79125 26.2527C10.4542 26.3865 10.697 25.9634 10.697 25.6075C10.697 25.2959 10.6752 24.2276 10.6752 23.1145C6.96308 23.9159 6.19007 21.5119 6.19007 21.5119C5.59352 19.9539 4.70961 19.5535 4.70961 19.5535C3.49465 18.7299 4.79811 18.7299 4.79811 18.7299C6.14582 18.819 6.853 20.1099 6.853 20.1099C8.04584 22.1574 9.96798 21.5789 10.7413 21.2227C10.8516 20.3546 11.2053 19.7537 11.5809 19.4199C8.62027 19.1082 5.50529 17.9509 5.50529 12.7871C5.50529 11.3181 6.0352 10.1162 6.87485 9.1815C6.74238 8.84772 6.2783 7.4675 7.0076 5.6202C7.0076 5.6202 8.13434 5.26402 10.6749 7.00015C11.7626 6.70587 12.8843 6.55618 14.0111 6.55491C15.1378 6.55491 16.2864 6.71088 17.3471 7.00015C19.8879 5.26402 21.0146 5.6202 21.0146 5.6202C21.7439 7.4675 21.2796 8.84772 21.1471 9.1815C22.0089 10.1162 22.5169 11.3181 22.5169 12.7871C22.5169 17.9509 19.402 19.0858 16.4192 19.4199C16.9054 19.8427 17.3249 20.6439 17.3249 21.9127C17.3249 23.7154 17.3031 25.1623 17.3031 25.6073C17.3031 25.9634 17.5462 26.3865 18.2088 26.253C23.5112 24.472 27.3334 19.442 27.3334 13.4994C27.3552 6.06516 21.3681 0.0559082 14.0111 0.0559082Z" fill="#151514"/>
</svg>
