<?xml version="1.0" standalone="no"?>
<svg width="30" height="30" viewBox="0 0 30 30" fill="none" xmlns="http://www.w3.org/2000/svg">
<path d="M0.444964 12.8474L4.92234 15.0042V18.5945C4.92234 18.8965 5.09529 19.1718 5.3673 19.3028L13.9329 23.4289C14.0393 23.4801 14.1559 23.5067 14.2741 23.5067H15.7134C15.8316 23.5067 15.9481 23.4801 16.0547 23.4289L24.5965 19.3142C24.7621 19.2343 24.8945 19.0991 24.9707 18.9318C24.9815 18.9082 24.9918 18.8844 25.002 18.8605C25.0437 18.7629 25.0652 18.6578 25.0652 18.5517V15.0041L26.2865 14.4158V19.2845C26.0222 19.4606 25.8185 19.7246 25.7199 20.046L25.025 22.3103C24.9394 22.5895 24.9417 22.8841 25.0318 23.162L25.6762 25.148C25.86 25.7145 26.3834 26.1074 26.9786 26.1257C26.9826 26.1258 26.9865 26.1258 26.9905 26.1259L27.0101 26.1262C27.0142 26.1263 27.0183 26.1263 27.0224 26.1263C27.6076 26.1263 28.1243 25.7745 28.3388 25.2299L29.0839 23.3386C29.1989 23.0469 29.2134 22.7207 29.1248 22.42L28.4301 20.0614C28.3333 19.7325 28.1278 19.4625 27.8588 19.2835V13.6586L29.555 12.8415C29.827 12.7104 30 12.4352 30 12.1332V11.5071C30 11.2051 29.827 10.9298 29.555 10.7988L15.3349 3.94897C15.1192 3.84513 14.8681 3.84513 14.6525 3.94897L0.444964 10.7928C0.172954 10.9238 0 11.1991 0 11.5011V12.1392C0 12.4411 0.172954 12.7164 0.444964 12.8474ZM27.0366 24.2462L26.5427 22.7241L27.0695 21.0074L27.6013 22.8127L27.0366 24.2462ZM23.4928 18.1006L15.5339 21.9345H14.4535L6.49465 18.1006V15.7617L14.6526 19.6914C14.7603 19.7433 14.877 19.7692 14.9937 19.7692C15.1105 19.7692 15.2271 19.7433 15.3349 19.6914L23.4929 15.7617L23.4928 18.1006ZM14.9937 5.52983L28.0522 11.8201L24.0419 13.7519C24.0066 13.7631 23.9718 13.7762 23.9378 13.7925L14.9937 18.101L6.04962 13.7925C6.01572 13.7762 5.98088 13.7631 5.9456 13.7519L1.93533 11.8201L14.9937 5.52983Z" fill="#B53E20"/>
</svg>
