<svg width="16" height="15" viewBox="0 0 16 15" fill="none" xmlns="http://www.w3.org/2000/svg">
<path fill-rule="evenodd" clip-rule="evenodd" d="M0.999863 6.40037C1.09986 4.80037 1.89986 3.30037 2.99986 2.20037C4.39986 0.900369 6.09986 0.200369 8.09986 0.200369C9.69986 0.200369 11.1999 0.800369 12.4999 1.80037C13.6999 2.80037 14.5999 4.20037 14.8999 5.80037C15.1999 7.40037 14.9999 9.00037 14.1999 10.4004C13.3999 11.8004 12.1999 12.9004 10.6999 13.5004C9.19986 14.1004 7.49986 14.2004 5.99986 13.7004C4.39986 13.2004 3.09986 12.3004 2.19986 10.9004C1.29986 9.60037 0.899863 8.00037 0.999863 6.40037ZM13.8999 5.90037C13.5999 4.60037 12.8999 3.40037 11.7999 2.50037C10.6999 1.70037 9.39986 1.20037 7.99986 1.30037C6.39986 1.30037 4.79986 1.90037 3.69986 3.00037C2.69986 4.00037 2.09986 5.20037 1.99986 6.60037C1.89986 7.90037 2.19986 9.30037 2.99986 10.4004C3.79986 11.5004 4.89986 12.3004 6.29986 12.7004C7.59986 13.1004 8.99986 13.1004 10.2999 12.5004C11.5999 11.9004 12.5999 11.0004 13.2999 9.80037C13.9999 8.60037 14.1999 7.20037 13.8999 5.90037ZM7.49986 7.10037L4.99986 4.70037L5.69986 4.00037L8.19986 6.40037L10.6999 4.00037L11.3999 4.70037L8.89986 7.10037L11.3999 9.50037L10.6999 10.2004L8.19986 7.80037L5.69986 10.2004L4.99986 9.50037L7.49986 7.10037Z" fill="#EF6868" fill-opacity="0.75"/>
</svg>
