<?xml version="1.0" encoding="utf-8"?>
<!-- Generator: Adobe Illustrator 21.0.0, SVG Export Plug-In . SVG Version: 6.00 Build 0)  -->
<svg version="1.1" id="Layer_1" xmlns="http://www.w3.org/2000/svg" xmlns:xlink="http://www.w3.org/1999/xlink" x="0px" y="0px"
	 viewBox="0 0 512 512" style="enable-background:new 0 0 512 512;" xml:space="preserve">
<style type="text/css">
	.st0{fill:#FCB91D;}
</style>
<g>
	<g>
		<g>
			<path class="st0" d="M298.7,246.5V64c0-23.5-19.1-42.7-42.7-42.7S213.3,40.5,213.3,64v182.5c-25.4,14.8-42.7,42-42.7,73.5
				s17.3,58.7,42.7,73.5V448c0,23.5,19.1,42.7,42.7,42.7s42.7-19.1,42.7-42.7v-54.5c25.4-14.8,42.7-42,42.7-73.5
				S324,261.3,298.7,246.5z M234.7,64c0-11.8,9.6-21.3,21.3-21.3c11.8,0,21.3,9.6,21.3,21.3v173.7c-6.9-1.8-13.9-3-21.3-3
				s-14.5,1.2-21.3,3L234.7,64L234.7,64z M277.3,448c0,11.8-9.6,21.3-21.3,21.3s-21.3-9.6-21.3-21.3v-45.7c6.9,1.8,13.9,3,21.3,3
				s14.5-1.2,21.3-3V448z M256,384c-35.3,0-64-28.7-64-64s28.7-64,64-64s64,28.7,64,64S291.3,384,256,384z"/>
			<path class="st0" d="M128,75.9V64c0-23.5-19.1-42.7-42.7-42.7S42.7,40.5,42.7,64v11.9C17.3,90.7,0,117.9,0,149.3
				s17.3,58.7,42.7,73.5V448c0,23.5,19.1,42.7,42.7,42.7S128,471.5,128,448V222.8c25.4-14.8,42.7-42,42.7-73.5S153.4,90.7,128,75.9z
				 M64,64c0-11.8,9.6-21.3,21.3-21.3s21.3,9.6,21.3,21.3v3c-6.9-1.8-13.9-3-21.3-3S70.9,65.2,64,67V64z M106.7,448
				c0,11.8-9.6,21.3-21.3,21.3c-11.8,0-21.3-9.6-21.3-21.3V231.6c6.9,1.8,13.9,3,21.3,3c7.4,0,14.5-1.2,21.3-3L106.7,448L106.7,448z
				 M85.3,213.3c-35.3,0-64-28.7-64-64s28.7-64,64-64s64,28.7,64,64C149.3,184.6,120.6,213.3,85.3,213.3z"/>
			<path class="st0" d="M469.3,118.5V64c0-23.5-19.1-42.7-42.7-42.7S384,40.5,384,64v54.5c-25.4,14.8-42.7,42-42.7,73.5
				s17.3,58.7,42.7,73.5V448c0,23.5,19.1,42.7,42.7,42.7s42.7-19.1,42.7-42.7V265.5c25.4-14.8,42.7-42,42.7-73.5
				S494.7,133.3,469.3,118.5z M405.3,64c0-11.8,9.6-21.3,21.3-21.3S448,52.2,448,64v45.7c-6.9-1.8-13.9-3-21.3-3s-14.5,1.2-21.3,3
				L405.3,64L405.3,64z M448,448c0,11.8-9.6,21.3-21.3,21.3s-21.3-9.6-21.3-21.3V274.3c6.9,1.8,13.9,3,21.3,3s14.5-1.2,21.3-3
				L448,448L448,448z M426.7,256c-35.3,0-64-28.7-64-64s28.7-64,64-64s64,28.7,64,64S462,256,426.7,256z"/>
		</g>
	</g>
</g>
</svg>
