<?xml version="1.0" encoding="utf-8"?>
<!-- Generator: Adobe Illustrator 24.1.3, SVG Export Plug-In . SVG Version: 6.00 Build 0)  -->
<svg version="1.1" id="Слой_1" xmlns="http://www.w3.org/2000/svg" xmlns:xlink="http://www.w3.org/1999/xlink" x="0px" y="0px"
	 viewBox="0 0 1807.9 458" style="enable-background:new 0 0 1807.9 458;" xml:space="preserve">
<style type="text/css">
	.st0{fill:#3A3A3A;}
</style>
<path class="st0" d="M1578.3,458c-63.4,0-126.7,0-190.1,0c-4.6,0-9.3,0.2-13.9-1c-13.8-3.7-23.7-15.8-24.8-30.3
	c-0.2-2.2-0.1-4.4-0.1-6.6c0-127.3,0-254.6,0-381.9c0-4.7,0.1-9.3,1.4-13.8c3.9-13.8,16.2-23.6,30.6-24.3c2.2-0.1,4.4-0.1,6.6-0.1
	c127.3,0,254.6,0,381.9,0c4.1,0,8.2-0.3,12.2,0.8c13.8,4,22.4,12.9,25.1,27.2c0.7,3.8,0.7,7.6,0.7,11.4c0,126.2,0,252.4,0,378.6
	c0,4.7-0.1,9.3-1.1,13.9c-3,13.9-15.2,24.6-29.3,25.7c-3.3,0.2-6.6,0.2-9.8,0.2C1704.5,458,1641.4,458,1578.3,458z M1593.3,200
	c0-7.6-0.3-15.2,0.1-22.7c0.2-4.4-1.4-5.6-5.6-5.5c-18,0.2-36,0.1-54.1,0.1c-0.3,0-0.6,0-0.8,0c-4.1-0.6-5.4,1.4-4.9,5.2
	c0.2,1.6,0,3.3,0,4.9c0,48.1,0,96.1,0,144.2c0,19.4,0,38.8,0,58.2c0,5.9,0.1,6,5.6,6c18.8,0.1,37.7,0.1,56.5,0c5.5,0,5.6-0.1,5.7-6
	c0-1.6,0-3.3,0-4.9c0-32-0.1-63.9,0-95.9c0-11.5,0.4-23,4.4-33.9c4.3-11.9,12.3-20.1,25-22.4c25.4-4.6,41.5,3.9,45.4,31.1
	c1,7.3,1.5,14.7,1.4,22c0,34.7,0,69.4,0,104c0,5.7,0.1,5.8,5.8,5.8c18.8,0,37.7-0.1,56.5,0.1c4.4,0.1,5.4-1.4,5.4-5.6
	c-0.2-44.2-0.1-88.5-0.5-132.7c-0.1-14.8-2.7-29.3-8.1-43.2c-5.9-15.4-15.6-27.7-30.9-34.5c-19.8-8.8-40.6-10.7-61.6-6
	C1619.7,172.8,1605.4,184.1,1593.3,200z M1485.4,281c0-34.4,0-68.8,0-103.2c0-5.8-0.1-5.9-5.8-5.9c-18.6-0.1-37.1,0-55.7,0
	c-6.5,0-6.3-0.3-6.3,6.2c0,68.8,0,137.6,0,206.4c0,5.8,0.1,5.8,5.8,5.9c18.3,0,36.6,0,54.9,0c7.6,0,7.1,0.7,7.1-7
	C1485.4,349.2,1485.4,315.1,1485.4,281z M1451.6,141.7c22.2-0.1,39.3-17.6,39.1-39.8c-0.2-21.5-17.9-39-39.4-38.9
	c-21.6,0.1-39.7,18.6-39.3,40C1412.4,124.6,1430,141.8,1451.6,141.7z"/>
<path class="st0" d="M1212.6,193.1c1.4-3.8,0.9-6.5,0.9-9.1c0-35.5,0-71,0-106.5c0-1.9,0.1-3.8,0-5.7c-0.2-3.3,1.4-4.2,4.4-4.2
	c9.6,0.1,19.1,0,28.7,0s19.1,0,28.7,0c6.4,0,6.4,0.1,6.5,6.1c0,1.1,0,2.2,0,3.3c0,101.3,0,202.7,0,304c0,10.4,1.3,9.2-9,9.3
	c-15.8,0.1-31.7,0-47.5,0c-5.8,0-5.8-0.1-6-5.7c-0.2-7.3,0.5-14.6-0.4-21.8c-2.5-0.3-3.1,1.6-4.1,2.7
	c-21.2,24.1-48.2,33.3-79.5,29.1c-50.3-6.7-84.2-41.4-91.2-91.9c-4.1-29.5-0.3-57.8,13.6-84.2c14.2-27,35.4-45.5,65.9-51.7
	c20.5-4.2,40.7-2.4,60.4,5C1195.2,176.1,1204.4,183.1,1212.6,193.1z M1165.1,224.6c-27.3-0.1-46.2,13.9-52.6,38.9
	c-1.3,5-1.8,10.2-2,15.4c-0.9,31.6,17.3,53.4,48,56.6c25.6,2.7,51.7-8.3,59-39.9c1-4.2,1.5-8.6,1.6-13
	C1220.1,243.9,1195.2,224.2,1165.1,224.6z"/>
<path class="st0" d="M652.4,283.1c0,11.9,0,22.5,0,33.1c0,22.7,0,45.3,0,68c0,6.1-0.1,6.2-6.3,6.2c-18.6,0-37.1,0-55.7,0
	c-6,0-6.1-0.1-6.1-6.5c0-103.2,0-206.5,0-309.7c0-6.5,0.1-6.5,6.9-6.5c18,0,36,0,54.1,0c7.4,0,7.2-0.5,7.2,7.1c0,41.5,0,83,0,124.5
	c0,19.6,0,39.2,0,59.9c3.2-1.7,4.5-4,6.2-5.9c22-25.4,44-50.7,65.8-76.3c3.3-3.9,6.6-5.6,11.8-5.5c22.7,0.3,45.3,0.1,68,0.1
	c2.1,0,4.2,0,8.2,0c-30.4,34.6-59.7,67.9-89,101.2c28.9,39,57.5,77.6,86.2,116.2c-2,2.2-4.2,1.3-6.2,1.3
	c-23.8,0.1-47.5-0.2-71.3,0.2c-5.5,0.1-8.2-1.9-11-6.2C700.6,353.1,679.8,322,659,291C657.3,288.5,656.2,285.8,652.4,283.1z"/>
<path class="st0" d="M865.7,301.8c4.7,21.2,16.7,34.6,36.3,40.5c22.4,6.8,43.7-1.6,63.3-23.9c2.6,0.2,4.2,2.3,6.1,3.7
	c12.4,9,24.7,18,37,27.1c4.3,3.2,4.4,3.4,0.8,7.3c-13.3,14.6-29,25.8-47.8,32c-39.9,13.3-78.3,9.2-113.8-13.4
	c-31.1-19.8-47-49.3-49.5-86c-1-14.5,0-28.9,4.3-42.9c12.7-41.2,41.3-65.8,82.1-76.8c20.8-5.6,42.2-6.4,63.2-1.2
	c35.1,8.7,57,31.6,68.5,65.2c7.2,21.1,7.2,42.9,6.9,64.8c0,3-1.5,3.7-4.1,3.5c-1.9-0.1-3.8,0-5.7,0c-45.9,0-91.8,0-137.7,0
	C872.8,301.8,869.8,301.8,865.7,301.8z M955,255.2c0.2-23.4-16.8-40.5-40.7-41.4c-25.6-1-46.6,17-47.9,41.4
	C895.9,255.2,925.5,255.2,955,255.2z"/>
<path class="st0" d="M549.9,390.3c-22,0-43,0-64,0c-2.8,0-4-1-3.8-3.8c0.1-1.9,0-3.8,0-5.7c0-35,0-69.9,0-104.9c0-9-0.8-18-3.3-26.7
	c-4.4-15-14.3-22.6-29.9-23c-3-0.1-6-0.1-9,0.3c-13.6,1.5-23.4,8.3-28.6,21.2c-2.9,7.2-4.5,14.6-4.6,22.3
	c-0.2,18.8-0.4,37.7-0.4,56.5c-0.1,19.1,0,38.2,0,57.3c0,6.3-0.1,6.4-6.2,6.4c-18.6,0-37.1,0-55.7,0c-6.1,0-6.2-0.1-6.2-6.3
	c0-38,0-75.9,0-113.9c0-29.8,0-59.5,0-89.3c0-2.7,0-5.4,0-8.6c21.9,0,43.3,0,65.2,0c0,9.3,0,18.3,0,27.2c3,0.9,3.3-1.6,4.3-2.9
	c15.2-20.6,35.8-30.5,61.2-30.3c10.4,0.1,20.7,1.2,30.7,4.1c20.4,5.8,34.1,18.7,41.7,38.3c5.3,13.6,7.7,27.9,8.2,42.4
	c1.3,40.1,0.3,80.3,0.6,120.4C550,377.3,549.9,383.3,549.9,390.3z"/>
<path class="st0" d="M0,228.9c0-50,0-100,0-149.9c0-1.4,0-2.7,0-4.1c0.1-7.2,0.1-7.2,6.9-7.2c13.1,0,26.2,0,39.3,0
	c6.6,0,13.1,0.1,19.7-0.1c3.5-0.1,5.1,1.1,4.7,4.7c-0.2,1.9,0,3.8,0,5.7c0,78.7,0,157.3,0,236c0,1.6,0,3.3,0,4.9
	c-0.1,6.2-0.4,6.1,6.3,6.1c38.5,0,77,0,115.5,0c10.2,0,9-1.1,9,9.3c0.1,16.4,0,32.8,0,49.2c0,6.9-0.1,6.9-7.2,6.9
	c-62.5,0-125.1,0-187.6,0c-7.2,0-6.7,0.4-6.7-6.6C0,332.2,0,280.6,0,228.9z"/>
<path class="st0" d="M232.7,280.5c0-34.1,0-68.3,0-102.4c0-6.6-0.4-6.4,6-6.4c18.6,0,37.1,0,55.7,0c5.9,0,6-0.3,5.9,5.7
	c-0.1,10.1,0,20.2,0,30.3c0,56.5,0,113,0,169.6c0,1.4,0,2.7,0,4.1c-0.1,10.2,1.1,8.8-8.5,8.9c-16.9,0.1-33.9,0-50.8,0
	c-1.6,0-3.3-0.1-4.9,0c-2.4,0.1-3.5-0.8-3.5-3.3c0.1-1.9,0-3.8,0-5.7C232.7,347.7,232.7,314.1,232.7,280.5z"/>
<path class="st0" d="M266.5,141.6c-21.6,0-39.2-17.3-39.4-38.8C226.9,81,244.8,63,266.5,62.9c21.4,0,39,17.5,39.3,39.1
	C306.1,123.9,288.6,141.6,266.5,141.6z"/>
</svg>
