<svg width="40" height="41" viewBox="0 0 40 41" fill="none" xmlns="http://www.w3.org/2000/svg">
<g clip-path="url(#clip0_3710_9332)">
<path d="M29.7304 7.99023C30.4678 7.99023 31.1749 8.28313 31.6962 8.80449C32.2176 9.32584 32.5105 10.033 32.5105 10.7703L32.5105 30.2305C32.5105 30.9678 32.2176 31.6749 31.6962 32.1962C31.1749 32.7176 30.4678 33.0105 29.7304 33.0105L10.2703 33.0105C9.53295 33.0105 8.82584 32.7176 8.30449 32.1962C7.78313 31.6749 7.49023 30.9678 7.49023 30.2305L7.49023 10.7703C7.49023 10.033 7.78313 9.32584 8.30449 8.80449C8.82584 8.28313 9.53295 7.99023 10.2703 7.99023L29.7304 7.99023ZM29.0354 29.5354L29.0354 22.1684C29.0354 20.9666 28.558 19.814 27.7082 18.9642C26.8584 18.1143 25.7058 17.6369 24.504 17.6369C23.3225 17.6369 21.9464 18.3597 21.2792 19.4439L21.2792 17.901L17.401 17.901L17.401 29.5354L21.2792 29.5354L21.2792 22.6827C21.2792 21.6124 22.141 20.7367 23.2113 20.7367C23.7274 20.7367 24.2224 20.9417 24.5873 21.3066C24.9523 21.6716 25.1573 22.1666 25.1573 22.6827L25.1573 29.5354L29.0354 29.5354ZM12.8835 15.7187C13.5028 15.7187 14.0968 15.4727 14.5347 15.0347C14.9727 14.5968 15.2187 14.0028 15.2187 13.3835C15.2187 12.0908 14.1762 11.0344 12.8835 11.0344C12.2605 11.0344 11.663 11.2819 11.2224 11.7224C10.7819 12.163 10.5344 12.7605 10.5344 13.3835C10.5344 14.6762 11.5908 15.7187 12.8835 15.7187ZM14.8156 29.5354L14.8156 17.901L10.9653 17.901L10.9653 29.5354L14.8156 29.5354Z" fill="#151514"/>
</g>
<defs>
<clipPath id="clip0_3710_9332">
<rect width="40" height="40" fill="white" transform="translate(0 0.5)"/>
</clipPath>
</defs>
</svg>
