<svg width="29" height="12" viewBox="0 0 29 12" fill="none" xmlns="http://www.w3.org/2000/svg">
<rect width="29" height="12" fill="#3D996B"/>
<path d="M6.68556 9V3.4H8.34956L9.86956 8.424H9.99756V3.4H10.8536V9H9.18956L7.66956 3.968H7.54156V9H6.68556ZM12.0215 9V3.4H15.5495V4.184H12.8855V5.792H15.3255V6.576H12.8855V8.216H15.5895V9H12.0215ZM16.9943 9L16.1702 3.4H17.0343L17.7063 8.416H17.8343L18.6983 3.4H20.2103L21.0743 8.416H21.2023L21.8663 3.4H22.7303L21.9063 9H20.3943L19.5143 3.912H19.3863L18.5143 9H16.9943Z" fill="white"/>
</svg>
