<svg id="Layer_1" data-name="Layer 1" xmlns="http://www.w3.org/2000/svg" viewBox="0 0 465.81 94.51">
  <defs>
    <style>
      .cls-1{fill:#ffc221}.cls-6{fill:#7591c5}
    </style>
  </defs>
  <path class="cls-1" d="M175.4 203.1v-21.68c0-11 5.48-17.76 25.09-17.76s25.09 6.59 25.09 17.61v21.61c0 11-5.48 17.84-25.09 17.84s-25.09-6.59-25.09-17.62zm40.6-1.25v-19.47c0-8.36-3.33-11.17-15.54-11.17s-15.61 3-15.61 11.32V202c0 8.37 3.33 11.18 15.61 11.18S216 210.21 216 201.85zM233 212.35l4.14-.14v-40L233 172v-7.18h26.56c13.77 0 19 3.33 19 11v6.51c0 6.07-3.77 10.44-11.76 11 6.73.6 11.39 1.71 12 8l1 10.88 4.44.22v7.1h-12.8a3.39 3.39 0 0 1-1-2.59l-1-12.95c-.45-5.7-4.44-7.18-14.07-7.18h-8.65v15.4l4.07.14v7.18H233zm24.71-22.86c9 0 11.55-1.93 11.55-6.66v-4.37c0-4.44-1.7-6.29-11.55-6.29h-11v17.32zM289.66 203.1v-21.68c0-11 5.47-17.76 25.09-17.76s25.08 6.59 25.08 17.61v21.61c0 11-5.47 17.84-25.08 17.84s-25.09-6.59-25.09-17.62zm40.63-1.25v-19.47c0-8.36-3.33-11.17-15.54-11.17s-15.62 3-15.62 11.32V202c0 8.37 3.33 11.18 15.62 11.18s15.54-2.97 15.54-11.33z" transform="translate(-62.72 -144.25)"/>
  <path d="M83.37 202.91l38.56-37.81a10.49 10.49 0 0 1 14.85.15l-17.51-17.86a10.5 10.5 0 0 0-14.85-.14l-38.55 37.81a10.49 10.49 0 0 0-.15 14.84l17.5 17.85a10.49 10.49 0 0 1 .15-14.84z" transform="translate(-62.72 -144.25)" fill="#fcba1e"/>
  <path d="M98.07 217.9l38.56-37.81a10.49 10.49 0 0 0 .15-14.84l17.5 17.85a10.49 10.49 0 0 1-.15 14.84l-38.55 37.81a10.5 10.5 0 0 1-14.85-.14l-17.51-17.86a10.49 10.49 0 0 0 14.85.15z" transform="translate(-62.72 -144.25)" fill="#df9026"/>
  <path d="M154.28 183.1l-17.5-17.85a10.49 10.49 0 0 1-.15 14.84l-1.07 1 10.15 10.36a10.49 10.49 0 0 1-.15 14.85l8.57-8.41a10.49 10.49 0 0 0 .15-14.79z" transform="translate(-62.72 -144.25)" fill="#ac722a"/>
  <path d="M110.7 155.8l10.16 10.35 1.07-1.05a10.49 10.49 0 0 1 14.85.15l-17.51-17.86a10.5 10.5 0 0 0-14.85-.14l-1.07 1.05z" transform="translate(-62.72 -144.25)" fill="#ffc841"/>
  <path class="cls-6" d="M347.59 215.64l4.63-.08v-43.94l-4.63-.15v-5h24.32c19.18 0 24.84 5 24.84 17.34v19.33c0 12.34-5.66 17.48-24.91 17.48h-24.25zm24.25-.08c14.33 0 18.3-3.6 18.3-13.22v-17.79c0-9.62-4-12.93-18.23-12.93h-13.15v43.94zM403.81 206.3v-15.72c0-9.26 4.7-15.43 19.91-15.43s19.85 5 19.85 15.43v15.72c0 9.26-4.71 15.51-19.85 15.51s-19.91-5.07-19.91-15.51zm33.36-.51v-14.62c0-7.43-2.94-10.88-13.45-10.88s-13.59 4.41-13.59 10.88v14.62c0 7.35 3.08 10.88 13.59 10.88s13.45-4.49 13.45-10.88zM450.26 206.3v-15.72c0-9.26 5.14-15.43 18.15-15.43 7.79 0 13.23 2.27 14.25 8.37l.22-7.05h4.71v15.73h-5.88v-1.69c0-8.46-6-10.22-11.83-10.22-10.07 0-13.23 4.41-13.23 10.88v14.62c0 7.35 3.16 10.88 13.23 10.88 9 0 11.83-3.53 11.83-7.87v-3.67h5.88v4.63c0 6.47-5.37 12.05-18 12.05-14.34 0-19.33-5.07-19.33-15.51zM498.83 216.52l-.22 4h-4.33v-11.64h5.58v1.47c0 6.39 5.74 6.9 12.28 6.9 7.12 0 10.5-2.2 10.5-6.76v-3.23c0-3.53-1.54-4.92-10.14-6.1l-5-.73c-10.07-1.47-13.3-5.15-13.3-10.88v-4.12c0-6.46 4.84-10.28 16.16-10.28 7.42 0 12.13 1.54 13.45 4.85l.15-3.6h4.41v10.65h-5.59v-1.69c0-4.92-5.58-5.66-11.83-5.66-7.79 0-10.88 1.91-10.88 5.66v3c0 3 1.4 5.22 10.14 6.47l4.93.66c10.14 1.4 13.37 4 13.37 10.14v4.27c0 7.12-4.92 11.9-16.09 11.9-7.19.01-12.12-1.24-13.59-5.28z" transform="translate(-62.72 -144.25)"/>
</svg>
