<svg data-name="Layer 1" xmlns="http://www.w3.org/2000/svg" viewBox="0 0 269.823 84.673">
  <defs>
    <clipPath id="a">
      <path d="M0 0h269.823v84.673H0z" fill="none"/>
    </clipPath>
  </defs>
  <g clip-path="url(#a)">
    <path d="M105.393 53.253V31.569c0-11.026 5.477-17.761 25.088-17.761s25.087 6.586 25.087 17.613V53.03c0 11.028-5.476 17.836-25.087 17.836s-25.088-6.586-25.088-17.613m40.629-1.258V32.531c0-8.363-3.331-11.175-15.541-11.175-12.285 0-15.615 2.961-15.615 11.324v19.463c0 8.362 3.33 11.175 15.615 11.175 12.21 0 15.541-2.961 15.541-11.323M162.964 62.5l4.144-.148V22.318l-4.144-.147v-7.179h26.568c13.764 0 19.018 3.33 19.018 11.026v6.513c0 6.069-3.773 10.435-11.766 10.953 6.735.592 11.4 1.7 11.989 7.992l1.036 10.879 4.44.222v7.1h-12.8a3.391 3.391 0 0 1-1.035-2.59l-1.037-12.951c-.444-5.7-4.44-7.179-14.061-7.179h-8.658v15.398l4.07.148v7.179h-17.764V62.5zm24.718-22.867c9.028 0 11.545-1.924 11.545-6.661v-4.363c0-4.441-1.7-6.291-11.545-6.291h-11.027v17.318h11.027zm31.966 13.62V31.569c0-11.026 5.476-17.761 25.087-17.761s25.088 6.586 25.088 17.613V53.03c0 11.028-5.477 17.836-25.088 17.836s-25.087-6.586-25.087-17.613m40.628-1.258V32.531c0-8.363-3.33-11.175-15.541-11.175-12.285 0-15.615 2.961-15.615 11.324v19.463c0 8.362 3.33 11.175 15.615 11.175 12.211 0 15.541-2.961 15.541-11.323" fill="#ffc221"/>
    <path d="M18.5 52.556l34.548-33.873a9.407 9.407 0 0 1 13.3.131L50.67 2.821a9.409 9.409 0 0 0-13.3-.131L2.821 36.563a9.409 9.409 0 0 0-.131 13.3L18.373 65.86a9.407 9.407 0 0 1 .13-13.3" fill="#fcba1e"/>
    <path d="M31.676 65.99L66.22 32.117a9.407 9.407 0 0 0 .13-13.3l15.682 15.99a9.408 9.408 0 0 1-.13 13.3L47.357 81.983a9.409 9.409 0 0 1-13.3-.13L18.372 65.86a9.407 9.407 0 0 0 13.3.13" fill="#df9026"/>
    <path d="M82.033 34.807L66.351 18.814a9.407 9.407 0 0 1-.131 13.3l-.959.94 9.1 9.276a9.409 9.409 0 0 1-.131 13.3l7.67-7.519a9.407 9.407 0 0 0 .131-13.3" fill="#ad722a"/>
    <path d="M42.992 10.348l9.1 9.276.959-.941a9.408 9.408 0 0 1 13.3.13L50.669 2.82a9.409 9.409 0 0 0-13.3-.13l-.959.941z" fill="#ffc841"/>
  </g>
</svg>
