<svg width="62" height="22" viewBox="0 0 62 22" fill="none" xmlns="http://www.w3.org/2000/svg">
<path d="M5.24458 13.2007L13.639 4.96551C14.0719 4.54106 14.6554 4.30598 15.2614 4.31196C15.8674 4.31793 16.4463 4.56446 16.8707 4.99736L13.0612 1.10914C12.6368 0.676364 12.058 0.429911 11.452 0.423939C10.846 0.417967 10.2625 0.652965 9.8296 1.07729L1.43491 9.31249C1.00239 9.73719 0.75608 10.3163 0.750111 10.9226C0.744142 11.529 0.979004 12.1129 1.40308 12.546L5.21373 16.4352C4.7895 16.0021 4.55451 15.4182 4.56043 14.8119C4.56636 14.2055 4.81271 13.6263 5.24531 13.2017" fill="#FCBA1E"/>
<path d="M8.44598 16.4667L16.8395 8.23154C17.2721 7.80688 17.5184 7.2277 17.5243 6.62134C17.5303 6.01498 17.2953 5.43109 16.871 4.99805L20.6814 8.88554C21.1056 9.31861 21.3406 9.90249 21.3346 10.5088C21.3287 11.1152 21.0824 11.6943 20.6499 12.119L12.2561 20.355C11.8233 20.7793 11.2398 21.0144 10.6338 21.0084C10.0278 21.0025 9.44899 20.7561 9.02451 20.3234L5.21338 16.4351C5.6378 16.868 6.21664 17.1145 6.82265 17.1204C7.42866 17.1263 8.01221 16.8912 8.445 16.4667" fill="#DF9026"/>
<path d="M20.6812 8.88627L16.8708 4.99805C17.295 5.43112 17.5299 6.01503 17.524 6.62139C17.518 7.22775 17.2716 7.80691 16.839 8.23154L16.606 8.46008L18.8171 10.7153C19.2411 11.1484 19.476 11.7323 19.47 12.3386C19.4641 12.9449 19.2178 13.5241 18.7852 13.9488L20.6489 12.1207C21.0815 11.6961 21.3279 11.1169 21.3339 10.5106C21.3399 9.90422 21.1049 9.32031 20.6807 8.88724" fill="#AD722A"/>
<path d="M11.195 2.93922L13.4061 5.1944L13.6391 4.96563C14.0719 4.54121 14.6555 4.30613 15.2615 4.31206C15.8675 4.31798 16.4463 4.56443 16.8707 4.99723L13.0603 1.10901C12.6359 0.676273 12.057 0.429864 11.4511 0.423938C10.8451 0.418011 10.2616 0.653052 9.82872 1.07741L9.5957 1.30618L11.195 2.93922Z" fill="#FFC841"/>
<path d="M24.7964 13.4079V8.42836C24.7964 5.90416 26.0152 4.34375 30.3587 4.34375C34.7021 4.34375 35.921 5.85827 35.921 8.38247V13.3391C35.921 15.8633 34.7021 17.4237 30.3587 17.4237C26.0152 17.4237 24.7964 15.9321 24.7964 13.4079ZM33.7935 13.1096V8.63488C33.7935 6.70731 33.0622 6.06479 30.3587 6.06479C27.6329 6.06479 26.9016 6.75321 26.9016 8.65783V13.1555C26.9016 15.0831 27.6329 15.7256 30.3587 15.7256C33.0622 15.7256 33.7935 15.0372 33.7935 13.1096Z" fill="#FFC221"/>
<path d="M37.561 15.542L38.4696 15.5191V6.34018L37.561 6.27134V4.61914H43.4557C46.5139 4.61914 47.6662 5.3764 47.6662 7.14334V8.63491C47.6662 10.0347 46.8241 11.0214 45.0513 11.1591C46.536 11.2968 47.5776 11.5492 47.7105 12.9949L47.9321 15.4961L48.9072 15.542V17.1713H46.0707C45.9599 17.0566 45.8712 16.9418 45.8491 16.5747L45.6274 13.5915C45.5388 12.2835 44.6524 11.9393 42.5028 11.9393H40.5749V15.4732L41.4834 15.4961V17.1483H37.561V15.542ZM43.0347 10.2871C45.0291 10.2871 45.5831 9.85111 45.5831 8.74964V7.73997C45.5831 6.73029 45.2064 6.29429 43.0347 6.29429H40.597V10.2642H43.0347V10.2871Z" fill="#FFC221"/>
<path d="M50.126 13.4079V8.42836C50.126 5.90416 51.3448 4.34375 55.6883 4.34375C60.0317 4.34375 61.2505 5.85827 61.2505 8.38247V13.3391C61.2505 15.8633 60.0317 17.4237 55.6883 17.4237C51.3448 17.4237 50.126 15.9321 50.126 13.4079ZM59.1231 13.1096V8.63488C59.1231 6.70731 58.3918 6.06479 55.6883 6.06479C52.9625 6.06479 52.2312 6.75321 52.2312 8.65783V13.1555C52.2312 15.0831 52.9625 15.7256 55.6883 15.7256C58.3918 15.7256 59.1231 15.0372 59.1231 13.1096Z" fill="#FFC221"/>
</svg>
