<svg width="36" height="36" viewBox="0 0 36 36" fill="none" xmlns="http://www.w3.org/2000/svg">
<path d="M34.5632 14.811L21.189 1.43679C19.44 -0.312263 16.5751 -0.312263 14.8261 1.43679L1.43679 14.811C-0.312263 16.56 -0.312263 19.4249 1.43679 21.1739L8.13143 27.8686L14.8261 34.5632C16.5751 36.3123 19.44 36.3123 21.189 34.5632L34.5632 21.189C36.3123 19.4249 36.3123 16.56 34.5632 14.811ZM26.9187 15.4443L15.4744 26.8885C13.7254 28.6375 10.8606 28.6375 9.1115 26.8885C7.36245 25.1394 7.36245 22.2746 9.1115 20.5256L20.5557 9.08135C22.3048 7.3323 25.1696 7.3323 26.9187 9.08135C28.6677 10.8304 28.6677 13.6952 26.9187 15.4443Z" fill="#151514"/>
</svg>
