<svg width="109" height="22" viewBox="0 0 109 22" fill="none" xmlns="http://www.w3.org/2000/svg">
<path d="M27.665 10.9632C27.665 6.22403 31.1759 2.75903 35.9792 2.75903C40.7825 2.75903 44.2934 6.22403 44.2934 10.9632C44.2934 15.7024 40.7825 19.1674 35.9792 19.1674C31.1759 19.1674 27.665 15.7024 27.665 10.9632ZM35.9792 17.1782C39.5817 17.1782 42.2125 14.5474 42.2125 10.9724C42.2125 7.3882 39.5817 4.76653 35.9792 4.76653C32.3767 4.76653 29.7459 7.39737 29.7459 10.9724C29.755 14.5474 32.3767 17.1782 35.9792 17.1782Z" fill="#B48C50"/>
<path d="M50.5266 7.52588C51.2508 7.52588 51.865 7.68171 52.5158 8.02088V10.0192C51.9291 9.63421 51.2966 9.43255 50.655 9.43255C49.2525 9.43255 48.3633 10.4775 48.3633 12.155V18.9109H46.3833V11.9534C46.3833 9.28588 48.0333 7.52588 50.5266 7.52588Z" fill="#B48C50"/>
<path d="M53.561 13.3189C53.561 9.96386 56.1002 7.51636 59.5652 7.51636C63.0302 7.51636 65.5694 9.96386 65.5694 13.3189C65.5694 16.6922 63.0302 19.1672 59.5652 19.1672C56.1002 19.1672 53.561 16.7014 53.561 13.3189ZM59.5652 17.2605C61.8569 17.2605 63.5344 15.6105 63.5344 13.3372C63.5344 11.0639 61.8569 9.41386 59.5652 9.41386C57.2735 9.41386 55.596 11.0639 55.596 13.3372C55.596 15.6105 57.2735 17.2605 59.5652 17.2605Z" fill="#B48C50"/>
<path d="M76.7157 11.3937H69.6941V18.892H67.6499V3.03369H69.6849V9.44119H76.7066V3.03369H78.7416V18.892H76.7066V11.3937H76.7157Z" fill="#3C3C3C"/>
<path d="M82.6743 3.35474C83.4443 3.35474 84.0126 3.89557 84.0126 4.64724C84.0126 5.3989 83.4443 5.93974 82.6743 5.93974C81.9043 5.93974 81.3359 5.3989 81.3359 4.64724C81.3359 3.89557 81.9043 3.35474 82.6743 3.35474ZM81.6751 7.7914H83.6643V18.8922H81.6751V7.7914Z" fill="#3C3C3C"/>
<path d="M86.9091 7.7915H88.8982V16.784C92.2716 16.0323 94.3616 13.4107 94.3616 9.78067V7.7915H96.3507V9.78984C96.3507 14.914 93.0874 18.4707 87.9632 18.9015H86.8999V7.7915H86.9091Z" fill="#3C3C3C"/>
<path d="M97.7441 13.1814C97.7441 9.91802 100.21 7.51636 103.519 7.51636C105.985 7.51636 107.873 8.87302 108.707 11.073L101.182 16.2797C101.906 16.8939 102.859 17.2514 103.968 17.2514C105.169 17.2514 106.168 16.848 107.552 15.803V17.9297C106.287 18.7914 105.169 19.1489 103.812 19.1489C100.32 19.1672 97.7441 16.6097 97.7441 13.1814ZM100.118 14.813L106.232 10.578C105.572 9.82636 104.647 9.42302 103.492 9.42302C101.292 9.42302 99.7791 10.9172 99.7791 13.1355C99.7791 13.7497 99.8891 14.318 100.118 14.813Z" fill="#3C3C3C"/>
<path d="M21.386 9.06554L13.2552 0.934707C12.1918 -0.128626 10.4502 -0.128626 9.38683 0.934707L1.256 9.06554C0.192663 10.1289 0.192663 11.8705 1.256 12.9339L5.31683 17.0039L9.37766 21.0647C10.441 22.128 12.1827 22.128 13.246 21.0647L21.3768 12.9339C22.4493 11.8705 22.4493 10.1289 21.386 9.06554ZM16.7385 9.45971L9.781 16.4172C8.71766 17.4805 6.976 17.4805 5.91266 16.4172C4.84933 15.3539 4.84933 13.6122 5.91266 12.5489L12.8702 5.59137C13.9335 4.52804 15.6752 4.52804 16.7385 5.59137C17.8018 6.64554 17.8018 8.38721 16.7385 9.45971Z" fill="#B48C50"/>
</svg>
