<svg width="109" height="29" viewBox="0 0 109 29" fill="none" xmlns="http://www.w3.org/2000/svg">
<path d="M33.3284 28.126C32.7964 28.126 32.3169 27.9965 31.8899 27.7375C31.4699 27.4785 31.1374 27.125 30.8924 26.677C30.6474 26.229 30.5249 25.7285 30.5249 25.1755C30.5249 24.6085 30.6474 24.1045 30.8924 23.6635C31.1374 23.2155 31.4699 22.862 31.8899 22.603C32.3169 22.344 32.7964 22.2145 33.3284 22.2145C33.7974 22.2145 34.2139 22.316 34.5779 22.519C34.9419 22.715 35.2289 22.981 35.4389 23.317L35.2814 23.5585V20.0515H36.2684V28H35.3129V26.7925L35.4389 26.9605C35.2429 27.3315 34.9559 27.6185 34.5779 27.8215C34.2069 28.0245 33.7904 28.126 33.3284 28.126ZM33.4124 27.181C33.7694 27.181 34.0879 27.0935 34.3679 26.9185C34.6479 26.7435 34.8684 26.5055 35.0294 26.2045C35.1974 25.8965 35.2814 25.5535 35.2814 25.1755C35.2814 24.7905 35.1974 24.4475 35.0294 24.1465C34.8684 23.8385 34.6479 23.597 34.3679 23.422C34.0879 23.247 33.7694 23.1595 33.4124 23.1595C33.0624 23.1595 32.7439 23.2505 32.4569 23.4325C32.1769 23.6075 31.9564 23.8455 31.7954 24.1465C31.6344 24.4405 31.5539 24.7835 31.5539 25.1755C31.5539 25.5535 31.6344 25.8965 31.7954 26.2045C31.9564 26.5055 32.1769 26.7435 32.4569 26.9185C32.7369 27.0935 33.0554 27.181 33.4124 27.181Z" fill="#3C3C3C"/>
<path d="M40.4678 28.126C39.9218 28.126 39.4283 28 38.9873 27.748C38.5463 27.489 38.1963 27.1355 37.9373 26.6875C37.6783 26.2395 37.5488 25.732 37.5488 25.165C37.5488 24.598 37.6748 24.094 37.9268 23.653C38.1858 23.212 38.5358 22.862 38.9768 22.603C39.4178 22.344 39.9148 22.2145 40.4678 22.2145C41.0138 22.2145 41.5073 22.344 41.9483 22.603C42.3893 22.855 42.7358 23.2015 42.9878 23.6425C43.2468 24.0835 43.3763 24.591 43.3763 25.165C43.3763 25.739 43.2433 26.25 42.9773 26.698C42.7113 27.139 42.3578 27.489 41.9168 27.748C41.4828 28 40.9998 28.126 40.4678 28.126ZM40.4678 27.181C40.8178 27.181 41.1328 27.0935 41.4128 26.9185C41.6998 26.7435 41.9238 26.502 42.0848 26.194C42.2528 25.886 42.3368 25.543 42.3368 25.165C42.3368 24.78 42.2528 24.4405 42.0848 24.1465C41.9238 23.8455 41.6998 23.6075 41.4128 23.4325C41.1328 23.2505 40.8178 23.1595 40.4678 23.1595C40.1108 23.1595 39.7888 23.2505 39.5018 23.4325C39.2218 23.6075 38.9978 23.8455 38.8298 24.1465C38.6618 24.4405 38.5778 24.78 38.5778 25.165C38.5778 25.543 38.6618 25.886 38.8298 26.194C38.9978 26.502 39.2218 26.7435 39.5018 26.9185C39.7888 27.0935 40.1108 27.181 40.4678 27.181Z" fill="#3C3C3C"/>
<path d="M47.2749 28.126C46.7219 28.126 46.2284 27.9965 45.7944 27.7375C45.3674 27.4785 45.0314 27.125 44.7864 26.677C44.5414 26.229 44.4189 25.725 44.4189 25.165C44.4189 24.598 44.5414 24.094 44.7864 23.653C45.0314 23.212 45.3674 22.862 45.7944 22.603C46.2284 22.344 46.7219 22.2145 47.2749 22.2145C47.6459 22.2145 47.9924 22.281 48.3144 22.414C48.6364 22.547 48.9199 22.7255 49.1649 22.9495C49.4099 23.1735 49.5884 23.436 49.7004 23.737L48.8289 24.157C48.6959 23.863 48.4929 23.625 48.2199 23.443C47.9469 23.254 47.6319 23.1595 47.2749 23.1595C46.9319 23.1595 46.6204 23.247 46.3404 23.422C46.0674 23.597 45.8504 23.835 45.6894 24.136C45.5284 24.437 45.4479 24.7835 45.4479 25.1755C45.4479 25.5535 45.5284 25.8965 45.6894 26.2045C45.8504 26.5055 46.0674 26.7435 46.3404 26.9185C46.6204 27.0935 46.9319 27.181 47.2749 27.181C47.6319 27.181 47.9469 27.09 48.2199 26.908C48.4929 26.719 48.6959 26.4705 48.8289 26.1625L49.7004 26.6035C49.5884 26.8975 49.4099 27.16 49.1649 27.391C48.9199 27.615 48.6364 27.7935 48.3144 27.9265C47.9924 28.0595 47.6459 28.126 47.2749 28.126Z" fill="#3C3C3C"/>
<path d="M52.9821 28.126C52.5761 28.126 52.2086 28.0315 51.8796 27.8425C51.5576 27.6535 51.3056 27.391 51.1236 27.055C50.9486 26.712 50.8611 26.32 50.8611 25.879V22.3405H51.8376V25.774C51.8376 26.054 51.8936 26.299 52.0056 26.509C52.1246 26.719 52.2856 26.8835 52.4886 27.0025C52.6986 27.1215 52.9366 27.181 53.2026 27.181C53.4686 27.181 53.7031 27.1215 53.9061 27.0025C54.1161 26.8835 54.2771 26.712 54.3891 26.488C54.5081 26.264 54.5676 25.998 54.5676 25.69V22.3405H55.5546V28H54.5991V26.8975L54.7566 26.992C54.6236 27.349 54.3961 27.629 54.0741 27.832C53.7591 28.028 53.3951 28.126 52.9821 28.126Z" fill="#3C3C3C"/>
<path d="M57.0674 28V22.3405H58.0229V23.4955L57.8864 23.317C58.0264 22.96 58.2504 22.687 58.5584 22.498C58.8664 22.309 59.2129 22.2145 59.5979 22.2145C60.0389 22.2145 60.4344 22.337 60.7844 22.582C61.1414 22.827 61.3864 23.149 61.5194 23.548L61.2464 23.5585C61.3934 23.1175 61.6419 22.785 61.9919 22.561C62.3419 22.33 62.7304 22.2145 63.1574 22.2145C63.5494 22.2145 63.9029 22.3055 64.2179 22.4875C64.5399 22.6695 64.7954 22.9215 64.9844 23.2435C65.1734 23.5655 65.2679 23.9295 65.2679 24.3355V28H64.2809V24.6505C64.2809 24.3355 64.2249 24.0695 64.1129 23.8525C64.0009 23.6355 63.8469 23.4675 63.6509 23.3485C63.4619 23.2225 63.2379 23.1595 62.9789 23.1595C62.7269 23.1595 62.4994 23.2225 62.2964 23.3485C62.1004 23.4675 61.9429 23.639 61.8239 23.863C61.7119 24.08 61.6559 24.3425 61.6559 24.6505V28H60.6689V24.6505C60.6689 24.3355 60.6129 24.0695 60.5009 23.8525C60.3889 23.6355 60.2349 23.4675 60.0389 23.3485C59.8499 23.2225 59.6259 23.1595 59.3669 23.1595C59.1149 23.1595 58.8874 23.2225 58.6844 23.3485C58.4884 23.4675 58.3309 23.639 58.2119 23.863C58.0999 24.08 58.0439 24.3425 58.0439 24.6505V28H57.0674Z" fill="#3C3C3C"/>
<path d="M69.2588 28.126C68.7128 28.126 68.2263 27.9965 67.7993 27.7375C67.3723 27.4785 67.0363 27.125 66.7913 26.677C66.5463 26.222 66.4238 25.7145 66.4238 25.1545C66.4238 24.5875 66.5428 24.0835 66.7808 23.6425C67.0258 23.2015 67.3548 22.855 67.7678 22.603C68.1878 22.344 68.6568 22.2145 69.1748 22.2145C69.5948 22.2145 69.9658 22.2915 70.2878 22.4455C70.6168 22.5925 70.8933 22.7955 71.1173 23.0545C71.3483 23.3065 71.5233 23.597 71.6423 23.926C71.7683 24.248 71.8313 24.584 71.8313 24.934C71.8313 25.011 71.8243 25.0985 71.8103 25.1965C71.8033 25.2875 71.7928 25.375 71.7788 25.459H67.1378V24.619H71.2118L70.7498 24.997C70.8128 24.633 70.7778 24.3075 70.6448 24.0205C70.5118 23.7335 70.3158 23.506 70.0568 23.338C69.7978 23.17 69.5038 23.086 69.1748 23.086C68.8458 23.086 68.5448 23.17 68.2718 23.338C67.9988 23.506 67.7853 23.7475 67.6313 24.0625C67.4843 24.3705 67.4248 24.738 67.4528 25.165C67.4248 25.578 67.4878 25.942 67.6418 26.257C67.8028 26.565 68.0268 26.8065 68.3138 26.9815C68.6078 27.1495 68.9263 27.2335 69.2693 27.2335C69.6473 27.2335 69.9658 27.146 70.2248 26.971C70.4838 26.796 70.6938 26.572 70.8548 26.299L71.6738 26.719C71.5618 26.978 71.3868 27.216 71.1488 27.433C70.9178 27.643 70.6413 27.811 70.3193 27.937C70.0043 28.063 69.6508 28.126 69.2588 28.126Z" fill="#3C3C3C"/>
<path d="M73.1045 28V22.3405H74.06V23.443L73.9025 23.3485C74.0425 22.9915 74.2665 22.715 74.5745 22.519C74.8895 22.316 75.257 22.2145 75.677 22.2145C76.083 22.2145 76.4435 22.3055 76.7585 22.4875C77.0805 22.6695 77.3325 22.9215 77.5145 23.2435C77.7035 23.5655 77.798 23.9295 77.798 24.3355V28H76.811V24.6505C76.811 24.3355 76.755 24.0695 76.643 23.8525C76.531 23.6355 76.37 23.4675 76.16 23.3485C75.957 23.2225 75.7225 23.1595 75.4565 23.1595C75.1905 23.1595 74.9525 23.2225 74.7425 23.3485C74.5395 23.4675 74.3785 23.639 74.2595 23.863C74.1405 24.08 74.081 24.3425 74.081 24.6505V28H73.1045Z" fill="#3C3C3C"/>
<path d="M81.4949 28.063C80.9419 28.063 80.5149 27.9055 80.2139 27.5905C79.9199 27.2755 79.7729 26.831 79.7729 26.257V23.275H78.7439V22.3405H78.9539C79.2059 22.3405 79.4054 22.2635 79.5524 22.1095C79.6994 21.9555 79.7729 21.7525 79.7729 21.5005V21.0385H80.7494V22.3405H82.0199V23.275H80.7494V26.2255C80.7494 26.4145 80.7774 26.579 80.8334 26.719C80.8964 26.859 80.9979 26.971 81.1379 27.055C81.2779 27.132 81.4634 27.1705 81.6944 27.1705C81.7434 27.1705 81.8029 27.167 81.8729 27.16C81.9499 27.153 82.0199 27.146 82.0829 27.139V28C81.9919 28.021 81.8904 28.035 81.7784 28.042C81.6664 28.056 81.5719 28.063 81.4949 28.063Z" fill="#3C3C3C"/>
<path d="M84.9457 28.126C84.5747 28.126 84.2457 28.0595 83.9587 27.9265C83.6787 27.7865 83.4582 27.5975 83.2972 27.3595C83.1362 27.1145 83.0557 26.8345 83.0557 26.5195C83.0557 26.2185 83.1187 25.949 83.2447 25.711C83.3777 25.466 83.5807 25.2595 83.8537 25.0915C84.1337 24.9235 84.4837 24.8045 84.9037 24.7345L87.0037 24.388V25.207L85.1242 25.522C84.7602 25.585 84.4942 25.7005 84.3262 25.8685C84.1652 26.0365 84.0847 26.243 84.0847 26.488C84.0847 26.719 84.1757 26.9115 84.3577 27.0655C84.5467 27.2195 84.7812 27.2965 85.0612 27.2965C85.4182 27.2965 85.7262 27.223 85.9852 27.076C86.2512 26.922 86.4577 26.7155 86.6047 26.4565C86.7587 26.1975 86.8357 25.9105 86.8357 25.5955V24.157C86.8357 23.849 86.7202 23.6005 86.4892 23.4115C86.2652 23.2155 85.9677 23.1175 85.5967 23.1175C85.2747 23.1175 84.9877 23.2015 84.7357 23.3695C84.4907 23.5305 84.3087 23.7475 84.1897 24.0205L83.3392 23.5795C83.4442 23.3205 83.6122 23.0895 83.8432 22.8865C84.0742 22.6765 84.3437 22.512 84.6517 22.393C84.9597 22.274 85.2817 22.2145 85.6177 22.2145C86.0517 22.2145 86.4332 22.2985 86.7622 22.4665C87.0912 22.6275 87.3467 22.855 87.5287 23.149C87.7177 23.436 87.8122 23.772 87.8122 24.157V28H86.8567V26.929L87.0352 26.992C86.9162 27.216 86.7552 27.412 86.5522 27.58C86.3492 27.748 86.1112 27.881 85.8382 27.979C85.5652 28.077 85.2677 28.126 84.9457 28.126Z" fill="#3C3C3C"/>
<path d="M91.5232 28.063C90.9702 28.063 90.5432 27.9055 90.2422 27.5905C89.9482 27.2755 89.8012 26.831 89.8012 26.257V23.275H88.7722V22.3405H88.9822C89.2342 22.3405 89.4337 22.2635 89.5807 22.1095C89.7277 21.9555 89.8012 21.7525 89.8012 21.5005V21.0385H90.7777V22.3405H92.0482V23.275H90.7777V26.2255C90.7777 26.4145 90.8057 26.579 90.8617 26.719C90.9247 26.859 91.0262 26.971 91.1662 27.055C91.3062 27.132 91.4917 27.1705 91.7227 27.1705C91.7717 27.1705 91.8312 27.167 91.9012 27.16C91.9782 27.153 92.0482 27.146 92.1112 27.139V28C92.0202 28.021 91.9187 28.035 91.8067 28.042C91.6947 28.056 91.6002 28.063 91.5232 28.063Z" fill="#3C3C3C"/>
<path d="M93.3868 28V22.3405H94.3633V28H93.3868ZM93.3868 21.4375V20.1775H94.3633V21.4375H93.3868Z" fill="#3C3C3C"/>
<path d="M98.5665 28.126C98.0205 28.126 97.527 28 97.086 27.748C96.645 27.489 96.295 27.1355 96.036 26.6875C95.777 26.2395 95.6475 25.732 95.6475 25.165C95.6475 24.598 95.7735 24.094 96.0255 23.653C96.2845 23.212 96.6345 22.862 97.0755 22.603C97.5165 22.344 98.0135 22.2145 98.5665 22.2145C99.1125 22.2145 99.606 22.344 100.047 22.603C100.488 22.855 100.834 23.2015 101.086 23.6425C101.345 24.0835 101.475 24.591 101.475 25.165C101.475 25.739 101.342 26.25 101.076 26.698C100.81 27.139 100.456 27.489 100.015 27.748C99.5815 28 99.0985 28.126 98.5665 28.126ZM98.5665 27.181C98.9165 27.181 99.2315 27.0935 99.5115 26.9185C99.7985 26.7435 100.022 26.502 100.183 26.194C100.351 25.886 100.435 25.543 100.435 25.165C100.435 24.78 100.351 24.4405 100.183 24.1465C100.022 23.8455 99.7985 23.6075 99.5115 23.4325C99.2315 23.2505 98.9165 23.1595 98.5665 23.1595C98.2095 23.1595 97.8875 23.2505 97.6005 23.4325C97.3205 23.6075 97.0965 23.8455 96.9285 24.1465C96.7605 24.4405 96.6765 24.78 96.6765 25.165C96.6765 25.543 96.7605 25.886 96.9285 26.194C97.0965 26.502 97.3205 26.7435 97.6005 26.9185C97.8875 27.0935 98.2095 27.181 98.5665 27.181Z" fill="#3C3C3C"/>
<path d="M102.749 28V22.3405H103.704V23.443L103.547 23.3485C103.687 22.9915 103.911 22.715 104.219 22.519C104.534 22.316 104.901 22.2145 105.321 22.2145C105.727 22.2145 106.088 22.3055 106.403 22.4875C106.725 22.6695 106.977 22.9215 107.159 23.2435C107.348 23.5655 107.442 23.9295 107.442 24.3355V28H106.455V24.6505C106.455 24.3355 106.399 24.0695 106.287 23.8525C106.175 23.6355 106.014 23.4675 105.804 23.3485C105.601 23.2225 105.367 23.1595 105.101 23.1595C104.835 23.1595 104.597 23.2225 104.387 23.3485C104.184 23.4675 104.023 23.639 103.904 23.863C103.785 24.08 103.725 24.3425 103.725 24.6505V28H102.749Z" fill="#3C3C3C"/>
<path d="M27.665 10.9632C27.665 6.22403 31.1759 2.75903 35.9792 2.75903C40.7825 2.75903 44.2934 6.22403 44.2934 10.9632C44.2934 15.7024 40.7825 19.1674 35.9792 19.1674C31.1759 19.1674 27.665 15.7024 27.665 10.9632ZM35.9792 17.1782C39.5817 17.1782 42.2125 14.5474 42.2125 10.9724C42.2125 7.3882 39.5817 4.76653 35.9792 4.76653C32.3767 4.76653 29.7459 7.39737 29.7459 10.9724C29.755 14.5474 32.3767 17.1782 35.9792 17.1782Z" fill="#B48C50"/>
<path d="M50.5266 7.52588C51.2508 7.52588 51.865 7.68171 52.5158 8.02088V10.0192C51.9291 9.63421 51.2966 9.43255 50.655 9.43255C49.2525 9.43255 48.3633 10.4775 48.3633 12.155V18.9109H46.3833V11.9534C46.3833 9.28588 48.0333 7.52588 50.5266 7.52588Z" fill="#B48C50"/>
<path d="M53.561 13.3189C53.561 9.96386 56.1002 7.51636 59.5652 7.51636C63.0302 7.51636 65.5694 9.96386 65.5694 13.3189C65.5694 16.6922 63.0302 19.1672 59.5652 19.1672C56.1002 19.1672 53.561 16.7014 53.561 13.3189ZM59.5652 17.2605C61.8569 17.2605 63.5344 15.6105 63.5344 13.3372C63.5344 11.0639 61.8569 9.41386 59.5652 9.41386C57.2735 9.41386 55.596 11.0639 55.596 13.3372C55.596 15.6105 57.2735 17.2605 59.5652 17.2605Z" fill="#B48C50"/>
<path d="M76.7157 11.3937H69.6941V18.892H67.6499V3.03369H69.6849V9.44119H76.7066V3.03369H78.7416V18.892H76.7066V11.3937H76.7157Z" fill="#3C3C3C"/>
<path d="M82.6743 3.35474C83.4443 3.35474 84.0126 3.89557 84.0126 4.64724C84.0126 5.3989 83.4443 5.93974 82.6743 5.93974C81.9043 5.93974 81.3359 5.3989 81.3359 4.64724C81.3359 3.89557 81.9043 3.35474 82.6743 3.35474ZM81.6751 7.7914H83.6643V18.8922H81.6751V7.7914Z" fill="#3C3C3C"/>
<path d="M86.9091 7.7915H88.8982V16.784C92.2716 16.0323 94.3616 13.4107 94.3616 9.78067V7.7915H96.3507V9.78984C96.3507 14.914 93.0874 18.4707 87.9632 18.9015H86.8999V7.7915H86.9091Z" fill="#3C3C3C"/>
<path d="M97.7441 13.1814C97.7441 9.91802 100.21 7.51636 103.519 7.51636C105.985 7.51636 107.873 8.87302 108.707 11.073L101.182 16.2797C101.906 16.8939 102.859 17.2514 103.968 17.2514C105.169 17.2514 106.168 16.848 107.552 15.803V17.9297C106.287 18.7914 105.169 19.1489 103.812 19.1489C100.32 19.1672 97.7441 16.6097 97.7441 13.1814ZM100.118 14.813L106.232 10.578C105.572 9.82636 104.647 9.42302 103.492 9.42302C101.292 9.42302 99.7791 10.9172 99.7791 13.1355C99.7791 13.7497 99.8891 14.318 100.118 14.813Z" fill="#3C3C3C"/>
<path d="M21.386 9.06554L13.2552 0.934707C12.1918 -0.128626 10.4502 -0.128626 9.38683 0.934707L1.256 9.06554C0.192663 10.1289 0.192663 11.8705 1.256 12.9339L5.31683 17.0039L9.37766 21.0647C10.441 22.128 12.1827 22.128 13.246 21.0647L21.3768 12.9339C22.4493 11.8705 22.4493 10.1289 21.386 9.06554ZM16.7385 9.45971L9.781 16.4172C8.71766 17.4805 6.976 17.4805 5.91266 16.4172C4.84933 15.3539 4.84933 13.6122 5.91266 12.5489L12.8702 5.59137C13.9335 4.52804 15.6752 4.52804 16.7385 5.59137C17.8018 6.64554 17.8018 8.38721 16.7385 9.45971Z" fill="#B48C50"/>
</svg>
