<?xml version="1.0" encoding="utf-8"?>
<!-- Generator: Adobe Illustrator 21.0.0, SVG Export Plug-In . SVG Version: 6.00 Build 0)  -->
<svg version="1.1" id="Слой_1" xmlns="http://www.w3.org/2000/svg" xmlns:xlink="http://www.w3.org/1999/xlink" x="0px" y="0px"
	 viewBox="0 0 2500 749" style="enable-background:new 0 0 2500 749;" xml:space="preserve">
<style type="text/css">
	.st0{fill:#3A3A3A;}
</style>
<title>background</title>
<title>Layer 1</title>
<path class="st0" d="M888.3,293.8c0-74.4,54.2-126.3,152.8-126.3c60.1,0,109.3,19.2,136,38c3.8,2.7,10.6,9.2,6.5,21.3
	c-5.2,13-14.8,32.7-21.7,45.4c-4,7.4-14.2,6.4-19.5,3.8c-19-9.6-50.1-25.9-78.7-28.9c-7.2-0.8-14.5-1.1-21.8-0.9
	c-25.2,0.6-46.2,9.3-53.7,28.5c-1.5,3.6-2.3,7.5-2.4,11.4c-0.7,25.3,34.6,34.5,77.3,41.8c79.4,13.6,139.5,36.9,139.5,118.6
	c0,69.4-55.1,132.1-163.2,130.2c-71.2-1.4-121.8-25.5-148.9-48.9c-0.9-0.8-11.2-11.3-5.7-23.9c6.3-16.3,17-34.9,25.4-44.8
	c4.7-6.4,16.9-7.4,23.3-3.4c22.3,13.9,59.1,36.1,101.4,37.6c3.3,0.1,6.7,0.1,9.9,0.1c38.1-0.9,61.1-15.4,60.7-39.7
	c-0.4-21.4-30.6-34-78.7-43C950,396.3,888.3,371,888.3,293.8 M1585.1,399.7c-54.1,0.7-103.7,15.5-105.1,57.8
	c0,33.5,27.2,50,65.4,47.9c36.6-3.5,64.6-19.4,76.9-40.5c4.6-7.8,5.2-37.1,5-49.5c-0.1-2.7-5.3-7.7-7.6-8.7
	C1608.1,401.8,1599.6,400.3,1585.1,399.7 M1405.1,229.4c25.3-22.6,75.4-57.9,155.4-56c105.5,2.2,161.2,51.6,166.4,169.9
	c2.1,48.8-1.4,184.8-2.2,218.7c-0.1,4.9-1.8,8.2-8.3,8.4c-17.4,0.7-57.5,0.4-75.9,0.2c-9.3-0.5-10.4-5.1-10.5-9.9
	c-0.1-3.2-0.4-12.5-0.5-20.2c-0.1-4.1-3.9-3.9-4.9-2.9c-24.7,26.4-65.3,39.2-108.4,39.2c-65.5,0-130.8-38.5-130.6-114.8
	c0.2-78.1,55.6-116.7,116.5-125.8c39-5.8,82.9-0.6,116.2,12.6c2.1,0.9,6.5-0.4,6.5-3.4c0.1-10-0.3-28.9-2.3-37.9
	c-4.9-22.9-24-41.4-64.2-46.3c-8.3-1-16.6-1.4-24.9-0.7c-31.9,2.5-70.3,27.4-86.2,36.7c-3.7,2.2-9.6,0.6-11.5-1.9
	c-9.3-12-32.6-47.1-34.5-52.7C1399.3,237,1401.9,232.3,1405.1,229.4L1405.1,229.4L1405.1,229.4z M1761.7,374.9
	c-0.6-109,75.3-200.9,198.6-201.7c76.9-0.5,132.8,34.4,142.7,50.8c2,3.9,1,7.1-0.4,11c-6.5,13.8-23,40.3-34.7,55.4
	c-5,6.4-10.4,0.9-16.7-3.3c-17.5-11.6-50.7-25.9-83.4-25.9c-59.3,0-103.5,40.7-103,115.5c0.5,71.8,42.8,111.2,103.2,112.7
	c31.6,0.8,62.2-17.4,78.6-32.2c5.2-4.5,10.5-2.3,16.4,2.4c11.6,11.8,28.2,30.1,37.4,42.7c6,7,1.5,13.8-0.7,16.6
	c-25,31.7-73.3,58.3-137.3,58.7C1828.7,578.4,1762.3,484.2,1761.7,374.9 M2400.7,572.5c6.3-0.5,73.3-9.7,93.9-14.4
	c5.1-1.2,6.9-5.5,4.1-9.7c-11.5-17.2-41.7-66.2-73.4-110c-29.1-40.3-59.8-75.7-69.7-89.3c-2.4-3.3-2.3-6.6,0.3-9.1
	c18.9-18.5,97.8-95.9,127.5-127.8c11.5-12.4,4.6-17.8-5.2-20.7c-18.9-5.6-49.4-12.6-66.7-16.3c-7.3-1.5-16.1-1-22.5,5.6
	c-29.7,27.7-120.3,118.6-147.3,145.8c-4.9,4.9-7.7,3.8-7.7-3.2c-0.2-52.4-1.3-276.7-3.1-313.6c-0.1-4.9-6-8.6-9.3-8.8
	c-17-0.9-60-1.1-76.9-0.2c-4.7,0.5-9.3,5.4-9.7,9.5c-3.9,59,1.7,492.1,4,552.7c0.2,4.4,3.4,7.8,7.6,8c16.9,1,58.7,0.9,78.2,0.5
	c9.6,0,10.8-6.7,10.8-6.7l1.4-116.2c0,0,1-5.2,2.6-6.9c6.9-7.4,25.9-27.8,34-35.7c1.9-1.9,5-1.8,7,0.9c9.6,13,37.1,55.3,62.6,93
	c23.4,34.7,45.2,65.4,46.8,67.6C2393.5,572.4,2397.6,572.6,2400.7,572.5L2400.7,572.5L2400.7,572.5z M1260.3,572.1
	c5.9,0.2,50.6,0.1,70.5,0.1c6.7,0.1,10.1-4.9,10.4-9.4c4.2-84.9,2.4-489.4-0.3-553.2c-0.2-5.5-2.6-7.6-6.4-8.1
	c-17-2.3-65.4-1.7-80.9,2.3c-3,0.8-4.8,3.1-4.9,6.1c-3.8,164.6-1.2,544.1-0.4,551.3C1249.1,568.4,1252.9,571.9,1260.3,572.1
	L1260.3,572.1L1260.3,572.1z"/>
<path class="st0" d="M62.9,403.2C35.3,403.4,12,387,3.4,361.3c-0.3-1-0.6-1.9-0.9-2.9c-9.4-32.8,8.8-67.2,41.4-78.2L567,105
	c6.2-1.8,12.6-2.7,19.1-2.8c28.3-0.2,52.3,16.6,61.1,42.8l0.8,2.5c9.8,34.2-14.5,64.7-43.7,74.5c0,0-5.3,1.8-520.2,177.6
	C77.3,401.9,70.1,403.1,62.9,403.2L62.9,403.2z"/>
<path class="st0" d="M150.1,660.5c-27.8,0.2-51.2-16-59.7-41.3c-0.3-1-0.6-1.9-0.9-2.9c-9.5-33.2,8.7-68,41.4-79L654,360.5
	c6.8-2.3,13.7-3.4,20.8-3.5c27.9-0.2,52.3,16.8,61,42.4l0.8,2.7c5.1,17.7,2.1,37.5-8,53.2c-7.5,11.7-31.1,21.9-31.1,21.9
	L172.3,656.7C165.2,659.1,157.7,660.4,150.1,660.5L150.1,660.5z"/>
<path class="st0" d="M585.6,661.6c-27.8,0.3-52.6-17.4-61.5-43.8L349.5,99.2l-0.9-2.9c-9.5-33.1,8.7-67.6,41.3-78.6
	c6.5-2.2,13.3-3.3,20.1-3.4c10.1-0.1,19.8,2.2,29,6.7c15.3,7.6,26.9,20.9,32.4,37.1L646,576.8l0.5,1.7c9.8,34.3-8.3,68.9-41,79.8
	C599.1,660.4,592.4,661.5,585.6,661.6L585.6,661.6z"/>
<path class="st0" d="M326.1,749c-27.8,0.3-52.7-17.4-61.5-43.8L90,186.6c-11.4-33.6,6.7-70,40.3-81.4c0,0,0.1,0,0.1,0
	c6.5-2.2,13.2-3.3,20-3.4c27.8-0.3,52.7,17.4,61.5,43.8l174.6,518.6c11.4,33.6-6.7,70-40.3,81.4c-0.1,0-0.1,0-0.2,0.1
	C339.6,747.8,332.8,748.9,326.1,749L326.1,749L326.1,749z"/>
<path class="st0" d="M499.5,544.8l121.7-41.6L581.5,385l-121.9,41.2L499.5,544.8z"/>
<path class="st0" d="M240.4,633.4l121.7-41.6L322,472.7l-121.9,41.2L240.4,633.4z"/>
<path class="st0" d="M412.8,287.4l121.7-41.6L495.3,129l-122,40.9L412.8,287.4z"/>
<path class="st0" d="M153.7,375.9l121.7-41.6L235.6,216l-122,40.9L153.7,375.9z"/>
</svg>
