<svg width="16" height="16" viewBox="0 0 16 16" fill="none" xmlns="http://www.w3.org/2000/svg">
<path d="M4.2132 1.68153C4.2132 2.61146 4.9642 3.36306 5.89339 3.36306L7.57358 3.36306L7.57358 1.68153C7.57358 0.751592 6.82259 0 5.89339 0C4.9642 0 4.2132 0.751592 4.2132 1.68153Z" fill="#151514"/>
<path d="M7.57358 5.89809C7.57358 4.96815 6.82259 4.21656 5.89339 4.21656L1.68019 4.21656C0.750994 4.21656 -3.4802e-08 4.96815 -4.13163e-08 5.89809C-4.78305e-08 6.82803 0.750994 7.57962 1.68019 7.57962L5.89339 7.57962C6.82259 7.57962 7.57358 6.82803 7.57358 5.89809Z" fill="#151514"/>
<path d="M1.69293 11.7962C2.62213 11.7962 3.37312 11.0446 3.37312 10.1147L3.37312 8.43312H1.69293C0.763738 8.43312 0.0127443 9.18471 0.0127443 10.1147C0.0127443 11.0446 0.763738 11.7962 1.69293 11.7962Z" fill="#151514"/>
<path d="M5.89341 8.43312C4.96421 8.43312 4.21322 9.18471 4.21322 10.1147L4.21322 14.3185C4.21322 15.2484 4.96421 16 5.89341 16C6.8226 16 7.5736 15.2484 7.5736 14.3185L7.5736 10.1147C7.5736 9.18471 6.8226 8.43312 5.89341 8.43312Z" fill="#151514"/>
<path d="M12.6269 5.89809C12.6269 4.96815 13.3779 4.21656 14.3071 4.21656C15.2363 4.21656 15.9873 4.96815 15.9873 5.89809C15.9873 6.82803 15.2363 7.57962 14.3071 7.57962L12.6269 7.57962L12.6269 5.89809Z" fill="#151514"/>
<path d="M11.7868 5.89809C11.7868 6.82803 11.0358 7.57962 10.1066 7.57962C9.17741 7.57962 8.42642 6.82803 8.42642 5.89809L8.42642 1.68153C8.42642 0.751592 9.17741 0 10.1066 0C11.0358 0 11.7868 0.751592 11.7868 1.68153L11.7868 5.89809Z" fill="#151514"/>
<path d="M11.7868 14.3185C11.7868 13.3885 11.0358 12.6369 10.1066 12.6369H8.42642L8.42642 14.3185C8.42642 15.2484 9.17741 16 10.1066 16C11.0358 16 11.7868 15.2484 11.7868 14.3185Z" fill="#151514"/>
<path d="M8.42642 10.1147C8.42642 11.0446 9.17741 11.7962 10.1066 11.7962H14.3198C15.249 11.7962 16 11.0446 16 10.1147C16 9.18471 15.249 8.43312 14.3198 8.43312H10.1066C9.17741 8.43312 8.42642 9.18471 8.42642 10.1147Z" fill="#151514"/>
</svg>
