<?xml version="1.0" encoding="utf-8"?>
<!-- Generator: Adobe Illustrator 24.1.3, SVG Export Plug-In . SVG Version: 6.00 Build 0)  -->
<svg version="1.1" id="Слой_1" xmlns="http://www.w3.org/2000/svg" xmlns:xlink="http://www.w3.org/1999/xlink" x="0px" y="0px"
	 viewBox="0 0 923 181.3" style="enable-background:new 0 0 923 181.3;" xml:space="preserve">
<style type="text/css">
	.st0{fill:#3A3A3A;}
</style>
<g>
	<g transform="matrix(.13333 0 0 -.13333 0 157.159)">
		<path class="st0" d="M1911.5,474.9l66.4,66.4h-136v161.5h-71.8V192.9c0-72.8,41.9-131.7,125.7-131.7h50.9v61.9h-37.9
			c-45.9,0-66.9,26.9-66.9,71.9v280L1911.5,474.9L1911.5,474.9z M5631.5,215.2v556.9h-127.6V207.3c0-72.6,44.2-146.3,149.2-146.3
			h72.6v108h-49.1C5644.3,169.1,5631.5,184.8,5631.5,215.2L5631.5,215.2z M6788.6,572.6l-82.5-316.1l-105,316.1h-93.3l-104.1-316.1
			l-82.5,316.1h-135.5l157.1-511.5h105l107,321l107-321h105l156.1,511.5L6788.6,572.6L6788.6,572.6z M6028.6,192.6
			c-14.7-14.7-34.4-22.6-59.9-22.6s-44.2,7.9-58.9,22.6c-26.5,26.5-29.5,71.7-29.5,124.7s2.9,97.2,29.5,123.7
			c14.7,14.7,33.4,22.6,58.9,22.6s45.2-7.9,59.9-22.6c26.5-26.5,29.5-70.7,29.5-123.7C6058,264.3,6055.1,219.1,6028.6,192.6z
			 M5968.7,578.4c-75.6,0-126.6-29.4-158.1-62.8c-46.1-48.1-57.9-106-57.9-198.3c0-93.3,11.8-151.2,57.9-199.3
			c31.4-33.4,82.5-62.8,158.1-62.8s127.6,29.4,159,62.8c46.1,48.1,57.9,106,57.9,199.3c0,92.3-11.8,150.2-57.9,198.3
			C6096.3,549,6044.3,578.4,5968.7,578.4z M5221.4,625.9V61.6H5349v403.3h94.2v97.2H5349v56c0,29.5,14.7,46.1,45.1,46.1h49.1v108
			h-72.7C5266.5,772.1,5221.4,698.5,5221.4,625.9z M4932.4,523.5v49.1h-124.7V61.1h127.6v308.3c0,64.8,43.2,94.2,82.5,94.2
			c31.4,0,47.7-10.4,67.3-30.1l96.6,96.8c-35.3,35.3-70.7,48.1-120.8,48.1C5006.1,578.4,4957,552.9,4932.4,523.5L4932.4,523.5z
			 M4424.1,364.4c1,22.6,3.9,36.3,11.8,55c13.7,30.4,42.2,53,85.4,53s71.7-22.6,85.4-53c7.9-18.7,10.8-32.4,11.8-55H4424.1z
			 M4521.3,578.4c-132.5,0-222.8-94.2-222.8-261.1c0-207.1,115.8-262.1,236.6-262.1c92.3,0,142.4,28.5,194.4,80.5l-77.6,75.6
			c-32.4-32.4-59.9-48.1-115.9-48.1c-71.7,0-111.9,48.1-111.9,113.9h320V334C4744.2,474.4,4663.7,578.4,4521.3,578.4L4521.3,578.4z
			 M4169.7,572.6l-103.1-316.1l-104.1,316.1H3828l188.5-511.5h100.1l187.5,511.5L4169.7,572.6L4169.7,572.6z M3672.8,192.6
			c-14.7-14.7-34.4-22.6-59.9-22.6s-44.2,7.9-58.9,22.6c-26.5,26.5-29.5,71.7-29.5,124.7s2.9,97.2,29.5,123.7
			c14.7,14.7,33.4,22.6,58.9,22.6s45.2-7.9,59.9-22.6c26.5-26.5,29.5-70.7,29.5-123.7C3702.2,264.3,3699.3,219.1,3672.8,192.6z
			 M3612.9,578.4c-75.6,0-126.6-29.4-158.1-62.8c-46.1-48.1-57.9-106-57.9-198.3c0-93.3,11.8-151.2,57.9-199.3
			c31.4-33.4,82.5-62.8,158.1-62.8s127.6,29.4,159,62.8c46.1,48.1,57.9,106,57.9,199.3c0,92.3-11.8,150.2-57.9,198.3
			C3740.5,549,3688.5,578.4,3612.9,578.4z M3275.3,552.9h-89.6l-222.6-216.7l0.3,435.6h-71.9V61.2h71.9l-0.3,179.2l87.2,87.5
			L3215,61.2h88.8l-203.7,316.4L3275.3,552.9z M2660,494.3c46.9,0,75.8-14,112.8-54.9c0,0,48.1,46.8,47.7,47.2
			c-50.4,53.9-93.1,71.6-160.5,71.6c-123.7,0-217.6-83.8-217.6-251.5c0-167.6,93.8-251.5,217.6-251.5c67.9,0,110.8,18,161.7,72.8
			l-48.9,46.9C2735.9,134,2706.9,119,2660,119c-47.9,0-87.8,19-113.8,55.9c-23,31.9-31.9,69.9-31.9,131.7c0,61.9,9,99.8,31.9,131.7
			C2572.1,475.3,2612.1,494.3,2660,494.3L2660,494.3z M2306.7,234.8c0-40.9-8-68.9-25-84.8c-30.9-29.9-67.9-32.9-109.8-32.9
			c-77.8,0-112.8,26.9-112.8,83.8c0,56.9,35.9,86.8,109.8,86.8h137.7v-52.9H2306.7z M2182,558.1c-78.8,0-128.4-15.5-171.9-70.6
			c-0.6-0.7,47.1-47.2,47.1-47.2c28.9,40.9,60.9,55.9,123.7,55.9c89.8,0,125.7-35.9,125.7-107.8v-46.9h-147.7
			c-109.8,0-169.6-55.9-169.6-141.7c0-38.9,13-75.8,36.9-99.8c30.9-31.9,70.9-44.9,138.7-44.9c65.9,0,101.8,13,141.7,52.9V61.1h71.8
			v333.3C2378.5,501.3,2313.7,558.1,2182,558.1L2182,558.1z M1567.5,337.6l-78.8,7c-61.9,5-85.8,29.9-85.8,71.9
			c0,49.9,37.9,80.8,109.8,80.8c50.9,0,95.8-12,130.7-38.9l46.9,46.9c-43.9,35.9-106.8,52.9-176.6,52.9
			c-104.8,0-180.6-53.9-180.6-143.7c0-80.8,50.9-123.7,146.7-131.7l80.8-7c56.9-5,81.8-28.9,81.8-71.9c0-57.9-49.9-86.8-130.7-86.8
			c-60.9,0-113.8,16-152.7,56.9l-47.9-47.9c53.9-51.9,118.7-70.8,201.6-70.8c118.7,0,199.6,54.9,199.6,149.7
			C1712.2,296.7,1653.4,329.6,1567.5,337.6"/>
		<path class="st0" d="M969.9-59.7v364h121.3V-181H0v485.3h121.3v-364H969.9"/>
		<path class="st0" d="M242.8,61.6h606.6v121.3H242.8V61.6z M786.5,1178.7l-97.4-72.4l362-486.8l97.4,72.4L786.5,1178.7z
			 M485.5,891.8l466.1-388.2l77.6,93.2L563.1,985L485.5,891.8z M333.4,622l549.9-256.1l51.2,110L384.6,732L333.4,622z M254.8,337.7
			l593.7-124.8l25,118.7L279.8,456.4L254.8,337.7"/>
	</g>
</g>
</svg>
