<svg width="40" height="41" viewBox="0 0 40 41" fill="none" xmlns="http://www.w3.org/2000/svg">
<g clip-path="url(#clip0_3710_9335)">
<g clip-path="url(#clip1_3710_9335)">
<path d="M32.4397 29.3236C29.2673 25.8036 26.0949 22.2833 22.9253 18.7609C22.4615 19.1708 22.0007 19.5781 21.5396 19.988C24.6409 23.4323 27.7452 26.8766 30.8464 30.3186C30.9033 30.3825 30.9603 30.4441 31.0172 30.5082L27.0112 30.5082L19.3946 21.8927C18.9308 22.3026 18.4672 22.7148 18.0061 23.1244C19.8356 25.1901 21.6622 27.2582 23.4888 29.3239C24.3283 30.2714 25.1648 31.219 26.004 32.1666L35.0006 32.1666C34.1441 31.219 33.2907 30.2714 32.44 29.3239L32.4397 29.3236ZM9.31085 10.4911L12.9839 10.4911L16.0796 13.9259C17.4823 15.4823 18.885 17.0409 20.2877 18.5973C20.7487 18.1874 21.2095 17.7801 21.6705 17.3702C19.1071 14.5254 16.5434 11.6804 13.98 8.83301L5.37012 8.83301C7.79428 11.576 10.2184 14.317 12.6426 17.06C14.0196 18.6141 15.3938 20.1678 16.7681 21.7219C17.2288 21.312 17.6899 20.9024 18.1537 20.4925L9.31085 10.4911Z" fill="#151514"/>
<path d="M19.394 21.8931C18.9301 22.303 18.4666 22.7153 18.0055 23.1249C15.6751 25.1906 13.345 27.2586 11.0149 29.3243C9.94796 30.2719 8.88101 31.2195 7.81127 32.167L5 32.167C6.06695 31.2195 7.13391 30.2719 8.20364 29.3243C9.68587 28.0073 11.1712 26.69 12.6537 25.373C14.0252 24.1554 15.3966 22.9402 16.768 21.7226C17.2288 21.3127 17.6899 20.9031 18.1537 20.4932L19.3943 21.8931H19.394Z" fill="#151514"/>
<path d="M34.1151 8.83301C30.3851 12.1423 26.6548 15.4516 22.9248 18.7609C22.4609 19.1708 22.0002 19.5781 21.5391 19.988C21.1235 19.5261 20.7055 19.0618 20.2871 18.5976C20.7482 18.1877 21.2089 17.7804 21.67 17.3705C24.8764 14.5254 28.0832 11.6781 31.2896 8.83301L34.1148 8.83301H34.1151Z" fill="#151514"/>
</g>
</g>
<defs>
<clipPath id="clip0_3710_9335">
<rect width="40" height="40" fill="white" transform="translate(0 0.5)"/>
</clipPath>
<clipPath id="clip1_3710_9335">
<rect width="30" height="23.3333" fill="white" transform="translate(5 8.83301)"/>
</clipPath>
</defs>
</svg>
