<?xml version="1.0" encoding="utf-8"?>
<!-- Generator: Adobe Illustrator 24.1.3, SVG Export Plug-In . SVG Version: 6.00 Build 0)  -->
<svg version="1.1" id="Слой_1" xmlns="http://www.w3.org/2000/svg" xmlns:xlink="http://www.w3.org/1999/xlink" x="0px" y="0px"
	 viewBox="0 0 1478.3 252.5" style="enable-background:new 0 0 1478.3 252.5;" xml:space="preserve">
<style type="text/css">
	.st0{fill:#3A3A3A;}
</style>
<path class="st0" d="M32.3,4.5c14.3,0.1,24.2,13.2,25,27.9c0.1,1.5,0,3,0,4.5c0.4,36.7,0.4,36.7,36.6,36.7c13.6,0,27.2-0.3,40.8,0.1
	c18.1,0.5,29.1,11.4,28.8,27.9c-0.3,15.3-11.7,25.9-28.9,26.1c-21.7,0.2-43.3,0.4-65-0.1c-8.5-0.2-12,1.4-12.7,11.3
	C55.6,159,67.8,176.5,91.3,174c14.9-1.6,30.2-0.5,45.3-0.2c20.6,0.4,32.9,11.5,33.1,29.3c0.1,18-11.6,29.8-32.3,30
	c-20.6,0.2-41.2,1.6-61.8-1.3c-34.2-4.8-57.1-22.5-69.7-52.7C4.8,176.4,0,164.7,0,146c0-35.8,0-71.7,0-107.5C0,35,0.1,23.8,3.5,17.8
	C8,9.7,16.5,4.4,32.3,4.5z"/>
<path class="st0" d="M178.9,127.8c0-10.1-0.3-20.2,0.1-30.2c0.6-16.7,11.9-27.5,27.8-27.2c15.5,0.3,26,10.8,26.3,27
	c0.3,17.1-0.1,34.3,0.1,51.4c0.2,18.2,10,29.1,25.7,29c15.9-0.1,25.3-10.5,25.6-29.1c0.3-16.6-0.1-33.3,0.2-49.9
	c0.4-18,11.2-28.7,28.1-28.3c15.6,0.3,26,11.6,26.2,28.8c0.2,16.6-0.1,33.3,0.1,49.9c0.3,18.2,10.2,28.9,26,28.6
	s25.3-10.9,25.5-29.2c0.2-17.1-0.2-34.3,0.1-51.4c0.3-15.4,10.5-25.9,25-26.6c14.4-0.7,28.2,8.9,28.5,23.1
	c0.5,25.6,3.9,51.5-1.9,76.8c-12.5,54.7-74.9,79.8-121.2,48.8c-7.5-5-11.7-5-19.2,0c-25.5,17.1-53.1,18.3-80,4
	c-27.2-14.6-42.1-38.1-43-69.6C178.7,145,178.9,136.4,178.9,127.8z"/>
<path class="st0" d="M893.4,169c6.3,14.7,18.6,16,30.5,16.4c17.1,0.7,34.3,0,51.5,0.3c15.4,0.2,25.3,8.5,26.3,21.4
	s-9.3,25.3-24.3,25.7c-26.1,0.7-52.7,3.5-78.4-2.5c-43.2-10-67.6-45.4-65.3-86.2c2.5-45.6,33-72.2,78-73.8
	c32.4-1.2,61.2,5.4,81.8,32.8c3.9,5.2,7.4,10.9,9.7,16.9c12.4,31.4,1.8,47-31.8,47.1c-24.7,0-49.5,0.1-74.2,0.2
	C896.4,167.3,895.6,168,893.4,169z M921.1,128.5c6.1,0,12.1,0.2,18.2-0.1c2.8-0.1,6.6,1.2,7.8-2.6c1.3-4.2-2.3-6.7-5.1-8.3
	c-12.2-7-24.9-7.2-37.6-1.4c-4,1.8-9.3,4.2-7.5,9.7c1.6,4.9,7,2.3,10.7,2.7C912,128.9,916.5,128.5,921.1,128.5z"/>
<path class="st0" d="M539.7,93.2c0-19.2-0.2-38.3,0.1-57.5c0.3-18.8,12.5-31.5,29.6-31.4c15.9,0.1,28.2,12.8,29.1,30.6
	c0.4,8.5,0.8,17.2-0.1,25.7c-1.1,11,3.6,13.9,13.8,13.2c11.5-0.8,23.2-0.5,34.8,0c15.7,0.7,27.3,12.3,27.5,26.7
	c0.2,14.9-11.9,26.8-28.3,27.2c-12.6,0.3-25.2,0.3-37.8,0c-7-0.2-9.5,2.3-9.9,9.5c-1.5,25.7,8.1,36.4,33.6,36.6
	c9.5,0.1,19.1-1.4,28.4,2.4c13,5.3,20.8,14.6,20,28.8c-0.7,13.4-8.2,23.1-21.4,26c-66.1,14.2-120.5-26.7-119.3-87.8
	C539.9,126.4,539.7,109.8,539.7,93.2z"/>
<path class="st0" d="M688.2,92c0-18.1-0.3-36.3,0.1-54.4c0.4-20.1,12.4-33.3,29.5-33.3c17.4,0,28.7,13.2,29.6,33.1
	c0.5,11.8-5.7,27.5,3.3,34.3c7.5,5.6,22.3,1.7,33.8,1.9c3,0.1,6.1-0.1,9.1,0c17.4,0.7,29.9,12.6,29.4,27.8
	c-0.4,14.8-12.7,25.9-29.3,26.2c-12.1,0.2-24.2,0.4-36.3-0.1c-8-0.3-9.9,2.9-10.4,10.5c-1.6,22.5,9.5,38.4,34.7,35.8
	c8.8-0.9,18-1.3,26.9,2.1c13.2,5.1,20.8,14.4,20.4,28.5c-0.4,13.4-8,23.7-21,26.4c-62.6,13-117-20.6-119.7-84.4
	C687.6,128.3,688.2,110.1,688.2,92z"/>
<path class="st0" d="M1022.6,175.6c-1.1-25.9-1.1-51.4,17.4-72.9c14.2-16.4,31.5-26.9,53.1-28.5c15.5-1.2,31.3-0.9,46.9-0.4
	c16.3,0.5,26.3,11.3,26.3,27c0,15.5-10.2,26.2-26.4,26.8c-11.6,0.5-23.2,0-34.8,0.1c-19.4,0.3-28.6,9-29.2,28.7
	c-0.5,15.1-0.6,30.3,0,45.4c0.8,20.9-13.9,30-26.3,31c-15.2,1.2-26.6-12.8-26.9-31.5C1022.5,192.7,1022.6,184.1,1022.6,175.6z"/>
<path class="st0" d="M520.8,151.2c0,17.1,0.2,34.2,0,51.3c-0.2,16.8-13.6,30.8-28.9,30.5c-14.7-0.3-28.2-13.7-28.4-29.8
	c-0.4-34.7-0.5-69.4,0-104.1c0.2-17.8,12.8-29.2,29.9-28.7c16.3,0.4,27.1,11.9,27.4,29.5C521,117,520.8,134.1,520.8,151.2z"/>
<path class="st0" d="M520.8,29.4c0,16.3-12.1,28.4-28.4,28.3c-16.1,0-28.8-12.3-29-28.2c-0.2-16.5,13-29.7,29.5-29.3
	C508.8,0.5,520.8,13,520.8,29.4z"/>
<path class="st0" d="M1382.1,10c3.1,0,6.1,0,9.2,0c0.2,0.3,0.4,0.2,0.7,0.2c15.1,1.4,28,7.5,38.7,18.3c0.6,0.6,1.1,0.7,1.9,0.6
	c12.1-2.6,23.6-6.7,34.4-12.7c1-0.6,2.1-1.1,3.1-1.7c-4.6,14.4-13.4,25.4-26.1,33.5c10.9-1.3,21.4-4,31.5-8.1c0.9-0.4,1.7-1,2.8-1
	l0,0c-0.2,0.4-0.4,0.7-0.6,1.1c-7.8,11.2-17.1,20.9-28,29c-1.1,0.8-1.5,1.7-1.5,3.1c0.7,15-0.9,29.9-4.3,44.5
	c-6.8,29-19.8,55-39.3,77.7c-13.6,15.8-29.6,28.6-48,38.4c-14.1,7.5-29,12.7-44.7,15.9c-9.5,1.9-19,3.3-28.7,3.5
	c-12.1,0.4-24.1,0.1-36.1-1.8c-15.1-2.4-29.6-6.7-43.6-12.9c-8-3.5-15.7-7.7-23.1-12.4c0.2-0.3,0.5-0.2,0.8-0.1
	c13.8,1.4,27.5,0.7,41-2.4c17.4-4,33.2-11.4,47.3-22.2c0.3-0.2,0.7-0.4,0.8-0.9c-0.2,0-0.4-0.1-0.6-0.1c-5.8-0.2-11.5-1.2-17.1-3.1
	c-18.9-6.6-31.8-19.4-38.7-38.2c-0.4-1-0.2-1.2,0.8-1c6.9,1.2,13.8,1.2,20.7,0c1.7-0.3,3.5-0.6,5.1-1.3c-14.2-3.3-25.9-10.4-35-21.7
	s-13.5-24.3-13.5-39c8.6,4.6,17.6,7.2,27.2,7.5c-0.3-0.4-0.6-0.6-0.9-0.8c-2.1-1.5-4.2-3.1-6.1-4.9c-16-15.4-22.2-34.1-18.7-56
	c1.1-6.7,3.5-12.9,6.7-18.9c0.5-0.8,0.7-0.8,1.2-0.1c0.8,1,1.6,2,2.5,3c19.5,22.3,43,38.9,70.7,49.4c16.5,6.2,33.5,9.7,51.1,10.8
	c1.1,0.1,1.2-0.3,1-1.2c-1.7-8.1-1.8-16.2-0.2-24.3c4.7-24.7,24.6-44.3,49.3-48.6C1377.9,10.6,1380,10.3,1382.1,10z"/>
</svg>
