<svg width="19" height="19" viewBox="0 0 19 19" fill="none" xmlns="http://www.w3.org/2000/svg">
<path d="M11.875 2.41675C11.4608 2.41675 11.125 2.75253 11.125 3.16675C11.125 3.58096 11.4608 3.91675 11.875 3.91675V2.41675ZM14.25 3.16675V3.91675V3.16675ZM15.8333 4.75008H15.0833V4.75008L15.8333 4.75008ZM15.8333 14.2501H16.5833H15.8333ZM14.25 15.8334V16.5834V15.8334ZM11.875 15.0834C11.4608 15.0834 11.125 15.4192 11.125 15.8334C11.125 16.2476 11.4608 16.5834 11.875 16.5834V15.0834ZM8.178 12.1364C7.88511 12.4293 7.88511 12.9042 8.178 13.1971C8.4709 13.49 8.94577 13.49 9.23866 13.1971L8.178 12.1364ZM11.875 9.50008L12.4053 10.0304C12.546 9.88976 12.625 9.69899 12.625 9.50008C12.625 9.30117 12.546 9.1104 12.4053 8.96975L11.875 9.50008ZM9.23866 5.80308C8.94577 5.51019 8.4709 5.51019 8.178 5.80308C7.88511 6.09598 7.88511 6.57085 8.178 6.86374L9.23866 5.80308ZM2.375 8.75008C1.96079 8.75008 1.625 9.08587 1.625 9.50008C1.625 9.91429 1.96079 10.2501 2.375 10.2501V8.75008ZM11.875 3.91675H14.25V2.41675H11.875V3.91675ZM15.0833 4.75008L15.0833 14.2501H16.5833L16.5833 4.75008L15.0833 4.75008ZM14.25 15.0834H11.875V16.5834H14.25V15.0834ZM15.0833 14.2501C15.0833 14.7103 14.7102 15.0834 14.25 15.0834V16.5834C15.5387 16.5834 16.5833 15.5387 16.5833 14.2501H15.0833ZM14.25 3.91675C14.7102 3.91675 15.0833 4.28984 15.0833 4.75008H16.5833C16.5833 3.46142 15.5387 2.41675 14.25 2.41675V3.91675ZM9.23866 13.1971L12.4053 10.0304L11.3447 8.96975L8.178 12.1364L9.23866 13.1971ZM12.4053 8.96975L9.23866 5.80308L8.178 6.86374L11.3447 10.0304L12.4053 8.96975ZM11.875 8.75008H2.375V10.2501H11.875V8.75008Z" fill="#352E31"/>
</svg>
