<?xml version="1.0" encoding="utf-8"?>
<!-- Generator: Adobe Illustrator 21.0.0, SVG Export Plug-In . SVG Version: 6.00 Build 0)  -->
<svg version="1.1" id="Слой_1" xmlns="http://www.w3.org/2000/svg" xmlns:xlink="http://www.w3.org/1999/xlink" x="0px" y="0px"
	 viewBox="0 0 424 424" style="enable-background:new 0 0 424 424;" xml:space="preserve">
<style type="text/css">
	.st0{fill:#FCB91D;}
</style>
<path class="st0" d="M167.3,297.1c-1.6,0-3.2-0.6-4.5-1.7l-45.3-38.6c-1.6-1.3-2.5-3.3-2.5-5.3c0-2.1,0.9-4,2.5-5.3l45.3-38.6
	c2.9-2.5,7.4-2.2,9.9,0.8c2.5,2.9,2.2,7.4-0.8,9.9l-39,33.2l39,33.2c2.9,2.5,3.3,6.9,0.8,9.9C171.2,296.3,169.3,297.1,167.3,297.1z"
	/>
<path class="st0" d="M256.7,297.1c-2,0-3.9-0.8-5.3-2.5c-2.5-2.9-2.2-7.4,0.8-9.9l39-33.2l-39-33.2c-2.9-2.5-3.3-6.9-0.8-9.9
	c2.5-2.9,6.9-3.3,9.9-0.8l45.3,38.6c1.6,1.3,2.5,3.3,2.5,5.3c0,2.1-0.9,4-2.5,5.3l-45.3,38.6C259.9,296.6,258.3,297.1,256.7,297.1z"
	/>
<path class="st0" d="M196,326.1c-0.5,0-1-0.1-1.5-0.2c-3.8-0.8-6.2-4.5-5.4-8.3l28.2-134c0.8-3.8,4.5-6.2,8.3-5.4
	c3.8,0.8,6.2,4.5,5.4,8.3l-28.2,134C202.1,323.8,199.2,326.1,196,326.1z"/>
<path class="st0" d="M377,399.1H47c-25.9,0-47-21.1-47-47V72c0-25.9,21.1-47,47-47h330c25.9,0,47,21.1,47,47v280.1
	C424,378,402.9,399.1,377,399.1z M47,39c-18.2,0-33,14.8-33,33v280.1c0,18.2,14.8,33,33,33h330c18.2,0,33-14.8,33-33V72
	c0-18.2-14.8-33-33-33H47z"/>
<path class="st0" d="M417,137.1H7c-3.9,0-7-3.1-7-7c0-3.9,3.1-7,7-7h410c3.9,0,7,3.1,7,7C424,134,420.9,137.1,417,137.1z"/>
<path class="st0" d="M119.6,103.6c-12.2,0-22.2-9.9-22.2-22.2c0-12.2,9.9-22.2,22.2-22.2c12.2,0,22.2,9.9,22.2,22.2
	C141.8,93.7,131.8,103.6,119.6,103.6z M119.6,73.3c-4.5,0-8.2,3.7-8.2,8.2s3.7,8.2,8.2,8.2c4.5,0,8.2-3.7,8.2-8.2
	S124.1,73.3,119.6,73.3z"/>
<path class="st0" d="M51.5,103.4c-12.2,0-22.2-9.9-22.2-22.2s9.9-22.2,22.2-22.2S73.7,69,73.7,81.2S63.8,103.4,51.5,103.4z
	 M51.5,73.1c-4.5,0-8.2,3.7-8.2,8.2c0,4.5,3.7,8.2,8.2,8.2c4.5,0,8.2-3.7,8.2-8.2C59.7,76.7,56,73.1,51.5,73.1z"/>
<path class="st0" d="M187.7,103.8c-12.2,0-22.1-9.9-22.1-22.2c0-12.2,9.9-22.1,22.1-22.1c12.2,0,22.2,9.9,22.2,22.1
	C209.8,93.9,199.9,103.8,187.7,103.8z M187.7,73.5c-4.5,0-8.1,3.7-8.1,8.2s3.7,8.2,8.1,8.2c4.5,0,8.2-3.7,8.2-8.2
	S192.2,73.5,187.7,73.5z"/>
</svg>
