<svg width="40" height="41" viewBox="0 0 40 41" fill="none" xmlns="http://www.w3.org/2000/svg">
<g clip-path="url(#clip0_3710_9344)">
<path d="M16.8885 24.703L24.963 20.4995L16.8885 16.296L16.8885 24.703ZM34.8732 13.7319C35.0755 14.3905 35.2155 15.2732 35.3089 16.3941C35.4178 17.5151 35.4644 18.4819 35.4644 19.3225L35.5578 20.4995C35.5578 23.5681 35.3089 25.8239 34.8732 27.2671C34.4843 28.5282 33.5819 29.3408 32.1818 29.6911C31.4505 29.8733 30.1126 29.9994 28.059 30.0834C26.0365 30.1815 24.1851 30.2236 22.4738 30.2236L20.0001 30.3076C13.4814 30.3076 9.42085 30.0834 7.8184 29.6911C6.41821 29.3408 5.51586 28.5282 5.12692 27.2671C4.92467 26.6086 4.78465 25.7258 4.69131 24.6049C4.5824 23.484 4.53573 22.5172 4.53573 21.6765L4.44238 20.4995C4.44238 17.431 4.69131 15.1751 5.12692 13.7319C5.51586 12.4709 6.41821 11.6582 7.8184 11.3079C8.54961 11.1258 9.88758 10.9997 11.9412 10.9156C13.9637 10.8175 15.8151 10.7755 17.5264 10.7755L20.0001 10.6914C26.5188 10.6914 30.5793 10.9156 32.1818 11.3079C33.5819 11.6582 34.4843 12.4709 34.8732 13.7319Z" fill="#151514"/>
</g>
<defs>
<clipPath id="clip0_3710_9344">
<rect width="40" height="40" fill="white" transform="translate(0 0.5)"/>
</clipPath>
</defs>
</svg>
