<svg xmlns="http://www.w3.org/2000/svg" width="18" height="18" viewBox="0 0 24 24" fill="none">
    <path d="M13 11C13 10.4477 12.5523 10 12 10C11.4477 10 11 10.4477 11 11V13H9C8.44772 13 8 13.4477 8 14C8 14.5523 8.44772 15 9 15H11V17C11 17.5523 11.4477 18 12 18C12.5523 18 13 17.5523 13 17V15H15C15.5523 15 16 14.5523 16 14C16 13.4477 15.5523 13 15 13H13V11Z" fill="#002434"/>
    <path fill-rule="evenodd" clip-rule="evenodd" d="M6 1C5.20435 1 4.44129 1.31607 3.87868 1.87868C3.31607 2.44129 3 3.20435 3 4V20C3 20.7957 3.31607 21.5587 3.87868 22.1213C4.44129 22.6839 5.20435 23 6 23H18C18.7957 23 19.5587 22.6839 20.1213 22.1213C20.6839 21.5587 21 20.7957 21 20V8C21 7.73478 20.8946 7.48043 20.7071 7.29289L14.7071 1.29289C14.5196 1.10536 14.2652 1 14 1H6ZM5.29289 3.29289C5.48043 3.10536 5.73478 3 6 3H13V8C13 8.55228 13.4477 9 14 9H19V20C19 20.2652 18.8946 20.5196 18.7071 20.7071C18.5196 20.8946 18.2652 21 18 21H6C5.73478 21 5.48043 20.8946 5.29289 20.7071C5.10536 20.5196 5 20.2652 5 20V4C5 3.73478 5.10536 3.48043 5.29289 3.29289ZM17.5858 7L15 4.41421V7H17.5858Z" fill="#002434"/>
</svg>
