<svg xmlns="http://www.w3.org/2000/svg" width="18" height="18" viewBox="0 0 24 24" fill="none"><path d="M.695 2.057a1.04 1.04 0 0 0-.567.459L.02 2.7.009 5.412c-.007 1.76.003 2.765.03 2.864.06.222.251.463.469.591.186.109.213.113.842.126l.649.014.011 6.146.01 6.147.111.189c.125.213.318.375.539.454.223.08 18.437.08 18.66 0 .221-.079.414-.241.539-.454l.111-.189.01-6.147.011-6.146.649-.014c.629-.013.656-.017.842-.126.218-.128.409-.369.469-.591.027-.099.037-1.104.03-2.864L23.98 2.7l-.108-.184a1.02 1.02 0 0 0-.582-.461C23.027 1.976.948 1.978.695 2.057M22 5.5V7H2V4h20v1.5m-2 9V20H4V9h16v5.5M9.695 11.057a1.04 1.04 0 0 0-.567.459c-.091.156-.108.23-.108.484 0 .256.016.328.111.489.125.213.318.375.539.454.219.078 4.441.078 4.66 0 .221-.079.414-.241.539-.454.095-.161.111-.233.111-.489 0-.254-.017-.328-.108-.484a1.02 1.02 0 0 0-.582-.461c-.257-.077-4.347-.076-4.595.002" fill-rule="evenodd" fill="#002434"/></svg>
