<svg xmlns="http://www.w3.org/2000/svg" width="18" viewBox="0 0 24 24" height="18" fill="none" stroke="currentColor" stroke-width="2" stroke-linecap="round" stroke-linejoin="round">
    <path d="m11.28 1.023-.56.06c-2.934.311-5.738 1.931-7.549 4.362-2.914 3.912-2.892 9.239.055 13.188.46.615 1.526 1.681 2.141 2.141 2.503 1.868 5.551 2.594 8.595 2.046a11.012 11.012 0 0 0 8.858-8.858c.548-3.044-.179-6.093-2.05-8.599-.454-.608-1.523-1.677-2.13-2.128-1.595-1.186-3.275-1.875-5.217-2.139C13 1.038 11.574.99 11.28 1.023m2.04 2.078c2.563.387 4.804 1.83 6.24 4.019.303.463.743 1.359.932 1.9.346.993.485 1.845.485 2.98 0 1.493-.256 2.617-.897 3.942-.256.53-.82 1.436-.987 1.587-.073.066-.303-.159-6.389-6.245L6.392 4.972l.174-.141c.604-.49 1.712-1.074 2.594-1.365.705-.233 1.272-.348 2.18-.442.322-.033 1.571.015 1.98.077m4.279 15.939c-.001.011-.14.12-.31.243a9.02 9.02 0 0 1-10.919-.264c-1.513-1.212-2.648-2.99-3.103-4.859-.186-.763-.244-1.272-.244-2.16 0-1.135.139-1.987.485-2.98.277-.793.875-1.902 1.323-2.454l.141-.174 6.314 6.314c3.473 3.473 6.314 6.323 6.313 6.334" fill="#002434" fill-rule="evenodd" stroke="none"/>
</svg>
