<svg xmlns="http://www.w3.org/2000/svg" width="18" height="18" viewBox="0 0 24 24" fill="none">
    <path d="M5.89483 22.9961C4.05498 23.0469 2.67608 22.4023 1.7542 21.0703C0.836233 19.7344 0.42217 18.0938 0.512014 16.1406C0.558889 14.7109 0.812795 13.1641 1.27373 11.5C1.77764 9.78516 2.51592 8.02344 3.48076 6.21484C4.49248 4.40625 5.71123 2.66797 7.13701 1L9.41826 2.78516C8.8167 3.5 8.17608 4.5 7.48467 5.78516C6.84014 7.07031 6.28936 8.45313 5.82842 9.92578C5.36748 11.3555 5.13701 12.7383 5.13701 14.0703C5.46123 13.9766 5.71123 13.9258 5.89483 13.9258C6.12529 13.8789 6.3792 13.8555 6.65655 13.8555C7.75811 13.8555 8.72686 14.2109 9.55498 14.9258C10.3831 15.6406 10.7737 16.6875 10.7269 18.0703C10.68 19.4492 10.1995 20.6172 9.27764 21.5703C8.35967 22.5195 7.23076 22.9961 5.89483 22.9961ZM18.7347 22.9961C16.848 23.0469 15.4456 22.4023 14.5237 21.0703C13.6487 19.7344 13.2347 18.0938 13.2815 16.1406C13.3284 14.7109 13.6019 13.1641 14.1097 11.5C14.6175 9.78516 15.3519 8.02344 16.3167 6.21484C17.2855 4.40625 18.4808 2.66797 19.9065 1L22.1839 2.78516C21.5862 3.5 20.9651 4.5 20.3206 5.78516C19.6761 7.07031 19.1253 8.45313 18.6644 9.92578C18.2034 11.3555 17.9534 12.7383 17.9065 14.0703C18.2269 13.9766 18.5042 13.9258 18.7347 13.9258C18.9651 13.8789 19.1956 13.8555 19.4261 13.8555C20.5745 13.8555 21.5394 14.2109 22.3245 14.9258C23.1526 15.6406 23.5433 16.6875 23.4964 18.0703C23.4495 19.4492 22.969 20.6172 22.0472 21.5703C21.1722 22.5195 20.0667 22.9961 18.7347 22.9961Z" fill="#002434"/>
</svg>
