<svg xmlns="http://www.w3.org/2000/svg" width="18" height="18" viewBox="0 0 20 20" fill="none">
    <path fill-rule="evenodd" clip-rule="evenodd" d="M13.3337 0.833496C13.7939 0.833496 14.167 1.20659 14.167 1.66683V2.50016H15.8337C17.2144 2.50016 18.3337 3.61945 18.3337 5.00016V16.6668C18.3337 18.0475 17.2144 19.1668 15.8337 19.1668H4.16699C2.78628 19.1668 1.66699 18.0475 1.66699 16.6668V5.00016C1.66699 3.61945 2.78628 2.50016 4.16699 2.50016H5.83366V1.66683C5.83366 1.20659 6.20676 0.833496 6.66699 0.833496C7.12723 0.833496 7.50033 1.20659 7.50033 1.66683V2.50016H12.5003V1.66683C12.5003 1.20659 12.8734 0.833496 13.3337 0.833496ZM5.83366 4.16683V5.00016C5.83366 5.4604 6.20676 5.8335 6.66699 5.8335C7.12723 5.8335 7.50033 5.4604 7.50033 5.00016V4.16683H12.5003V5.00016C12.5003 5.4604 12.8734 5.8335 13.3337 5.8335C13.7939 5.8335 14.167 5.4604 14.167 5.00016V4.16683H15.8337C16.2939 4.16683 16.667 4.53993 16.667 5.00016V7.50016H3.33366V5.00016C3.33366 4.53993 3.70675 4.16683 4.16699 4.16683H5.83366ZM16.667 9.16683V16.6668C16.667 17.1271 16.2939 17.5002 15.8337 17.5002H4.16699C3.70675 17.5002 3.33366 17.1271 3.33366 16.6668V9.16683H16.667Z" fill="#002434"/>
</svg>
