<svg xmlns="http://www.w3.org/2000/svg" width="18" height="18" viewBox="0 0 24 24" fill="none">
    <path d="M7 6C7 5.44772 7.44772 5 8 5H21C21.5523 5 22 5.44772 22 6C22 6.55228 21.5523 7 21 7H8C7.44772 7 7 6.55228 7 6Z" fill="#002434"/>
    <path d="M7 12C7 11.4477 7.44772 11 8 11H21C21.5523 11 22 11.4477 22 12C22 12.5523 21.5523 13 21 13H8C7.44772 13 7 12.5523 7 12Z" fill="#002434"/>
    <path d="M3 17C2.44772 17 2 17.4477 2 18C2 18.5523 2.44772 19 3 19H3.01C3.56228 19 4.01 18.5523 4.01 18C4.01 17.4477 3.56228 17 3.01 17H3Z" fill="#002434"/>
    <path d="M8 17C7.44772 17 7 17.4477 7 18C7 18.5523 7.44772 19 8 19H21C21.5523 19 22 18.5523 22 18C22 17.4477 21.5523 17 21 17H8Z" fill="#002434"/>
    <path d="M3 11C2.44772 11 2 11.4477 2 12C2 12.5523 2.44772 13 3 13H3.01C3.56228 13 4.01 12.5523 4.01 12C4.01 11.4477 3.56228 11 3.01 11H3Z" fill="#002434"/>
    <path d="M3 5C2.44772 5 2 5.44772 2 6C2 6.55228 2.44772 7 3 7H3.01C3.56228 7 4.01 6.55228 4.01 6C4.01 5.44772 3.56228 5 3.01 5H3Z" fill="#002434"/>
</svg>
