<svg xmlns="http://www.w3.org/2000/svg" width="18" height="18" viewBox="0 0 24 24" fill="none">
    <path fill-rule="evenodd" clip-rule="evenodd" d="M15.7933 6.3062C16.1929 6.71447 16.1929 7.37642 15.7933 7.78469L6.58402 17.1938C6.18441 17.6021 5.53652 17.6021 5.13691 17.1938L1.2997 13.2733C0.900098 12.8651 0.900098 12.2031 1.2997 11.7948C1.69931 11.3866 2.3472 11.3866 2.74681 11.7948L5.86047 14.976L14.3462 6.3062C14.7458 5.89792 15.3937 5.89792 15.7933 6.3062ZM22.7003 6.3062C23.0999 6.71447 23.0999 7.37642 22.7003 7.78469L13.491 17.1938C13.0914 17.6021 12.4435 17.6021 12.0439 17.1938L10.509 15.6256C10.1094 15.2173 10.1094 14.5554 10.509 14.1471C10.9086 13.7388 11.5565 13.7388 11.9561 14.1471L12.7674 14.976L21.2532 6.3062C21.6528 5.89792 22.3007 5.89792 22.7003 6.3062Z" fill="#002434"/>
</svg>
