<svg xmlns="http://www.w3.org/2000/svg" width="18" height="18" viewBox="0 0 24 24" fill="none" stroke="currentColor" stroke-width="2" stroke-linecap="round" stroke-linejoin="round">
    <path d="M14.695 2.057a1.04 1.04 0 0 0-.567.459c-.091.156-.108.23-.108.484 0 .256.016.328.111.489.125.213.318.375.539.454.117.042.564.054 2.03.055L18.58 4l-4.706 4.71c-2.588 2.59-4.739 4.773-4.779 4.85-.052.099-.074.228-.074.44-.001.258.015.327.112.492.13.222.369.409.603.473.202.054.53.024.709-.066.074-.037 2.254-2.184 4.844-4.771l4.708-4.705.012 1.942.011 1.941.121.197a.998.998 0 0 0 1.718 0l.121-.197.011-3.243c.01-2.937.005-3.259-.055-3.417a1.007 1.007 0 0 0-.516-.552l-.2-.093-3.18.002c-2.483.002-3.216.014-3.345.054M4.499 5.043C3.383 5.23 2.461 6.048 2.114 7.16l-.094.3v12.08l.094.3a3.086 3.086 0 0 0 2.046 2.046l.3.094h12.08l.3-.094a3.086 3.086 0 0 0 2.046-2.046l.094-.3V12.7l-.109-.186a1.01 1.01 0 0 0-1.742 0l-.109.186-.02 3.28c-.015 2.503-.032 3.307-.07 3.393a1.146 1.146 0 0 1-.446.499l-.184.108H4.7l-.184-.108a1.199 1.199 0 0 1-.291-.249c-.238-.312-.225.032-.225-6.101 0-6.34-.022-5.894.303-6.219.315-.315.168-.303 3.734-.305 2.521-.001 3.173-.012 3.293-.055.221-.079.414-.241.539-.454.095-.161.111-.233.111-.489 0-.254-.017-.328-.108-.484a1.209 1.209 0 0 0-.254-.295c-.295-.225-.236-.221-3.714-.216-1.762.002-3.295.02-3.405.038" fill-rule="evenodd" fill="#002434" stroke="none"/>
</svg>
