<svg xmlns="http://www.w3.org/2000/svg" width="18" height="18" viewBox="0 0 24 24" fill="none">
    <path fill-rule="evenodd" clip-rule="evenodd" d="M12.0033 23C18.0769 22.9982 23 18.074 23 12C23 5.92487 18.0751 1 12 1C5.92487 1 1 5.92487 1 12C1 18.0732 5.92174 22.9969 11.9942 23L12 23L12.0033 23ZM9.72572 3.28982C6.16881 4.21596 3.46801 7.26323 3.05493 11H7.05009C7.2743 8.23681 8.19911 5.58442 9.72572 3.28982ZM14.2743 3.28982C15.8009 5.58442 16.7257 8.23681 16.9499 11H20.9451C20.532 7.26323 17.8312 4.21596 14.2743 3.28982ZM14.9424 11C14.6912 8.28683 13.6697 5.70194 12 3.55081C10.3303 5.70194 9.30879 8.28683 9.05759 11H14.9424ZM9.05759 13H14.9424C14.6912 15.7132 13.6697 18.2981 12 20.4492C10.3303 18.2981 9.30878 15.7132 9.05759 13ZM7.05009 13H3.05493C3.46801 16.7368 6.1688 19.784 9.7257 20.7102C8.1991 18.4156 7.27429 15.7632 7.05009 13ZM14.2743 20.7102C15.8009 18.4156 16.7257 15.7632 16.9499 13H20.9451C20.532 16.7368 17.8312 19.784 14.2743 20.7102Z" fill="#002434"/>
</svg>
