<svg xmlns="http://www.w3.org/2000/svg" width="18" height="18" viewBox="0 0 24 24" fill="none">
    <path d="M11 17C11 16.4477 11.4477 16 12 16H12.01C12.5623 16 13.01 16.4477 13.01 17C13.01 17.5523 12.5623 18 12.01 18H12C11.4477 18 11 17.5523 11 17Z" fill="#002434"/>
    <path d="M10.9066 8.27126C11.3138 8.03194 11.7926 7.94446 12.2581 8.02431C12.7236 8.10416 13.1459 8.34618 13.45 8.70752C13.7542 9.06886 13.9207 9.52618 13.92 9.9985L13.92 9.99999C13.92 10.4691 13.5549 10.9582 12.8653 11.4179C12.5509 11.6275 12.2294 11.789 11.9826 11.8987C11.8606 11.9529 11.7603 11.9929 11.6929 12.0186C11.6593 12.0314 11.6341 12.0406 11.6187 12.0461L11.6027 12.0517C11.0794 12.2267 10.7968 12.7926 10.9713 13.3162C11.146 13.8402 11.7123 14.1233 12.2362 13.9487L12.2375 13.9483L12.239 13.9477L12.2429 13.9464L12.254 13.9427L12.2887 13.9305C12.3173 13.9203 12.3565 13.906 12.4049 13.8876C12.5015 13.8508 12.6356 13.7971 12.7949 13.7263C13.1105 13.586 13.5391 13.3725 13.9747 13.082C14.7849 12.5419 15.9195 11.5313 15.92 10.0009C15.9213 9.05647 15.5883 8.14204 14.9801 7.41952C14.3717 6.69685 13.5273 6.2128 12.5962 6.0531C11.6652 5.8934 10.7077 6.06836 9.89327 6.54699C9.07886 7.02562 8.46013 7.77704 8.14666 8.66815C7.96339 9.18914 8.23716 9.76005 8.75815 9.94333C9.27914 10.1266 9.85006 9.85283 10.0333 9.33184C10.1901 8.88628 10.4994 8.51057 10.9066 8.27126Z" fill="#002434"/>
    <path fill-rule="evenodd" clip-rule="evenodd" d="M1 12C1 5.92487 5.92487 1 12 1C18.0751 1 23 5.92487 23 12C23 18.0751 18.0751 23 12 23C5.92487 23 1 18.0751 1 12ZM12 3C7.02944 3 3 7.02944 3 12C3 16.9706 7.02944 21 12 21C16.9706 21 21 16.9706 21 12C21 7.02944 16.9706 3 12 3Z" fill="#002434"/>
</svg>
