<svg xmlns="http://www.w3.org/2000/svg" width="18" height="18" viewBox="0 0 24 24" fill="none">
    <path fill-rule="evenodd" clip-rule="evenodd" d="M12 23C18.0751 23 23 18.0751 23 12C23 5.92487 18.0751 1 12 1C5.92487 1 1 5.92487 1 12C1 18.0751 5.92487 23 12 23ZM12 6.90742C11.4375 6.90742 10.9815 7.36343 10.9815 7.92594C10.9815 8.48845 11.4375 8.94446 12 8.94446H12.0102C12.5727 8.94446 13.0287 8.48845 13.0287 7.92594C13.0287 7.36343 12.5727 6.90742 12.0102 6.90742H12ZM12 10.9815C12.5625 10.9815 13.0185 11.4375 13.0185 12V16.0741C13.0185 16.6366 12.5625 17.0926 12 17.0926C11.4375 17.0926 10.9815 16.6366 10.9815 16.0741V12C10.9815 11.4375 11.4375 10.9815 12 10.9815Z" fill="#002434"/>
</svg>
