<svg width="18" height="18" viewBox="0 0 24 24" fill="none" xmlns="http://www.w3.org/2000/svg">
<path d="M17.0215 1.00023C15.4402 0.986475 13.9168 1.59492 12.7793 2.69451L12.769 2.70469L11.0401 4.42508C10.6464 4.81683 10.6446 5.45384 11.0359 5.84788C11.4273 6.24192 12.0638 6.24378 12.4574 5.85203L14.1809 4.13704C14.9386 3.407 15.9521 3.00316 17.004 3.01231C18.0582 3.02147 19.0666 3.44471 19.8121 4.19085C20.5575 4.93699 20.9804 5.94633 20.9895 7.00149C20.9987 8.0539 20.5956 9.0679 19.8668 9.82625L16.8578 12.838C16.4502 13.2461 15.9596 13.5618 15.4194 13.7635C14.8792 13.9652 14.3021 14.0482 13.727 14.007C13.1519 13.9658 12.5924 13.8013 12.0865 13.5246C11.5806 13.2479 11.14 12.8656 10.7946 12.4035C10.4621 11.9585 9.83221 11.8676 9.38768 12.2004C8.94315 12.5333 8.85234 13.1638 9.18486 13.6087C9.70285 14.3018 10.3637 14.8754 11.1226 15.2904C11.8816 15.7054 12.7208 15.9522 13.5834 16.014C14.446 16.0759 15.3118 15.9513 16.122 15.6488C16.9323 15.3462 17.6681 14.8728 18.2795 14.2606L21.2948 11.2425L21.3071 11.2301C22.4056 10.0916 23.0135 8.56675 22.9998 6.98401C22.986 5.40127 22.3518 3.88725 21.2336 2.76804C20.1154 1.64883 18.6028 1.01398 17.0215 1.00023Z" fill="#002434"/>
<path d="M10.4166 7.98598C9.55402 7.92414 8.68823 8.04872 7.87797 8.35125C7.06776 8.65375 6.33189 9.12725 5.72052 9.73937L2.70519 12.7575L2.69295 12.7699C1.59437 13.9084 0.986487 15.4333 1.00023 17.016C1.01397 18.5987 1.64823 20.1128 2.76641 21.232C3.8846 22.3512 5.39722 22.986 6.97851 22.9998C8.5598 23.0135 10.0832 22.4051 11.2207 21.3055L11.2331 21.2932L12.9519 19.5728C13.3445 19.1799 13.3445 18.5429 12.9519 18.15C12.5594 17.7571 11.923 17.7571 11.5304 18.15L9.81813 19.8639C9.06047 20.5934 8.04741 20.9968 6.99598 20.9877C5.94179 20.9785 4.93337 20.5553 4.18791 19.8092C3.44246 19.063 3.01962 18.0537 3.01046 16.9985C3.00132 15.9461 3.40444 14.9321 4.13321 14.1738L7.14228 11.1619C7.54988 10.7538 8.0404 10.4382 8.58058 10.2365C9.12075 10.0348 9.69795 9.95177 10.273 9.99299C10.8481 10.0342 11.4075 10.1987 11.9135 10.4754C12.4194 10.7521 12.86 11.1344 13.2054 11.5965C13.5379 12.0415 14.1678 12.1324 14.6123 11.7996C15.0568 11.4667 15.1477 10.8362 14.8151 10.3913C14.2971 9.69816 13.6363 9.12463 12.8773 8.70962C12.1184 8.2946 11.2792 8.04781 10.4166 7.98598Z" fill="#002434"/>
</svg>
