<svg xmlns="http://www.w3.org/2000/svg" width="18" height="18" viewBox="0 0 24 24" fill="none">
    <path d="M2.5 4.5C1.94772 4.5 1.5 4.94772 1.5 5.5V9.5C1.5 10.0523 1.94772 10.5 2.5 10.5H3.5C4.05228 10.5 4.5 10.0523 4.5 9.5V5.5C4.5 4.94772 4.05228 4.5 3.5 4.5H2.5Z" fill="#002434"/>
    <path fill-rule="evenodd" clip-rule="evenodd" d="M7.5 5.5C7.5 4.94772 7.94772 4.5 8.5 4.5H21.5C22.0523 4.5 22.5 4.94772 22.5 5.5V9.5C22.5 10.0523 22.0523 10.5 21.5 10.5H8.5C7.94772 10.5 7.5 10.0523 7.5 9.5V5.5ZM9.2 8.8V6.2H20.8V8.8H9.2Z" fill="#002434"/>
    <path fill-rule="evenodd" clip-rule="evenodd" d="M7.5 14.5C7.5 13.9477 7.94772 13.5 8.5 13.5H21.5C22.0523 13.5 22.5 13.9477 22.5 14.5V18.5C22.5 19.0523 22.0523 19.5 21.5 19.5H8.5C7.94772 19.5 7.5 19.0523 7.5 18.5V14.5ZM9.2 17.8V15.2H20.8V17.8H9.2Z" fill="#002434"/>
    <path d="M1.5 14.5C1.5 13.9477 1.94772 13.5 2.5 13.5H3.5C4.05228 13.5 4.5 13.9477 4.5 14.5V18.5C4.5 19.0523 4.05228 19.5 3.5 19.5H2.5C1.94772 19.5 1.5 19.0523 1.5 18.5V14.5Z" fill="#002434"/>
</svg>
