<svg xmlns="http://www.w3.org/2000/svg" width="18" height="18" viewBox="0 0 24 24" fill="none">
    <path d="M15 2C14.4477 2 14 2.44772 14 3C14 3.55228 14.4477 4 15 4H19C19.2652 4 19.5196 4.10536 19.7071 4.29289C19.8946 4.48043 20 4.73478 20 5V19C20 19.2652 19.8946 19.5196 19.7071 19.7071C19.5196 19.8946 19.2652 20 19 20H15C14.4477 20 14 20.4477 14 21C14 21.5523 14.4477 22 15 22H19C19.7957 22 20.5587 21.6839 21.1213 21.1213C21.6839 20.5587 22 19.7957 22 19V5C22 4.20435 21.6839 3.44129 21.1213 2.87868C20.5587 2.31607 19.7957 2 19 2H15Z" fill="#002434"/>
    <path d="M9.29289 6.29289C9.68342 5.90237 10.3166 5.90237 10.7071 6.29289L15.7064 11.2922L15.7136 11.2995C15.8063 11.3938 15.8764 11.502 15.9241 11.6172C15.9727 11.7343 15.9996 11.8625 16 11.997L16 12C15.9997 12.2608 15.8964 12.5144 15.7136 12.7005L15.7064 12.7078L10.7071 17.7071C10.3166 18.0976 9.68342 18.0976 9.29289 17.7071C8.90237 17.3166 8.90237 16.6834 9.29289 16.2929L12.5858 13H3C2.44772 13 2 12.5523 2 12C2 11.4477 2.44772 11 3 11H12.5858L9.29289 7.70711C8.90237 7.31658 8.90237 6.68342 9.29289 6.29289Z" fill="#002434"/>
</svg>
