<svg width="18" height="18" viewBox="0 0 24 24" fill="none" xmlns="http://www.w3.org/2000/svg">
<path id="Vector (Stroke)" fill-rule="evenodd" clip-rule="evenodd" d="M3.99988 3C2.34759 3 0.999878 4.34772 0.999878 6V18C0.999878 19.6523 2.34759 21 3.99988 21H19.9999C21.6522 21 22.9999 19.6523 22.9999 18V6C22.9999 4.34772 21.6522 3 19.9999 3H3.99988ZM3.06366 5.65106C3.2068 5.27272 3.57457 5 3.99988 5H19.9999C20.4154 5 20.776 5.26028 20.9258 5.62504L11.9999 11.7793L3.06366 5.65106ZM2.99988 8.0333V18C2.99988 18.5477 3.45216 19 3.99988 19H19.9999C20.5476 19 20.9999 18.5477 20.9999 18V8.00402L12.5733 13.8192C12.229 14.0603 11.7707 14.0603 11.4264 13.8192L2.99988 8.0333Z" fill="#002434"/>
</svg>
