<svg xmlns="http://www.w3.org/2000/svg" width="18" height="18" viewBox="0 0 24 24" fill="none">
    <path fill-rule="evenodd" clip-rule="evenodd" d="M12 1.00204C11.4742 1.00204 10.9577 1.13974 10.5021 1.40132L7.30633 3.22105C7.09619 3.26247 6.90017 3.37064 6.75258 3.53636L3.50386 5.38622L3.5 5.38843C3.13 5.60129 2.8109 5.88986 2.56304 6.23387C2.50271 6.29402 2.44917 6.3629 2.40441 6.44C2.36586 6.50641 2.33586 6.5754 2.31407 6.64571C2.10834 7.05775 2.00048 7.51237 2 7.97427V15.9481C2.00054 16.4723 2.13941 16.9872 2.40269 17.441C2.66597 17.8949 3.04439 18.2718 3.5 18.5339L3.50386 18.5361L10.5 22.5198L10.5019 22.5208C10.8191 22.703 11.1659 22.8252 11.5248 22.8825C11.6661 22.9588 11.828 23.002 12 23.002C12.172 23.002 12.3339 22.9588 12.4753 22.8825C12.8342 22.8252 13.181 22.703 13.4982 22.5208L13.5 22.5198L20.4961 18.5361L20.5 18.5339C20.9556 18.2718 21.334 17.8949 21.5973 17.441C21.8606 16.9872 21.9995 16.4723 22 15.9481V7.97427C21.9995 7.51245 21.8917 7.05789 21.686 6.64591C21.6642 6.57553 21.6342 6.50647 21.5956 6.44C21.5508 6.36284 21.4973 6.29391 21.4369 6.23374C21.189 5.88978 20.87 5.60126 20.5 5.38842L13.5 1.40255L13.4979 1.40135C13.0424 1.13975 12.5258 1.00204 12 1.00204ZM13 20.5091L19.5 16.808L19.5016 16.8071C19.6527 16.7197 19.7783 16.5944 19.8658 16.4437C19.9535 16.2924 19.9998 16.1208 20 15.946V8.51094L13 12.5459V20.5091ZM11 12.5459L4 8.51091V15.9465C4.00026 16.121 4.04654 16.2925 4.13423 16.4437C4.22169 16.5944 4.34726 16.7197 4.49842 16.8071L4.5 16.808L11 20.5091V12.5459ZM12.5039 3.1307L18.961 6.80747L16.5052 8.22305L9.5609 4.23264L11.4961 3.1307L11.5 3.12849C11.652 3.04103 11.8245 2.99498 12 2.99498C12.1755 2.99498 12.348 3.04103 12.5 3.12849L12.5039 3.1307ZM12 10.8199L14.5065 9.37513L7.54999 5.37767L5.03899 6.80745L12 10.8199Z" fill="#002434"/>
</svg>
