<svg width="18" height="18" viewBox="0 0 24 24" fill="none" xmlns="http://www.w3.org/2000/svg">
    <path fill="#002434" fill-rule="evenodd"  d="M7.02413 1.0001C7.7539 0.994239 8.46109 1.25324 9.01443 1.72913C9.56924 2.20625 9.93154 2.86878 10.034 3.59328L10.0353 3.60251C10.0914 4.02782 10.1704 4.44945 10.2719 4.86559C10.3826 5.31958 10.52 5.76704 10.6835 6.20557C10.8861 6.74492 10.9299 7.33102 10.8096 7.89448C10.6894 8.45828 10.41 8.9758 10.0048 9.38571L10.0007 9.38973L9.28005 10.1105C10.4618 11.9645 12.0351 13.5378 13.8892 14.7196L14.6099 13.9988L14.6138 13.9949C15.0237 13.5895 15.5412 13.3102 16.1051 13.1899C16.403 13.1494 17.1578 13.118 17.7938 13.316C18.6344 13.6296 19.5077 13.8471 20.397 13.9644L20.4061 13.9655C21.1384 14.0689 21.8072 14.4378 22.2853 15.0021C22.7605 15.5629 23.0143 16.2778 22.9994 17.0124V20.0144C22.5074 23.5669 18.8491 23.2246 17.0814 22.6095C5.4224 19.7952 1.50254 9.37577 1 4.51782C1 1.70358 3.01017 1.00001 4.01526 1.00001L7.02413 1.0001ZM17.0876 15.1981C16.9078 15.1304 16.7123 15.1158 16.5244 15.1559C16.3372 15.1958 16.1654 15.2884 16.0289 15.4226L14.7548 16.6967C14.4349 17.0166 13.9406 17.0834 13.5473 16.8597C10.8738 15.3395 8.6601 13.1258 7.13983 10.4523C6.91629 10.059 6.98291 9.56469 7.30289 9.24477L8.57703 7.97062C8.71126 7.83424 8.80377 7.66238 8.84376 7.47519C8.88376 7.28725 8.86916 7.09177 8.80156 6.91191L8.8007 6.90964C8.43459 5.92847 8.18037 4.90909 8.04308 3.87087C8.00824 3.63082 7.88776 3.41145 7.70372 3.25324C7.51882 3.0942 7.2824 3.00783 7.03849 3.01025L7.02867 3.01034L4.01403 3.01028C3.87453 3.01046 3.73675 3.03963 3.60915 3.09598C3.48155 3.15236 3.36696 3.23468 3.27298 3.33774C3.24525 3.36808 3.21948 3.40001 3.1958 3.43335C3.13912 3.51325 3.09421 3.60125 3.06281 3.69456C3.01888 3.82471 3.0022 3.96243 3.01373 4.09923C3.15531 5.427 3.43689 6.73134 3.85085 7.99132C4.3556 9.52745 5.05727 10.9976 5.94237 12.364L5.94715 12.3714C6.61422 13.4211 7.38288 14.3982 8.24 15.2892C9.26398 16.3538 10.4143 17.2957 11.6684 18.0927L11.6762 18.0977C12.9635 18.9324 14.343 19.6043 15.7832 20.102C17.1127 20.5615 18.4937 20.8725 19.9013 21.0262C20.0382 21.0376 20.176 21.0207 20.3062 20.9767C20.4388 20.9319 20.5605 20.8598 20.6637 20.7652C20.7668 20.6706 20.849 20.5555 20.905 20.4272C20.9611 20.299 20.9898 20.1605 20.9893 20.0205L20.9892 20.0164V17.0012L20.9896 16.9762C20.9957 16.7298 20.911 16.4897 20.7517 16.3015C20.593 16.1144 20.3716 15.9917 20.1289 15.9566C19.3505 15.8607 17.7771 15.411 17.0876 15.1981Z"/>
</svg>
