<svg xmlns="http://www.w3.org/2000/svg" width="18" height="18" viewBox="0 0 24 24" fill="none">
    <path d="M7.02413 1.0001C7.7539 0.994239 8.46109 1.25324 9.01443 1.72913C9.56924 2.20625 9.93155 2.86879 10.034 3.59328L10.0353 3.60251C10.0914 4.02782 10.1704 4.44945 10.2719 4.86559C10.3826 5.31958 10.52 5.76704 10.6835 6.20557C10.8861 6.74493 10.9299 7.33102 10.8096 7.89449C10.6894 8.45829 10.41 8.9758 10.0048 9.38571L10.0007 9.38973L9.28006 10.1105C10.4618 11.9645 12.0351 13.5378 13.8892 14.7196L14.6099 13.9988L14.6138 13.9949C15.0237 13.5895 15.5412 13.3102 16.1051 13.1899C16.403 13.1494 17.1578 13.118 17.7938 13.3161C18.6344 13.6296 19.5077 13.8471 20.397 13.9644L20.4061 13.9656C21.1384 14.0689 21.8072 14.4378 22.2853 15.0021C22.7605 15.5629 23.0143 16.2778 22.9994 17.0124V20.0144C22.5074 23.5669 18.8491 23.2246 17.0814 22.6095C5.4224 19.7952 1.50254 9.37577 1 4.51782C1 1.70358 3.01017 1.00001 4.01526 1.00001L7.02413 1.0001Z" fill="#002434"/>
</svg>
