<svg xmlns="http://www.w3.org/2000/svg" width="18" height="18" viewBox="0 0 24 24" fill="none"><path d="m11.28 1.023-.56.06A10.685 10.685 0 0 0 7.18 2.12c-1.135.551-1.987 1.165-2.942 2.119-.961.959-1.595 1.841-2.141 2.981C.301 10.968.728 15.286 3.226 18.633c.475.636 1.527 1.683 2.174 2.164 3.964 2.948 9.266 2.937 13.237-.027.609-.454 1.679-1.524 2.133-2.133 2.974-3.985 2.974-9.289 0-13.274-.454-.608-1.523-1.677-2.13-2.128-1.595-1.186-3.275-1.875-5.217-2.139C13 1.038 11.574.99 11.28 1.023m2.04 2.078c2.563.387 4.804 1.83 6.24 4.019.303.463.743 1.359.932 1.9.346.993.485 1.845.485 2.98 0 1.493-.257 2.621-.897 3.94-.705 1.454-1.769 2.667-3.153 3.592-.789.528-2.051 1.056-3.019 1.265a9.053 9.053 0 0 1-7.538-1.778c-1.513-1.212-2.648-2.99-3.103-4.859-.186-.763-.244-1.272-.244-2.16 0-1.493.257-2.621.897-3.94a8.983 8.983 0 0 1 5.24-4.594c.705-.233 1.272-.348 2.18-.442.322-.033 1.571.015 1.98.077M9.695 7.057a1.04 1.04 0 0 0-.567.459L9.02 7.7l-.011 4.218c-.012 4.751-.029 4.464.289 4.782.267.267.685.368 1.022.246.229-.083 6.38-4.205 6.476-4.34.262-.369.262-.843.001-1.211-.103-.143-6.249-4.255-6.487-4.338a.939.939 0 0 0-.615 0m2.995 3.937c.808.538 1.47.991 1.47 1.006 0 .02-2.179 1.49-3.05 2.058l-.11.071V9.871l.11.071 1.58 1.052" fill-rule="evenodd" fill="#002434"/></svg>
