<svg width="18" height="18" viewBox="0 0 24 24" fill="none" xmlns="http://www.w3.org/2000/svg">
<path fill-rule="evenodd" clip-rule="evenodd" d="M6 1C5.44772 1 5 1.44772 5 2V8H4C3.20435 8 2.44129 8.31607 1.87868 8.87868C1.31607 9.44129 1 10.2044 1 11V16C1 16.7956 1.31607 17.5587 1.87868 18.1213C2.44129 18.6839 3.20435 19 4 19H5V22C5 22.5523 5.44772 23 6 23H18C18.5523 23 19 22.5523 19 22V19H20C20.7957 19 21.5587 18.6839 22.1213 18.1213C22.6839 17.5587 23 16.7957 23 16V11C23 10.2043 22.6839 9.44129 22.1213 8.87868C21.5587 8.31607 20.7957 8 20 8H19V2C19 1.44772 18.5523 1 18 1H6ZM17 8V3H7V8H17ZM20 10C20.2652 10 20.5196 10.1054 20.7071 10.2929C20.8946 10.4804 21 10.7348 21 11V16C21 16.2652 20.8946 16.5196 20.7071 16.7071C20.5196 16.8946 20.2652 17 20 17H19V14C19 13.4477 18.5523 13 18 13H6C5.44772 13 5 13.4477 5 14V17H4C3.73478 17 3.48043 16.8946 3.29289 16.7071C3.10536 16.5196 3 16.2652 3 16V11C3 10.7348 3.10536 10.4804 3.29289 10.2929C3.48043 10.1054 3.73478 10 4 10H20ZM17 15V21H7V15H17Z" fill="#002434"/>
</svg>
