<svg xmlns="http://www.w3.org/2000/svg" width="24" height="24" viewBox="0 0 24 24" fill="none">
    <g clip-path="url(#clip0_878_7700)">
        <path fill-rule="evenodd" clip-rule="evenodd" d="M5.16192 3.2576C7.05935 2.20868 9.24629 1.80482 11.3932 2.10688C13.535 2.40822 15.5212 3.39582 17.0541 4.92135L19.9545 7.54249C19.9698 7.55679 19.9844 7.57144 19.9985 7.58644V4C19.9985 3.44772 20.4463 3 20.9985 3C21.5508 3 21.9985 3.44772 21.9985 4V10C21.9985 10.5523 21.5508 11 20.9985 11H14.9985C14.4463 11 13.9985 10.5523 13.9985 10C13.9985 9.44772 14.4463 9 14.9985 9H18.585L15.6738 6.36876C15.6664 6.36186 15.6592 6.35484 15.652 6.34772C14.4246 5.12231 12.8321 4.32902 11.1146 4.08737C9.39703 3.84573 7.64748 4.16881 6.12953 5.00795C4.61158 5.84709 3.40746 7.15682 2.69861 8.7398C1.98975 10.3228 1.81455 12.0933 2.19941 13.7845C2.58427 15.4757 3.50834 16.996 4.83238 18.1164C6.15642 19.2368 7.80872 19.8965 9.5403 19.9961C11.2719 20.0958 12.989 19.63 14.4328 18.6689C15.8766 17.7079 16.969 16.3036 17.5454 14.6677C17.7289 14.1468 18.3 13.8733 18.8209 14.0568C19.3418 14.2404 19.6153 14.8114 19.4317 15.3323C18.7113 17.3772 17.3458 19.1325 15.541 20.3338C13.7362 21.5352 11.5899 22.1174 9.42538 21.9928C7.2609 21.8683 5.19554 21.0436 3.54048 19.6431C1.88543 18.2427 0.730339 16.3423 0.249266 14.2283C-0.23181 12.1142 -0.0128098 9.90115 0.873262 7.92242C1.75934 5.94369 3.26448 4.30652 5.16192 3.2576ZM19.9546 9C19.9696 8.98589 19.9842 8.97123 19.9985 8.95602C19.9985 8.95602 19.9985 8.95603 19.9985 8.95602L19.9985 9H19.9546Z" fill="#002434"/>
    </g>
    <defs>
        <clipPath id="clip0_878_7700">
            <rect width="24" height="24" fill="white"/>
        </clipPath>
    </defs>
</svg>
