<svg xmlns="http://www.w3.org/2000/svg" width="18" height="18" viewBox="0 0 24 24" fill="none">
    <path d="M10.4142 11.2071C9.97631 10.7692 9.26633 10.7692 8.82843 11.2071C8.39052 11.645 8.39052 12.355 8.82843 12.7929L10.4142 14.3787L8.82843 15.9645C8.39052 16.4024 8.39052 17.1124 8.82843 17.5503C9.26633 17.9882 9.97631 17.9882 10.4142 17.5503L12 15.9645L13.5858 17.5503C14.0237 17.9882 14.7337 17.9882 15.1716 17.5503C15.6095 17.1124 15.6095 16.4024 15.1716 15.9645L13.5858 14.3787L15.1716 12.7929C15.6095 12.355 15.6095 11.645 15.1716 11.2071C14.7337 10.7692 14.0237 10.7692 13.5858 11.2071L12 12.7929L10.4142 11.2071Z" fill="#002434"/>
    <path fill-rule="evenodd" clip-rule="evenodd" d="M3.87868 1.87868C4.44129 1.31607 5.20435 1 6 1H14C14.2652 1 14.5196 1.10536 14.7071 1.29289L20.7071 7.29289C20.8946 7.48043 21 7.73478 21 8V20C21 20.7957 20.6839 21.5587 20.1213 22.1213C19.5587 22.6839 18.7957 23 18 23H6C5.20435 23 4.44129 22.6839 3.87868 22.1213C3.31607 21.5587 3 20.7957 3 20V4C3 3.20435 3.31607 2.44129 3.87868 1.87868ZM6 3C5.73478 3 5.48043 3.10536 5.29289 3.29289C5.10536 3.48043 5 3.73478 5 4V20C5 20.2652 5.10536 20.5196 5.29289 20.7071C5.48043 20.8946 5.73478 21 6 21H18C18.2652 21 18.5196 20.8946 18.7071 20.7071C18.8946 20.5196 19 20.2652 19 20V9H14C13.4477 9 13 8.55228 13 8V3H6ZM15 4.41421L17.5858 7H15V4.41421Z" fill="#002434"/>
</svg>
