<svg xmlns="http://www.w3.org/2000/svg" width="24" height="24" viewBox="0 0 24 24" fill="none">
    <g clip-path="url(#clip0_883_7709)">
        <path fill-rule="evenodd" clip-rule="evenodd" d="M16 14C16 13.4477 16.4477 13 17 13H23C23.5523 13 24 13.4477 24 14V20C24 20.5523 23.5523 21 23 21C22.4477 21 22 20.5523 22 20V15H17C16.4477 15 16 14.5523 16 14Z" fill="#002434"/>
        <path fill-rule="evenodd" clip-rule="evenodd" d="M1 3C1.55229 3 2 3.44771 2 4V9H7C7.55229 9 8 9.44771 8 10C8 10.5523 7.55229 11 7 11H1C0.447718 11 3.01371e-06 10.5523 3.01371e-06 10V4C3.01371e-06 3.44771 0.447718 3 1 3Z" fill="#002434"/>
        <path fill-rule="evenodd" clip-rule="evenodd" d="M9.22695 2.39615C10.8497 1.92678 12.5648 1.87613 14.2124 2.24891C15.86 2.6217 17.3863 3.40577 18.6489 4.52798C19.9115 5.65018 20.8692 7.07394 21.4327 8.6664C21.617 9.18705 21.3442 9.75847 20.8236 9.94272C20.303 10.127 19.7315 9.85424 19.5473 9.3336C19.0965 8.05963 18.3303 6.92062 17.3202 6.02286C16.3101 5.12509 15.0891 4.49783 13.771 4.1996C12.453 3.90137 11.0808 3.9419 9.78267 4.31739C8.48451 4.69289 7.30262 5.39112 6.34729 6.34693C6.3399 6.35432 6.3324 6.3616 6.32478 6.36875L1.68478 10.7288C1.2823 11.1069 0.649442 11.0873 0.27125 10.6848C-0.106942 10.2823 -0.0872528 9.64944 0.315226 9.27125L4.9441 4.9217C6.13627 3.73277 7.6094 2.86403 9.22695 2.39615ZM23.7288 13.3152C24.1069 13.7177 24.0873 14.3506 23.6848 14.7288L19.0559 19.0783C17.8637 20.2672 16.3906 21.136 14.7731 21.6038C13.1503 22.0732 11.4352 22.1239 9.78761 21.7511C8.14003 21.3783 6.61373 20.5942 5.35114 19.472C4.08855 18.3498 3.13081 16.9261 2.56729 15.3336C2.38305 14.8129 2.65576 14.2415 3.17641 14.0573C3.69705 13.873 4.26848 14.1458 4.45272 14.6664C4.90353 15.9404 5.66973 17.0794 6.6798 17.9771C7.68988 18.8749 8.91091 19.5022 10.229 19.8004C11.547 20.0986 12.9192 20.0581 14.2173 19.6826C15.5155 19.3071 16.6974 18.6089 17.6527 17.6531C17.6572 17.6486 17.6616 17.6442 17.6662 17.6399C17.6692 17.637 17.6722 17.6341 17.6752 17.6312L22.3152 13.2712C22.7177 12.8931 23.3506 12.9127 23.7288 13.3152Z" fill="#002434"/>
        <path fill-rule="evenodd" clip-rule="evenodd" d="M10 12C10 10.8954 10.8954 10 12 10C13.1046 10 14 10.8954 14 12C14 13.1046 13.1046 14 12 14C10.8954 14 10 13.1046 10 12Z" fill="#002434"/>
    </g>
    <defs>
        <clipPath id="clip0_883_7709">
            <rect width="24" height="24" fill="white"/>
        </clipPath>
    </defs>
</svg>
