<svg width="24" height="24" fill="none" xmlns="http://www.w3.org/2000/svg"><path d="M9.832.04a.753.753 0 0 0-.433.362c-.107.211-.105.534.005.715.045.075.473.585.949 1.133.477.548.873 1.013.88 1.033.008.022-.328.037-.805.037-1.295 0-2.063.107-3.013.419a8.343 8.343 0 0 0-5.673 6.812c-.081.587-.08 1.636.001 2.217.513 3.68 3.294 6.515 7.002 7.139.582.098 1.976.098 2.539.001a8.724 8.724 0 0 0 3.647-1.507c.485-.34 1.49-1.345 1.83-1.83a8.717 8.717 0 0 0 1.345-2.886c.153-.606.242-1.268.2-1.491-.087-.455-.687-.668-1.116-.396-.249.157-.338.347-.433.916-.243 1.454-.874 2.705-1.877 3.725-.98.996-2.189 1.643-3.607 1.929-.387.078-.573.091-1.273.089-.732-.001-.874-.013-1.324-.108a6.533 6.533 0 0 1-1.736-.611A6.154 6.154 0 0 1 5.2 16.48a6.246 6.246 0 0 1-1.28-1.78 6.398 6.398 0 0 1-.609-1.75c-.077-.384-.091-.574-.091-1.29 0-.716.014-.906.091-1.29a6.398 6.398 0 0 1 .609-1.75c.701-1.406 1.772-2.459 3.175-3.12 1.055-.497 1.974-.677 3.337-.653l.692.013-.997.856c-.548.47-1.03.911-1.071.98-.12.2-.104.568.034.776.207.312.637.43.959.263.137-.071 3.334-2.803 3.558-3.041a.735.735 0 0 0 .122-.816c-.039-.076-.769-.943-1.623-1.926C10.469.066 10.395-.005 10.077.003a1.125 1.125 0 0 0-.245.037M17.1 5.555c-.107.051-1.26 1.178-3.459 3.38l-3.299 3.303-.941-.935c-1.024-1.018-1.087-1.061-1.463-1.005-.519.078-.792.699-.503 1.144.155.238 2.387 2.45 2.565 2.541a.78.78 0 0 0 .722-.032c.224-.133 7.285-7.201 7.377-7.385.09-.18.087-.534-.006-.693a1.115 1.115 0 0 0-.224-.246c-.196-.159-.526-.19-.769-.072" fill="#002434" fill-rule="evenodd"/></svg>