<svg xmlns="http://www.w3.org/2000/svg" width="18" height="18" viewBox="0 0 27 27" fill="none">
    <path d="M26.4 5.4C26.4 8.05097 24.2509 10.2 21.6 10.2C18.949 10.2 16.8 8.05097 16.8 5.4C16.8 2.74903 18.949 0.599998 21.6 0.599998C24.2509 0.599998 26.4 2.74903 26.4 5.4Z" fill="#002434"/>
    <path d="M14.16 9.6C14.2184 9.6 14.2757 9.60464 14.3316 9.61356C14.5907 10.0595 14.8896 10.4794 15.2236 10.8685C15.1344 11.3751 14.6921 11.76 14.16 11.76H9.83995C9.24348 11.76 8.75995 11.2765 8.75995 10.68C8.75995 10.0835 9.24348 9.6 9.83995 9.6H10.92V5.28C10.92 4.68353 11.4035 4.2 12 4.2C12.5964 4.2 13.08 4.68353 13.08 5.28V9.6H14.16Z" fill="#002434"/>
    <path d="M20.6399 13.7457C19.8851 13.6599 19.1605 13.4739 18.48 13.2015V15C18.48 15.5965 18.9635 16.08 19.56 16.08C20.1564 16.08 20.6399 15.5965 20.6399 15V13.7457Z" fill="#002434"/>
    <path d="M13.08 15C13.08 14.4035 12.5964 13.92 12 13.92C11.4035 13.92 10.92 14.4035 10.92 15V24.72C10.92 25.3165 11.4035 25.8 12 25.8C12.5964 25.8 13.08 25.3165 13.08 24.72V15Z" fill="#002434"/>
    <path d="M1.19995 17.16C1.19995 16.5635 1.68348 16.08 2.27995 16.08H6.59995C7.19642 16.08 7.67995 16.5635 7.67995 17.16C7.67995 17.7565 7.19642 18.24 6.59995 18.24H5.51995V24.72C5.51995 25.3165 5.03642 25.8 4.43995 25.8C3.84348 25.8 3.35995 25.3165 3.35995 24.72V18.24H2.27995C1.68348 18.24 1.19995 17.7565 1.19995 17.16Z" fill="#002434"/>
    <path d="M16.32 19.32C16.32 18.7235 16.8035 18.24 17.4 18.24H21.72C22.3164 18.24 22.8 18.7235 22.8 19.32C22.8 19.9165 22.3164 20.4 21.72 20.4H20.6399V24.72C20.6399 25.3165 20.1564 25.8 19.56 25.8C18.9635 25.8 18.48 25.3165 18.48 24.72V20.4H17.4C16.8035 20.4 16.32 19.9165 16.32 19.32Z" fill="#002434"/>
    <path d="M5.51995 5.28C5.51995 4.68353 5.03642 4.2 4.43995 4.2C3.84348 4.2 3.35995 4.68353 3.35995 5.28V12.84C3.35995 13.4365 3.84348 13.92 4.43995 13.92C5.03642 13.92 5.51995 13.4365 5.51995 12.84V5.28Z" fill="#002434"/>
</svg>
