<svg xmlns="http://www.w3.org/2000/svg" width="18" height="18" viewBox="0 0 24 24" fill="none">
    <path d="M20 3C20 2.44772 19.5523 2 19 2C18.4477 2 18 2.44772 18 3V12C18 12.5523 18.4477 13 19 13C19.5523 13 20 12.5523 20 12V3Z" fill="#002434"/>
    <path d="M9 8C9 7.44772 9.44771 7 10 7H11V3C11 2.44772 11.4477 2 12 2C12.5523 2 13 2.44772 13 3V7H14C14.5523 7 15 7.44772 15 8C15 8.55228 14.5523 9 14 9H10C9.44771 9 9 8.55228 9 8Z" fill="#002434"/>
    <path d="M13 12C13 11.4477 12.5523 11 12 11C11.4477 11 11 11.4477 11 12V21C11 21.5523 11.4477 22 12 22C12.5523 22 13 21.5523 13 21V12Z" fill="#002434"/>
    <path d="M2 14C2 13.4477 2.44772 13 3 13H7C7.55228 13 8 13.4477 8 14C8 14.5523 7.55228 15 7 15H6V21C6 21.5523 5.55228 22 5 22C4.44772 22 4 21.5523 4 21V15H3C2.44772 15 2 14.5523 2 14Z" fill="#002434"/>
    <path d="M16 16C16 15.4477 16.4477 15 17 15H21C21.5523 15 22 15.4477 22 16C22 16.5523 21.5523 17 21 17H20V21C20 21.5523 19.5523 22 19 22C18.4477 22 18 21.5523 18 21V17H17C16.4477 17 16 16.5523 16 16Z" fill="#002434"/>
    <path d="M6 3C6 2.44772 5.55228 2 5 2C4.44772 2 4 2.44772 4 3V10C4 10.5523 4.44772 11 5 11C5.55228 11 6 10.5523 6 10V3Z" fill="#002434"/>
</svg>
