<svg width="18" height="18" viewBox="0 0 24 24" fill="none" xmlns="http://www.w3.org/2000/svg">
<path d="M16.5239 19C16.5239 19.5523 16.9697 20 17.5196 20C18.0695 20 18.5153 19.5523 18.5153 19V7.41421L20.3002 9.20681C20.689 9.59733 21.3195 9.59733 21.7084 9.20681C22.0972 8.81628 22.0972 8.18312 21.7084 7.7926L18.2237 4.29289C17.8348 3.90237 17.2044 3.90237 16.8155 4.29289L13.2447 7.87868C12.8558 8.2692 12.8558 8.90237 13.2447 9.29289C13.6335 9.68342 14.264 9.68342 14.6529 9.29289L16.5239 7.41421V19Z" fill="#002434"/>
<path d="M6.56656 4C7.11648 4 7.56229 4.44772 7.56229 5V16.5858L9.34714 14.7932C9.73599 14.4027 10.3665 14.4027 10.7553 14.7932C11.1442 15.1837 11.1442 15.8169 10.7553 16.2074L7.27064 19.7071C6.88179 20.0976 6.25132 20.0976 5.86247 19.7071L2.29164 16.1213C1.90279 15.7308 1.90279 15.0976 2.29164 14.7071C2.6805 14.3166 3.31096 14.3166 3.69982 14.7071L5.57082 16.5858V5C5.57082 4.44772 6.01663 4 6.56656 4Z" fill="#002434"/>
</svg>
