<svg xmlns="http://www.w3.org/2000/svg" width="18" height="18" viewBox="0 0 24 24" fill="none">
    <path fill-rule="evenodd" clip-rule="evenodd" d="M16.8366 3.2576C14.9392 2.20868 12.7522 1.80482 10.6053 2.10688C8.46354 2.40822 6.47732 3.39582 4.94447 4.92135L2.04399 7.54249C2.02878 7.55679 2.01412 7.57144 2 7.58644V4C2 3.44772 1.55228 3 1 3C0.447715 3 0 3.44772 0 4V10C0 10.5523 0.447715 11 1 11H7C7.55228 11 8 10.5523 8 10C8 9.44772 7.55228 9 7 9H3.41354L6.32475 6.36876C6.3321 6.36186 6.33935 6.35484 6.34649 6.34772C7.57396 5.12231 9.16644 4.32902 10.884 4.08737C12.6015 3.84573 14.3511 4.16881 15.869 5.00795C17.387 5.84709 18.5911 7.15682 19.2999 8.7398C20.0088 10.3228 20.184 12.0933 19.7991 13.7845C19.4143 15.4757 18.4902 16.996 17.1662 18.1164C15.8421 19.2368 14.1898 19.8965 12.4582 19.9961C10.7266 20.0958 9.00958 19.63 7.56574 18.6689C6.1219 17.7079 5.0295 16.3036 4.45315 14.6677C4.26963 14.1468 3.69858 13.8733 3.17768 14.0568C2.65678 14.2404 2.38328 14.8114 2.5668 15.3323C3.28724 17.3772 4.65273 19.1325 6.45753 20.3338C8.26233 21.5352 10.4087 22.1174 12.5732 21.9928C14.7376 21.8683 16.803 21.0436 18.4581 19.6431C20.1131 18.2427 21.2682 16.3423 21.7493 14.2283C22.2303 12.1142 22.0113 9.90115 21.1253 7.92242C20.2392 5.94369 18.7341 4.30652 16.8366 3.2576ZM2.04394 9C2.02895 8.98589 2.0143 8.97123 2.00001 8.95602C2.00001 8.95602 2.00002 8.95603 2.00001 8.95602L2 9H2.04394Z" fill="#002434"/>
</svg>
