<svg xmlns="http://www.w3.org/2000/svg" width="18" height="18" viewBox="0 0 24 24" fill="none">
    <path fill-rule="evenodd" clip-rule="evenodd" d="M11.5804 1.10557C11.8613 0.964809 12.1918 0.964809 12.4727 1.10557L22.4485 6.10557C22.7865 6.27496 23 6.62123 23 7C23 7.37877 22.7865 7.72504 22.4485 7.89443L12.4727 12.8944C12.1918 13.0352 11.8613 13.0352 11.5804 12.8944L1.60458 7.89443C1.26661 7.72504 1.05313 7.37877 1.05313 7C1.05313 6.62123 1.26661 6.27496 1.60458 6.10557L11.5804 1.10557ZM4.28138 7L12.0266 10.882L19.7717 7L12.0266 3.11803L4.28138 7Z" fill="#002434"/>
    <path d="M16.2661 14.2498C16.5984 13.9167 17.1372 13.9167 17.4695 14.2498L19.5085 16.2938L21.5475 14.2498C21.8797 13.9167 22.4185 13.9167 22.7508 14.2498C23.0831 14.5829 23.0831 15.123 22.7508 15.4561L20.7118 17.5L22.7508 19.5439C23.0831 19.877 23.0831 20.4171 22.7508 20.7502C22.4185 21.0833 21.8797 21.0833 21.5475 20.7502L19.5085 18.7062L17.4695 20.7502C17.1372 21.0833 16.5984 21.0833 16.2661 20.7502C15.9338 20.4171 15.9338 19.877 16.2661 19.5439L18.3051 17.5L16.2661 15.4561C15.9338 15.123 15.9338 14.5829 16.2661 14.2498Z" fill="#002434"/>
    <path d="M1.12825 11.546C1.3751 11.0523 1.8955 10.8129 2.29061 11.0114L12.3063 16.0429C12.7014 16.2414 12.8216 16.8025 12.5748 17.2963C12.3279 17.79 11.8075 18.0294 11.4124 17.8309L1.39671 12.7994C1.0016 12.601 0.881409 12.0398 1.12825 11.546Z" fill="#002434"/>
    <path d="M2.29061 15.9766C1.8955 15.7781 1.3751 16.0175 1.12825 16.5113C0.881409 17.005 1.0016 17.5662 1.39671 17.7647L11.4124 22.7961C11.8075 22.9946 12.3279 22.7553 12.5748 22.2615C12.8216 21.7677 12.7014 21.2066 12.3063 21.0081L2.29061 15.9766Z" fill="#002434"/>
</svg>
