<svg xmlns="http://www.w3.org/2000/svg" width="18" height="18" viewBox="0 0 24 24" fill="none">
    <path fill-rule="evenodd" clip-rule="evenodd" d="M6 10V7C6 5.4087 6.63214 3.88258 7.75736 2.75736C8.88258 1.63214 10.4087 1 12 1C13.5913 1 15.1174 1.63214 16.2426 2.75736C16.8278 3.34256 17.2797 4.03621 17.5786 4.79106C17.7458 5.21327 17.5185 5.67343 17.1051 5.86134C16.5953 6.09304 16.0031 5.82323 15.7175 5.34166C15.5981 5.14043 15.467 4.95323 15.3272 4.77965C15.1824 4.56263 15.0156 4.35878 14.8284 4.17157C14.1699 3.51306 13.3054 3.10786 12.3864 3.01869C12.2896 3.00617 12.1989 3 12.1156 3C12.0982 3 12.0809 3.00017 12.0637 3.00051C12.0425 3.00017 12.0213 3 12 3C10.9391 3 9.92172 3.42143 9.17157 4.17157C8.42143 4.92172 8 5.93913 8 7V10H19C20.6569 10 22 11.3431 22 13V20C22 21.6569 20.6569 23 19 23H5C3.34315 23 2 21.6569 2 20V13C2 11.3431 3.34315 10 5 10H6ZM5 12C4.44772 12 4 12.4477 4 13V20C4 20.5523 4.44772 21 5 21H19C19.5523 21 20 20.5523 20 20V13C20 12.4477 19.5523 12 19 12H5Z" fill="#002434"/>
</svg>
