<svg xmlns="http://www.w3.org/2000/svg" width="18" height="18" viewBox="0 0 24 24" fill="none">
    <path d="M8 10C7.44772 10 7 10.4477 7 11C7 11.5523 7.44772 12 8 12H14C14.5523 12 15 11.5523 15 11C15 10.4477 14.5523 10 14 10H8Z" fill="#002434"/>
    <path fill-rule="evenodd" clip-rule="evenodd" d="M11 20C13.125 20 15.078 19.2635 16.6177 18.0319L20.2929 21.7071C20.6834 22.0976 21.3166 22.0976 21.7071 21.7071C22.0977 21.3166 22.0977 20.6834 21.7071 20.2929L18.0319 16.6177C19.2635 15.078 20 13.125 20 11C20 6.02944 15.9706 2 11 2C6.02944 2 2 6.02944 2 11C2 15.9706 6.02944 20 11 20ZM11 4C7.13401 4 4 7.13401 4 11C4 14.866 7.13401 18 11 18C12.886 18 14.5978 17.2541 15.8565 16.0413C15.8828 16.0071 15.9116 15.9742 15.9429 15.9429C15.9742 15.9116 16.0071 15.8827 16.0413 15.8564C17.2542 14.5977 18 12.886 18 11C18 7.13401 14.866 4 11 4Z" fill="#002434"/>
</svg>
